<svg width="88" height="130" viewBox="0 0 88 130" fill="none" xmlns="http://www.w3.org/2000/svg">
<g id="balloon">
<path id="Vector" d="M42.7 0.0360688C40.1 -0.0639312 37.3 0.0360627 34.4 0.436063C17.2 2.53606 4.29999 17.3361 4.39999 34.7361C4.39999 39.8361 4.9 45.4361 6.5 51.0361C11.3 68.1361 12.8 83.1361 12.2 90.4361L28.3 99.1361C28.3 99.1361 35.8 88.4361 43 83.8361C50.2 79.2361 74.2 66.8361 83.6 54.1361C89.7 45.9361 90.9 29.1361 76.3 14.4361C67.4 5.53606 55.3 0.436069 42.7 0.0360688Z" fill="#98FF98"/>
<path id="Vector_2" d="M4.60001 109.136L19.2 117.036L9.7 129.036L0 124.636L4.60001 109.136Z" fill="#455A64"/>
<g id="Group">
<path id="Vector_3" d="M5.30002 109.636C5.20002 109.636 6.60002 105.236 8.50002 100.036C10.4 94.7361 12.1 90.5361 12.2 90.5361C12.3 90.5361 10.9 94.9361 9.00002 100.136C7.10002 105.436 5.50002 109.636 5.30002 109.636Z" fill="#263238"/>
</g>
<g id="Group_2">
<path id="Vector_4" d="M18.2 116.436C18.1 116.336 20.4 112.336 23.3 107.336C26.2 102.336 28.7 98.4361 28.8 98.4361C28.9 98.5361 26.6 102.536 23.7 107.536C20.8 112.536 18.4 116.436 18.2 116.436Z" fill="#263238"/>
</g>
<g id="Group_3" opacity="0.4">
<path id="Vector_5" opacity="0.4" d="M47.5 0.536076C46.8 0.536076 38.8 9.93607 35.3 16.2361C23.4 37.5361 22.9 58.3361 19.6 82.5361C19.1 86.0361 17.4 93.4361 17.4 93.2361C19.2 94.6361 25.1 97.3361 25.1 97.3361C25.1 97.3361 30.7 90.6361 32.9 87.2361C41.8 73.6361 51.4 63.0361 59 48.7361C66.6 34.4361 73.9 21.7361 66.9 7.03608C66.9 7.13608 54.7 0.136076 47.5 0.536076Z" fill="black"/>
</g>
<g id="Group_4">
<path id="Vector_6" d="M83.7 56.3361C83.7 56.3361 83.6 56.1361 83.5 55.8361C83.4 55.5361 83.2 55.0361 82.9 54.4361C82.4 53.2361 81.5 51.6361 80.1 49.7361C78.7 47.8361 76.7 45.7361 73.9 43.9361C71.2 42.1361 67.7 40.6361 63.8 40.1361H63.7L63.6 40.0361C61.8 37.5361 59.6 34.9361 57.1 32.5361C54.6 30.1361 51.6 27.9361 48.2 26.4361C44.8 24.9361 41.2 24.2361 37.7 24.4361C34.3 24.6361 31 25.7361 28.5 27.5361L28.4 27.6361L28.3 27.5361C25.3 24.9361 21.7 23.5361 18.5 23.1361C15.3 22.7361 12.4 23.3361 10.2 24.2361C8 25.0361 6.39999 26.1361 5.39999 26.9361C4.89999 27.3361 4.5 27.6361 4.3 27.8361C4.1 28.0361 3.89999 28.1361 3.89999 28.1361C3.89999 28.1361 4 28.0361 4.2 27.7361C4.4 27.5361 4.8 27.1361 5.3 26.7361C6.3 25.9361 7.80001 24.8361 10.1 23.9361C12.3 23.0361 15.2 22.4361 18.6 22.7361C21.9 23.0361 25.6 24.4361 28.7 27.1361H28.4C31 25.2361 34.3 24.1361 37.8 23.9361C41.3 23.7361 45.1 24.4361 48.5 25.9361C52 27.5361 55 29.7361 57.5 32.1361C60 34.5361 62.2 37.1361 64 39.6361L63.8 39.5361C67.8 40.0361 71.4 41.5361 74.1 43.4361C76.9 45.2361 78.9 47.4361 80.3 49.3361C81.7 51.2361 82.5 52.9361 83 54.1361C83.3 54.7361 83.4 55.2361 83.5 55.5361C83.7 56.1361 83.7 56.3361 83.7 56.3361Z" fill="#263238"/>
</g>
<g id="Group_5">
<path id="Vector_7" d="M53.8 77.5361C53.7 77.5361 53.7 76.0361 52.4 74.0361C51.7 73.0361 50.8 71.9361 49.3 71.0361C47.9 70.1361 46 69.5361 44 69.7361H43.8V69.5361C43.5 67.4361 42.6 65.2361 41.2 63.3361C39.7 61.4361 37.7 59.6361 35.2 58.7361C33.2 57.9361 31 57.6361 29 57.7361C27 57.8361 25.1 58.4361 23.4 59.3361L23.2 59.4361L23.1 59.3361C21.5 57.6361 19.4 56.6361 17.5 56.3361C15.6 55.9361 13.8 56.1361 12.5 56.5361C9.7 57.2361 8.6 58.6361 8.5 58.5361C8.5 58.5361 8.6 58.4361 8.7 58.3361C8.9 58.2361 9.09999 58.0361 9.39999 57.7361C9.99999 57.2361 11 56.7361 12.4 56.2361C13.8 55.8361 15.6 55.6361 17.6 55.9361C19.6 56.2361 21.7 57.2361 23.5 59.0361H23.2C24.9 58.1361 26.8 57.5361 28.9 57.3361C31 57.1361 33.2 57.4361 35.4 58.3361C38 59.3361 40.1 61.1361 41.6 63.1361C43.1 65.1361 44 67.4361 44.3 69.5361L44.1 69.3361C46.3 69.1361 48.2 69.8361 49.7 70.7361C51.2 71.6361 52.2 72.8361 52.8 73.8361C53.4 74.9361 53.7 75.8361 53.9 76.4361C54 76.7361 54 77.0361 54 77.1361C53.8 77.5361 53.8 77.5361 53.8 77.5361Z" fill="#263238"/>
</g>
<g id="Group_6">
<path id="Vector_8" d="M16.3 120.836C16.3 120.836 16.1 120.636 15.8 120.436C15.4 120.236 14.8 120.236 14.1 120.536C13.7 120.636 13.3 120.736 12.8 120.736C12.3 120.736 11.7 120.536 11.4 120.136C10.6 119.336 10.3 118.136 9.59999 117.336C9.19999 116.936 8.79998 116.736 8.29998 116.736C7.79998 116.736 7.29998 116.936 6.79998 117.036C6.29998 117.136 5.79998 117.236 5.29998 117.136C4.79998 117.036 4.39999 116.836 4.09999 116.536C3.49999 116.036 3.19999 115.336 3.09999 114.936C2.99999 114.536 3.09999 114.236 3.09999 114.236C3.09999 114.236 3.09998 114.436 3.29998 114.836C3.39998 115.236 3.69998 115.736 4.29998 116.236C4.59998 116.436 4.89997 116.636 5.39997 116.736C5.79997 116.836 6.29998 116.736 6.69998 116.636C7.19998 116.536 7.69998 116.336 8.29998 116.336C8.89998 116.236 9.59998 116.536 9.99998 117.036C10.8 118.036 11.1 119.136 11.8 119.836C12.1 120.136 12.5 120.336 12.9 120.336C13.3 120.336 13.7 120.236 14.1 120.136C14.9 119.936 15.6 120.036 16 120.236C16.3 120.536 16.4 120.736 16.3 120.836Z" fill="#263238"/>
</g>
<g id="Group_7">
<path id="Vector_9" d="M18 118.436C17.9 118.536 14.8 117.036 10.9 114.936C6.99999 112.836 4 111.136 4 111.036C4.1 110.936 7.20001 112.436 11.1 114.536C15 116.536 18.1 118.336 18 118.436Z" fill="#263238"/>
</g>
<g id="Group_8">
<path id="Vector_10" d="M15.1 122.136C15.1 122.136 14.9 122.236 14.5 122.436C14.3 122.536 14.1 122.636 13.8 122.736C13.5 122.836 13.2 122.936 12.8 122.836C12.1 122.736 11.2 122.536 10.4 121.936C9.99999 121.636 9.7 121.136 9.5 120.636C9.3 120.136 9.1 119.636 8.8 119.336C8.1 118.636 7.09999 118.536 6.19999 118.536C5.29999 118.536 4.39999 118.636 3.69999 118.336C2.99999 118.036 2.59999 117.536 2.39999 117.136C2.19999 116.736 2.3 116.536 2.3 116.536C2.3 116.536 2.4 116.736 2.6 117.036C2.8 117.336 3.2 117.736 3.8 117.936C4.4 118.136 5.19999 118.136 6.19999 118.036C7.09999 118.036 8.29999 118.036 9.19999 118.936C9.59999 119.436 9.8 119.936 10 120.336C10.2 120.836 10.4 121.136 10.8 121.436C11.5 122.036 12.3 122.236 12.9 122.336C13.6 122.436 14.1 122.136 14.5 122.036C14.9 122.136 15.1 122.136 15.1 122.136Z" fill="#263238"/>
</g>
</g>
</svg>
