<svg width="439" height="376" viewBox="0 0 439 376" fill="none" xmlns="http://www.w3.org/2000/svg">
<path d="M394 353C371.8 336.1 333.8 294.2 383.8 228.4C445.7 147 371.6 113.7 300.5 117.2C243.3 120 179 48.1 114.8 61C29.6 78 84.9 151.3 27.2 190.9C-22.1 224.6 -0.899994 327.3 63.2 353H394Z" fill="#DCEDF9"/>
<path d="M432.4 203.4C432.1 191.3 420.8 186.7 413.3 195.4C409 200.4 404.9 207.6 404.1 217.2C402.4 238.7 421.2 232.5 428.2 221C431.3 216 432.6 209.5 432.4 203.4Z" fill="#DCEDF9"/>
<path d="M204.3 43.9C192.2 44.2 187.5 55.4 196.3 63C201.3 67.3 208.5 71.4 218.1 72.2C239.6 74 233.4 55.1 221.9 48.1C216.9 45.1 210.4 43.8 204.3 43.9Z" fill="#DCEDF9"/>
<path d="M39.1 161.1C43.8 150 35.6 141 25.1 145.8C19.1 148.5 12.4 153.4 7.6 161.8C-3 180.6 16.7 182.8 27.9 175.3C32.7 172.1 36.7 166.7 39.1 161.1Z" fill="#DCEDF9"/>
<path d="M220 375.6C332.224 375.6 423.2 368.257 423.2 359.2C423.2 350.143 332.224 342.8 220 342.8C107.776 342.8 16.8 350.143 16.8 359.2C16.8 368.257 107.776 375.6 220 375.6Z" fill="#DCEDF9"/>
<path d="M359.3 356.4C359.6 358 360.1 359.4 360.7 360.8H393.7C395 357.7 395 354.5 393.1 351.7C381.1 334.6 395.9 334.9 398.3 323.2C400.9 310.4 388.6 317 392.4 299.8C397.4 276.5 386.5 265.3 381 278.8C375.8 291.5 378.5 296.7 365.7 306.2C355.1 314.1 373.6 326.7 363.1 339.2C358.6 344.5 358.3 350.9 359.3 356.4Z" fill="#5AA17F"/>
<path d="M373.5 360.8C377.2 330.6 383.8 297.6 383.9 297.2C384 296.7 383.7 296.3 383.2 296.2C382.7 296.1 382.3 296.4 382.2 296.9C382.1 297.3 375.5 330.5 371.7 360.9H373.5V360.8Z" fill="#98FF98"/>
<path d="M413.6 360.8C413.5 360.6 413.5 360.3 413.4 360.1C404.7 334.6 422.9 340.4 430 326.8C437.8 311.9 420.3 315.7 431.1 295.8C445.7 268.8 436.3 251.1 424.6 265.7C413.6 279.5 415 286.9 395.9 294C380 299.9 398.2 322.2 380.8 333.8C373.4 338.8 370.7 346.5 370 353.7C369.8 356.2 369.9 358.6 370.4 360.8H413.6Z" fill="#98FF98"/>
<path d="M387.5 360.8C402.7 325.9 421.5 289.9 421.8 289.4C422.1 288.9 421.9 288.2 421.3 288C420.8 287.7 420.1 287.9 419.9 288.5C419.6 289 400.5 325.6 385.2 360.9H387.5V360.8Z" fill="#5AA17F"/>
<path d="M80.3 356.4C80 358 79.5 359.4 78.9 360.8H45.9C44.6 357.7 44.6 354.5 46.5 351.7C58.5 334.6 43.7 334.9 41.3 323.2C38.7 310.4 51 317 47.2 299.8C42.2 276.5 53.1 265.3 58.6 278.8C63.8 291.5 61.1 296.7 73.9 306.2C84.5 314.1 66 326.7 76.5 339.2C81 344.5 81.3 350.9 80.3 356.4Z" fill="#5AA17F"/>
<path d="M66.1 360.8C62.4 330.6 55.8 297.6 55.7 297.2C55.6 296.7 55.9 296.3 56.4 296.2C56.9 296.1 57.3 296.4 57.4 296.9C57.5 297.3 64.1 330.5 67.9 360.9H66.1V360.8Z" fill="#98FF98"/>
<path d="M26 360.8C26.1 360.6 26.1 360.3 26.2 360.1C34.9 334.6 16.7 340.4 9.60001 326.8C1.80001 311.9 19.3 315.7 8.50001 295.8C-6.1 268.8 3.30001 251.1 15 265.7C26 279.5 24.6 286.9 43.7 294C59.6 299.9 41.4 322.2 58.8 333.8C66.2 338.8 68.9 346.5 69.6 353.7C69.8 356.2 69.7 358.6 69.2 360.8H26Z" fill="#98FF98"/>
<path d="M52.1 360.8C36.9 325.9 18.1 289.9 17.8 289.4C17.5 288.9 17.7 288.2 18.3 288C18.8 287.7 19.5 287.9 19.7 288.5C20 289 39.1 325.6 54.4 360.9H52.1V360.8Z" fill="#5AA17F"/>
<path d="M121.9 360.8H124.4L120.5 350C121 346.2 122.6 338.9 127.4 330.7C134.6 318.7 136.4 310.3 130.4 310.3C122.6 310.4 117 329.3 118.7 344.9L109.5 319.2C109.9 315.9 111.2 309.5 116.1 301.5C122.5 290.9 127.4 278.5 119.6 279.2C111.7 279.9 106 298.9 108 314.7L100.3 293.3C100.5 291.2 101.4 287.2 104.4 282.1C108.4 275.4 111.6 267.6 106.6 268C101.6 268.4 98 280.5 99.3 290.5L97.7 286C96.2 272.3 86.8 257.1 81 258.4C75.2 259.7 80.9 268.4 88.4 276.1C91.6 279.4 93.7 283.1 95.1 285.7L98.2 294.5C92.6 287.6 84.3 282.7 80.8 285.2C76.7 288 84 292.1 91.4 294.7C95.3 296.1 98.1 297.8 99.9 299.2L109.6 326.4C100.8 314.2 86 304.7 79.9 308.9C73.4 313.4 85.1 319.8 96.7 324C104.2 326.7 109 330 111.7 332.4L119.3 353.6C110.8 340.2 94.5 329.2 87.9 333.7C81.4 338.2 93.1 344.6 104.7 348.8C113.4 351.9 118.5 355.9 120.9 358.2L121.9 360.8Z" fill="#98FF98"/>
<path d="M311.1 309.5L308.6 309L314.4 299.1C314.6 295.2 314.4 287.8 311.1 278.9C306.2 265.8 306 257.2 311.9 258.3C319.5 259.8 321.6 279.4 317.2 294.5L330.9 270.9C331.1 267.6 331 261.1 327.6 252.3C323.2 240.7 320.6 227.6 328.2 229.7C335.9 231.8 338 251.6 333.2 266.7L344.6 247C344.8 244.9 344.7 240.8 342.6 235.3C339.8 228 338.2 219.8 343 221.1C347.8 222.4 349.2 234.9 346.1 244.5L348.5 240.3C352.5 227.1 364.5 213.9 370 216.2C375.4 218.5 368.3 226 359.5 232.3C355.7 235 353 238.2 351.2 240.5L346.5 248.6C353.3 242.9 362.3 239.5 365.3 242.6C368.8 246.1 360.9 248.8 353.2 250C349.1 250.7 346.1 251.8 344 252.9L329.5 277.9C340.4 267.5 356.6 260.9 361.9 266.1C367.5 271.7 354.8 275.9 342.6 277.9C334.7 279.1 329.4 281.6 326.3 283.4L315 302.8C325.8 291.2 343.9 283.4 349.4 288.9C355 294.5 342.3 298.7 330.1 300.7C321 302.2 315.3 305.2 312.5 307L311.1 309.5Z" fill="#98FF98"/>
<path d="M199.645 287.343L199.531 366.743L314.431 366.908L314.545 287.508L199.645 287.343Z" fill="#FFAA01"/>
<path d="M314.6 287.6V292.7L257 343.5L199.6 292.5L199.7 287.4L257 338.6L314.6 287.6Z" fill="#F88800"/>
<path d="M246 328.5L202.9 366.8H199.5V364.8L243.5 325.8L246 328.5Z" fill="#F88800"/>
<path d="M314.5 365.2V366.9H310.8L267.8 328.6L270.3 325.8L314.5 365.2Z" fill="#F88800"/>
<path d="M199.6 287.4L257 338.6L314.6 287.6L199.6 287.4Z" fill="#FDCC50"/>
<path d="M244.9 15.7C244.8 15.7 244.7 15.7 244.6 15.7C243.4 15.2 242.8 15 242.7 15C242.3 14.9 242.2 14.5 242.3 14.1C242.4 13.7 242.8 13.6 243.2 13.7C243.2 13.7 243.9 13.9 245.2 14.5C245.5 14.6 245.7 15 245.6 15.4C245.3 15.5 245.1 15.7 244.9 15.7Z" fill="#DCEDF9"/>
<path d="M279.6 52.2C280.1 53.4 280.5 54.7 280.9 56C281 56.3 281.3 56.5 281.6 56.5H281.7C282.1 56.4 282.3 56 282.2 55.6C281.8 54.3 281.4 53 280.9 51.7C280.8 51.3 280.4 51.2 280 51.3C279.6 51.5 279.4 51.9 279.6 52.2Z" fill="#DCEDF9"/>
<path d="M281.9 59.9001C282.2 61.2001 282.5 62.5001 282.7 63.8001C282.8 64.2001 283.1 64.4001 283.4 64.4001C283.4 64.4001 283.4 64.4001 283.5 64.4001C283.9 64.3001 284.1 64.0001 284 63.6001C283.8 62.3001 283.5 60.9001 283.1 59.6001C283 59.2001 282.6 59.0001 282.3 59.1001C282.1 59.1001 281.8 59.5001 281.9 59.9001Z" fill="#DCEDF9"/>
<path d="M284.8 80.4C285.1 80.4 285.4 80.1 285.4 79.7C285.4 78.3 285.4 77 285.4 75.6C285.4 75.2 285.1 74.9 284.7 74.9C284.3 74.9 284 75.2 284 75.6C284 76.9 284 78.3 284 79.6C284 80.1 284.3 80.4 284.8 80.4C284.8 80.4 284.7 80.4 284.8 80.4Z" fill="#DCEDF9"/>
<path d="M284 67C283.6 67 283.4 67.4 283.4 67.8C283.5 68.4 283.6 69 283.6 69.6C283.7 70.3 283.7 71 283.8 71.7C283.8 72.1 284.2 72.4 284.5 72.3C284.9 72.3 285.1 71.9 285.1 71.6C285 70.9 285 70.1 284.9 69.4C284.8 68.8 284.8 68.1 284.7 67.5C284.7 67.2 284.3 66.9 284 67Z" fill="#DCEDF9"/>
<path d="M278 48.5C278.1 48.8 278.4 48.9 278.7 48.9C278.8 48.9 278.8 48.9 278.9 48.8C279.2 48.6 279.4 48.2 279.2 47.9C278.6 46.7 278 45.4 277.4 44.2C277.2 43.9 276.8 43.7 276.5 43.9C276.2 44.1 276 44.5 276.2 44.8C276.9 46.1 277.5 47.3 278 48.5Z" fill="#DCEDF9"/>
<path d="M248.1 17.3C249.3 17.9 250.4 18.5 251.6 19.2C251.7 19.3 251.9 19.3 252 19.3C252.2 19.3 252.4 19.2 252.5 19C252.7 18.7 252.6 18.3 252.3 18.1C251.1 17.4 249.9 16.7 248.7 16.1C248.4 15.9 248 16.1 247.8 16.4C247.7 16.8 247.8 17.2 248.1 17.3Z" fill="#DCEDF9"/>
<path d="M258.3 23.8001C258.4 23.9001 258.6 24.0001 258.8 23.9001C259 23.9001 259.2 23.8001 259.3 23.6001C259.5 23.3001 259.5 22.9001 259.2 22.6001C258.1 21.8001 257 21.0001 255.9 20.2001C255.6 20.0001 255.2 20.1001 255 20.4001C254.8 20.7001 254.9 21.1001 255.2 21.3001C256.1 22.2001 257.2 22.9001 258.3 23.8001Z" fill="#DCEDF9"/>
<path d="M264.4 29.0001C264.6 29.1001 264.8 29.2001 264.9 29.2001C265.1 29.2001 265.2 29.1001 265.3 29.0001C265.6 28.7001 265.6 28.3001 265.3 28.0001C264.3 27.1001 263.3 26.1001 262.3 25.2001C262 25.0001 261.6 25.0001 261.3 25.3001C261.1 25.6001 261.1 26.0001 261.4 26.3001C262.4 27.1001 263.4 28.1001 264.4 29.0001Z" fill="#DCEDF9"/>
<path d="M269.7 34.9C269.9 35.1 270.1 35.2 270.3 35.2C270.4 35.2 270.5 35.1 270.7 35.1C271 34.9 271 34.4 270.8 34.1C270 33 269.1 32 268.1 31C267.8 30.7 267.4 30.7 267.1 31C266.8 31.3 266.8 31.7 267.1 32C268 32.8 268.9 33.9 269.7 34.9Z" fill="#DCEDF9"/>
<path d="M274.3 41.5001C274.4 41.7001 274.7 41.8001 275 41.8001C275.1 41.8001 275.2 41.8001 275.3 41.7001C275.6 41.5001 275.7 41.1001 275.5 40.8001C274.8 39.6001 274 38.5001 273.3 37.4001C273.1 37.1001 272.7 37.0001 272.4 37.2001C272.1 37.4001 272 37.8001 272.2 38.1001C272.9 39.2001 273.6 40.3001 274.3 41.5001Z" fill="#DCEDF9"/>
<path d="M244.8 11L247.8 0L211.3 0.3L244.8 11Z" fill="#FDCC50"/>
<path d="M211.3 0.299988L243.1 13.7H243.2L244.5 16L244.8 11L211.3 0.299988Z" fill="#FFAA01"/>
<path d="M244.5 16L241.6 15.5L243.2 13.7L244.5 16Z" fill="#F88800"/>
<path d="M239.2 12.1L243.2 13.7L234.9 23L211.3 0.299988L239.2 12.1Z" fill="#FDCC50"/>
<path d="M43.6 123.5H28.7C26.3 123.5 24.4 121.6 24.4 119.2V104.3C24.4 101.9 26.3 100 28.7 100H43.6C46 100 47.9 101.9 47.9 104.3V119.2C47.8 121.6 45.9 123.5 43.6 123.5Z" fill="#FFAA01"/>
<path d="M42.7 107C42.7 106.8 42.6 106.7 42.6 106.5C42.5 105.9 42.2 105.4 41.8 105C41.5 104.7 41.2 104.4 40.8 104.2C40.3 103.9 39.7 104 39.4 104.5C38.7 105.3 38.1 106.1 37.5 106.9C37.1 107.4 37.2 108.1 37.7 108.5C38.1 108.8 38.4 109.1 38.8 109.4L38.9 109.5C38 111.8 36.6 113.6 34.5 114.9C34.2 114.7 34 114.5 33.7 114.2C33.6 114.1 33.4 114 33.3 113.9C32.9 113.6 32.4 113.5 31.9 113.8C31.8 113.9 31.6 114 31.5 114.2C30.9 114.9 30.3 115.6 29.7 116.3C29.5 116.5 29.4 116.8 29.4 117.1C29.4 117.2 29.4 117.3 29.4 117.4C29.5 117.6 29.6 117.8 29.7 117.9C30 118.2 30.4 118.6 30.9 118.8C31.4 119 32 119.2 32.6 119.1C33 119.1 33.4 119 33.7 118.9C34.7 118.6 35.5 118.2 36.3 117.6C37.1 117.1 37.8 116.4 38.5 115.7C39.4 114.8 40.2 113.7 41 112.6C41.6 111.7 42.1 110.8 42.4 109.8C42.6 109.3 42.7 108.8 42.7 108.3C42.7 108.1 42.7 107.9 42.7 107.7C42.8 107.5 42.8 107.2 42.7 107Z" fill="white"/>
<path d="M404.4 259.3H387.4C385.5 259.3 384 257.8 384 255.9V238.9C384 237 385.5 235.5 387.4 235.5H404.4C406.3 235.5 407.8 237 407.8 238.9V255.9C407.8 257.8 406.3 259.3 404.4 259.3Z" fill="#FFAA01"/>
<path d="M403.6 247C403.6 250 401.9 251.5 400 251.5C398.8 251.5 398 251 397.5 250.1C397.1 251 396.3 251.5 395.1 251.5C393.4 251.5 391.8 250 391.8 247.6C391.8 245.2 393.4 243.8 395.1 243.8C395.9 243.8 396.6 244.1 397 244.6V244H400V248.4C400 249.1 400.3 249.3 400.6 249.3C401 249.3 401.4 248.9 401.4 247.1C401.4 244.3 399.3 242.3 396.1 242.3C392.9 242.3 390.8 244.5 390.8 247.5C390.8 250.5 392.9 252.7 396.1 252.7C397.1 252.7 398.2 252.5 399.2 252L399.9 253.9C399 254.3 397.5 254.6 396.1 254.6C391.4 254.6 388.4 251.5 388.4 247.4C388.4 243.4 391.4 240.2 396.1 240.2C400.6 240.3 403.6 243.3 403.6 247ZM397.1 247.6C397.1 246.7 396.6 246.2 396 246.2C395.4 246.2 394.9 246.7 394.9 247.6C394.9 248.5 395.4 249 396 249C396.6 249.1 397.1 248.6 397.1 247.6Z" fill="white"/>
<path d="M399.5 106.8V182.6C399.5 189.7 393.8 195.4 386.7 195.4H205.1V65.8H358.6C369.9 65.8 380.2 70.4 387.6 77.8C394.9 85.2 399.5 95.5 399.5 106.8Z" fill="#98FF98"/>
<path d="M399.5 166.6V182.7C399.5 189.8 393.8 195.5 386.7 195.5H234.9V166.6H399.5Z" fill="#5AA17F"/>
<path d="M247.9 102.3V195.4H165.8V102.3C165.8 82.1 182.2 65.7 202.4 65.7H211.5C231.6 65.9 247.9 82.2 247.9 102.3Z" fill="#98FF98"/>
<path d="M247.9 102.3V195.4H174.9V102.3C174.9 82.2 191.2 65.8 211.3 65.7H211.5C231.6 65.9 247.9 82.2 247.9 102.3Z" fill="#5AA17F"/>
<path d="M165.8 195.4L134.5 250.5C123 270.7 130.1 287.1 150.3 287.1H159.4C179.6 287 205.1 270.6 216.6 250.5L247.9 195.4H165.8V195.4Z" fill="#98FF98"/>
<path d="M247.9 190.1H165.8V195.4H247.9V190.1Z" fill="#98FF98"/>
<path d="M333.7 112C340.99 112 346.9 106.09 346.9 98.8C346.9 91.5099 340.99 85.6 333.7 85.6C326.41 85.6 320.5 91.5099 320.5 98.8C320.5 106.09 326.41 112 333.7 112Z" fill="#5AA17F"/>
<path d="M333.7 109.5C340.99 109.5 346.9 103.59 346.9 96.3C346.9 89.0099 340.99 83.1 333.7 83.1C326.41 83.1 320.5 89.0099 320.5 96.3C320.5 103.59 326.41 109.5 333.7 109.5Z" fill="#2E3052"/>
<path d="M333.7 104C329.5 104 326.1 100.6 326.1 96.4C326.1 92.2 329.5 88.8 333.7 88.8C337.9 88.8 341.3 92.2 341.3 96.4C341.4 100.5 337.9 104 333.7 104Z" fill="#524E84"/>
<path d="M335.9 8.20001V96C335.9 97.2 334.9 98.2 333.7 98.2C332.5 98.2 331.5 97.2 331.5 96V8.20001H335.9Z" fill="#FFAA01"/>
<path d="M367.2 24.6H331.5V4.70001H367.2L359.1 14.7L367.2 24.6Z" fill="#2E3052"/>
<path d="M335.9 24.6V25.8L331.5 27.3V24.6H335.9Z" fill="#F88800"/>
<path d="M302.2 195.5H284.6V363.6H302.2V195.5Z" fill="#98FF98"/>
<path d="M332.3 367H254.5V363.2C254.5 357.3 259.3 352.5 265.2 352.5H321.6C327.5 352.5 332.3 357.3 332.3 363.2V367V367Z" fill="#98FF98"/>
<path d="M302.2 195.5V200L284.6 206.1V195.5H302.2Z" fill="#5AA17F"/>
<path d="M141.6 134.2C148.1 157.9 169.6 164.5 169.6 164.5C178.1 162.7 183.5 160.1 188.9 157.2C187.3 153.4 186.6 149.5 185.7 144.5C177.8 146.7 171 147.9 171 147.9C154.3 140.2 144.2 103.2 144.2 103.2C134.2 112.6 141.6 134.2 141.6 134.2Z" fill="#007FE9"/>
<path d="M85.5 324.6L78.4 334C78.4 334 79.7 338.2 84.9 341.5L93.3 330.6L85.5 324.6Z" fill="#FBA691"/>
<path d="M83.8 338.6C83.8 338.6 87.1 337.9 88.2 339C89.3 340.1 92.2 355.7 94.8 359.1C97.5 362.5 94.8 364.3 93.1 365C91.5 365.7 68.1 342.3 68.1 342.3C68.1 342.3 73.9 334.3 76.7 332.8C79.5 331.2 80.8 337 83.8 338.6Z" fill="#FFAA01"/>
<path d="M84.2 347.7C84.1 347.6 83.9 347.5 83.9 347.4C83.8 347.1 83.9 346.7 84.2 346.6C84.3 346.6 86.7 345.5 88.7 345.9C91.3 346.4 91.9 348.6 91.9 348.7C92 349 91.8 349.4 91.5 349.5C91.2 349.6 90.9 349.4 90.8 349.1C90.8 349 90.3 347.5 88.5 347.2C86.9 346.9 84.8 347.9 84.7 347.9C84.5 347.7 84.4 347.7 84.2 347.7Z" fill="white"/>
<path d="M83.8 345.2C83.7 345.1 83.5 345 83.5 344.9C83.4 344.6 83.5 344.2 83.8 344.1C83.9 344.1 86.3 343 88.3 343.4C90.9 343.9 91.5 346.1 91.5 346.2C91.6 346.5 91.4 346.9 91.1 347C90.8 347.1 90.5 346.9 90.4 346.6C90.4 346.5 89.9 345 88.1 344.7C86.5 344.4 84.4 345.4 84.3 345.4C84.1 345.2 84 345.2 83.8 345.2Z" fill="white"/>
<path d="M85.3 350.3C85.2 350.2 85 350.1 85 350C84.9 349.7 85 349.3 85.3 349.2C85.4 349.2 87.8 348.1 89.8 348.5C92.4 349 93 351.2 93 351.3C93.1 351.6 92.9 352 92.6 352.1C92.3 352.2 92 352 91.9 351.7C91.9 351.6 91.4 350.1 89.6 349.8C88 349.5 85.9 350.5 85.8 350.5C85.6 350.3 85.4 350.3 85.3 350.3Z" fill="white"/>
<path d="M128.8 340.8L129.9 352.5C129.9 352.5 133.7 354.8 139.7 353.7L138.7 340L128.8 340.8Z" fill="#FBA691"/>
<path d="M137.6 352.1C137.6 352.1 139.7 349.2 141.3 349.3C143 349.4 156 359.5 160.5 360.3C164.9 361.1 164.1 364.3 163.3 366C162.5 367.7 128.2 366.7 128.2 366.7C128.2 366.7 126.9 355.6 128 352.5C129.1 349.4 134.1 352.9 137.6 352.1Z" fill="#FFAA01"/>
<path d="M146.1 359.6C146 359.7 145.8 359.6 145.6 359.6C145.3 359.4 145.2 359.1 145.3 358.8C145.3 358.7 146.5 356.3 148.3 355.4C150.6 354.1 152.5 355.4 152.6 355.5C152.9 355.7 153 356.1 152.8 356.4C152.6 356.7 152.2 356.7 152 356.6C151.9 356.6 150.6 355.7 149 356.6C147.6 357.4 146.5 359.5 146.5 359.5C146.3 359.4 146.2 359.5 146.1 359.6Z" fill="white"/>
<path d="M144.2 357.9C144.1 358 143.9 357.9 143.7 357.9C143.4 357.7 143.3 357.4 143.4 357.1C143.4 357 144.6 354.6 146.4 353.7C148.7 352.4 150.6 353.7 150.7 353.8C151 354 151.1 354.4 150.9 354.7C150.7 355 150.3 355 150.1 354.9C150 354.9 148.7 354 147.1 354.9C145.7 355.7 144.6 357.8 144.6 357.8C144.4 357.8 144.3 357.9 144.2 357.9Z" fill="white"/>
<path d="M148.6 360.9C148.5 361 148.3 360.9 148.1 360.9C147.8 360.7 147.7 360.4 147.8 360.1C147.8 360 149 357.6 150.8 356.7C153.1 355.4 155 356.7 155.1 356.8C155.4 357 155.5 357.4 155.3 357.7C155.1 358 154.7 358 154.5 357.9C154.4 357.9 153.1 357 151.5 357.9C150.1 358.7 149 360.8 149 360.8C148.8 360.8 148.7 360.9 148.6 360.9Z" fill="white"/>
<path d="M122.2 213.4L115.1 272.4C115.1 272.4 108.7 281.1 102.6 292.2C97.5 301.5 83.8 325.7 83.8 325.7L92 332L137.2 285.2L149.2 212.9L122.2 213.4Z" fill="#0A3A2A"/>
<path d="M94.1 331.8C93.4 333.7 92 334.9 90.4 336L80.8 327.9C81.6 326.2 82.7 324.7 84.1 323.5L94.1 331.8Z" fill="#137A63"/>
<path d="M85.7 215.8C85.7 215.8 98.4 247.1 115 271.5C115 271.5 117.5 295.2 121.7 307.9C123.5 313.4 127.1 339.6 127.1 339.6L139.6 339L136.4 266.1L123.1 213.3L85.7 215.8Z" fill="#0A3A2A"/>
<path d="M140.8 338.6C141.6 340.8 141.4 342.9 140.8 345.1L126.3 345.5C125.7 343.4 125.5 341.3 125.7 339.2L140.8 338.6Z" fill="#137A63"/>
<path d="M144.2 103.2C146.1 105.6 149.9 129.6 150.5 154C150.5 154.6 150.5 155.1 150.5 155.7C150.6 158.3 150.6 160.9 150.7 163.5C150.8 166.1 150.8 168.6 150.8 171.2C150.9 175.4 150.9 179.4 151 183.4C151 183.8 151 184.3 151 184.7C151 188.5 151.1 192.2 151.1 195.7C151.1 196.2 151.1 196.6 151.1 197C151.1 202.2 151.2 206.7 151.2 210.4C151.2 210.9 151.2 211.4 151.2 211.9C151.2 214.5 151.2 216.5 151.2 217.9C145.1 219.5 139.1 220.7 133 221.4C132.8 221.4 132.7 221.4 132.5 221.5C132.2 221.5 132 221.6 131.7 221.6C131.6 221.6 131.6 221.6 131.5 221.6C130.4 221.7 129.4 221.8 128.3 221.9C123.1 222.3 117.9 222.4 112.6 222.2C112.1 222.2 111.7 222.2 111.2 222.1C110.8 222.1 110.4 222.1 110 222C109.8 222 109.6 222 109.4 222C109.1 222 108.7 221.9 108.4 221.9C100.7 221.3 93.1 219.9 85.4 217.9C85.4 214.9 85.3 208.7 85.3 200.8C85.3 200.4 85.3 199.9 85.3 199.5C85.3 190.7 85.3 180 85.4 168.9C85.4 168 85.4 167.2 85.4 166.3C85.4 165.3 85.4 164.3 85.4 163.2C85.4 163 85.4 162.9 85.4 162.7C85.4 162.5 85.4 162.2 85.4 162C85.4 161.5 85.4 161 85.4 160.6C85.4 159.9 85.4 159.2 85.4 158.5C85.4 158 85.4 157.4 85.4 156.9C85.4 155.8 85.4 154.8 85.4 153.7C85.8 131.7 86.5 111.5 87.9 106.4C88 105.9 88.2 105.6 88.3 105.4C88.5 105.2 88.6 104.9 88.8 104.7C89.1 104.4 89.4 104.1 89.7 103.8C92.1 101.6 96.1 99.1 100.3 96.7C100.8 96.4 101.3 96.1 101.7 95.9C101.8 95.9 112.9 92.1 113 92L124.7 92.8C125 92.7 141.4 99.7 144.2 103.2Z" fill="#98FF98"/>
<path d="M97 134.8C97 134.2 96.3 134 95.9 134.4C91.2 140.6 88.4 147.3 86.7 152.7C86.3 154.1 85.9 155.4 85.6 156.7C85.6 157.2 85.6 157.8 85.6 158.3C85.6 159 85.6 159.7 85.6 160.4C85.6 160.9 85.6 161.4 85.6 161.8C85.6 162 85.6 162.3 85.6 162.5C85.6 162.7 85.6 162.8 85.6 163C86 160.3 86.8 156.8 88 153C89.6 147.8 92.4 141.2 97 135.1C97 135.1 97 135 97 134.8Z" fill="#5AA17F"/>
<path d="M99.4 198.6C112 198.5 122.8 192.8 129.6 188C137 182.8 141.4 177.5 141.5 177.5C141.7 177.2 141.7 176.9 141.4 176.6C141.1 176.4 140.8 176.4 140.5 176.7C140.5 176.8 136.1 181.9 128.8 187C122.1 191.7 111.6 197.3 99.3 197.4C99 197.4 98.7 197.7 98.7 198C98.8 198.3 99 198.6 99.4 198.6Z" fill="#5AA17F"/>
<path d="M112.5 202.9C123.5 202.9 134.4 196.7 134.9 196.4C135.2 196.2 135.3 195.9 135.1 195.6C134.9 195.3 134.6 195.2 134.3 195.4C134.2 195.5 121.3 202.8 109.9 201.6C109.6 201.6 109.3 201.8 109.2 202.1C109.2 202.4 109.4 202.7 109.7 202.8C110.7 202.9 111.6 202.9 112.5 202.9Z" fill="#5AA17F"/>
<path d="M109.4 111.9C120 109 128.8 100 129.2 99.6C129.4 99.4 129.4 99 129.2 98.7C129 98.5 128.6 98.5 128.3 98.7C128.2 98.8 117.8 109.3 106.5 111.2C106.2 111.3 105.9 111.6 106 111.9C106.1 112.2 106.4 112.5 106.7 112.4C107.6 112.3 108.5 112.1 109.4 111.9Z" fill="#5AA17F"/>
<path d="M100.6 62.6C100.6 73.3 107.2 80.6 117.8 80.6C128.4 80.6 135.9 72.7 135.9 62C135.9 51.3 129.6 43.2 118.9 43.2C106.1 43.3 100.6 51.9 100.6 62.6Z" fill="#2E3052"/>
<path d="M100.8 65.4C100.8 65.4 97.1 59.8 99 55.4C101 50.9 100 51.9 100.5 48.5C101 45.1 103.5 43.7 106.4 43.2C109.3 42.7 107.3 39.3 111.4 38.1C115.5 36.9 118.8 41.1 121.4 39.2C124 37.3 130.5 36.3 132.3 39.2C134.1 42.1 135.7 42 137.7 41.9C140 41.8 143.1 45.5 141 48.8C138.9 52.2 135.4 50.8 135.8 53.2C136.3 55.5 139.3 59.6 135.3 64.8C134.2 66.6 100.8 65.4 100.8 65.4Z" fill="#2E3052"/>
<path d="M103 67.2C103 67.2 100 63.2 97.8 66.5C95.6 69.8 98.7 79.4 104.1 77.1L103 67.2Z" fill="#FB876B"/>
<path d="M102.9 74.1C102.7 74.1 102.5 74 102.5 73.8C101.7 70.8 98.6 69.6 98.5 69.6C98.3 69.5 98.1 69.2 98.2 69C98.3 68.8 98.6 68.6 98.8 68.7C98.9 68.8 102.3 70.1 103.3 73.5C103.4 73.7 103.2 74 103 74.1C103 74.1 103 74.1 102.9 74.1Z" fill="#D45C48"/>
<path d="M99.8 72.6C99.7 72.6 99.6 72.6 99.6 72.5C99.4 72.4 99.3 72.1 99.5 71.9C99.5 71.9 100.1 71 101.2 70.5C101.4 70.4 101.7 70.5 101.8 70.7C101.9 70.9 101.8 71.2 101.6 71.3C100.7 71.7 100.3 72.3 100.3 72.3C100.1 72.5 99.9 72.6 99.8 72.6Z" fill="#D45C48"/>
<path d="M133.5 67.2C133.5 67.2 136.5 63.2 138.7 66.5C140.9 69.8 137.8 79.4 132.4 77.1L133.5 67.2Z" fill="#FB876B"/>
<path d="M133.5 74.1C133.7 74.1 133.9 74 133.9 73.8C134.7 70.8 137.8 69.6 137.9 69.6C138.1 69.5 138.3 69.2 138.2 69C138.1 68.8 137.8 68.6 137.6 68.7C137.5 68.8 134.1 70.1 133.1 73.5C133 73.7 133.2 74 133.4 74.1C133.5 74.1 133.5 74.1 133.5 74.1Z" fill="#D45C48"/>
<path d="M136.7 72.6C136.8 72.6 136.9 72.6 136.9 72.5C137.1 72.4 137.2 72.1 137 71.9C137 71.9 136.4 71 135.3 70.5C135.1 70.4 134.8 70.5 134.7 70.7C134.6 70.9 134.7 71.2 134.9 71.3C135.8 71.7 136.2 72.3 136.2 72.3C136.4 72.5 136.5 72.6 136.7 72.6Z" fill="#D45C48"/>
<path d="M125.5 85.3V95.5C125.5 95.5 123.9 97.9 120.7 98.2C116.2 98.7 111.4 94 111.4 94V86L125.5 85.3Z" fill="#FBA691"/>
<path d="M125.5 85.3V89.6C122.9 92.5 118.3 93.2 111.5 92.2V86L125.5 85.3Z" fill="#FB876B"/>
<path d="M101.4 67C101.4 67.6 101.5 68.1 101.5 68.7C101.6 70.1 101.8 71.6 102.1 73.1C102.1 73.2 102.1 73.2 102.1 73.2C103.4 80.3 106.3 87.2 112.5 89.5C126.7 94.6 131.7 82.4 133.7 75.3C133.9 74.5 134.1 73.6 134.3 72.7V72.6C134.5 71.6 134.7 70.4 134.8 69.3C134.9 68.4 135 67.6 135.1 66.7C135.3 64.6 135.4 62.5 135.5 60.6C135.7 56.3 133.1 52.3 129.1 50.8C123.3 48.6 114.5 46.8 106.1 51.5C103 53.2 101.1 56.5 101 60C101.2 62 101.2 64.4 101.4 67Z" fill="#FBA691"/>
<path d="M101.4 67C101.4 67.6 101.5 68.1 101.5 68.7C101.6 70.1 101.8 71.6 102.1 73.1C102.1 73.2 102.1 73.2 102.1 73.2C103.4 80.3 106.3 87.2 112.5 89.5C126.7 94.6 131.7 82.4 133.7 75.3C133.9 74.5 134.1 73.6 134.3 72.7V72.6C134.5 71.6 134.7 70.4 134.8 69.3C134.9 68.4 135 67.6 135.1 66.7L133 67.3C132.4 70.5 131.5 75.2 130.3 77.3C128.4 72.8 118.1 76.5 118.1 76.5C118.1 76.5 108.9 73.2 105.8 76.5C104.3 72.7 103 67.3 103 67.3L101.4 67ZM117.9 78.2C125.3 77.2 127.2 79.1 127.5 81.3C125.5 83.4 123.2 84.6 121.2 85.1C118.7 85.7 113.5 85.6 109.7 82.7C109.4 80.9 108.9 75.9 117.9 78.2Z" fill="#2E3052"/>
<path d="M113.4 67.8C113.4 68.8 112.9 69.7 112.2 69.7C111.5 69.7 111 68.9 111 67.8C111 66.8 111.5 65.9 112.2 65.9C112.9 65.9 113.4 66.7 113.4 67.8Z" fill="#2E3052"/>
<path d="M127.1 67.8C127.1 68.8 126.6 69.7 125.9 69.7C125.2 69.7 124.7 68.9 124.7 67.8C124.7 66.8 125.2 65.9 125.9 65.9C126.6 65.9 127.1 66.7 127.1 67.8Z" fill="#2E3052"/>
<path d="M129.3 61.4C129.3 61.4 125.6 59.9 122.7 61.2L123 62.8C123 62.8 127.2 62.4 129.3 63.3C129.5 62.6 129.5 62 129.3 61.4Z" fill="#2E3052"/>
<path d="M107.6 61.4C107.6 61.4 111.3 59.9 114.2 61.2L113.9 62.8C113.9 62.8 109.7 62.4 107.6 63.3C107.4 62.6 107.3 62 107.6 61.4Z" fill="#2E3052"/>
<path d="M118.7 75.8C117.9 75.9 117.1 75.7 117 75.7C116.8 75.6 116.6 75.4 116.7 75.1C116.8 74.9 117 74.7 117.3 74.8C117.7 74.9 118.7 75.1 119.1 74.7C119.2 74.6 119.3 74.5 119.3 74.3C119.3 72.7 118.2 67.5 118.2 67.4C118.1 67.2 118.3 66.9 118.6 66.9C118.8 66.8 119.1 67 119.1 67.3C119.1 67.5 120.2 72.7 120.2 74.4C120.2 75 119.9 75.4 119.7 75.6C119.4 75.7 119 75.8 118.7 75.8Z" fill="#FB876B"/>
<path d="M112.5 78.5C112.9 80.4 114.1 83.8 118.3 83.8C122.5 83.8 123.7 80.6 124.1 78.5H112.5Z" fill="white"/>
<path d="M135.2 67.3H133.1C133.3 65.2 132.6 62.7 132 61C130.6 57.2 133.6 55.5 131.2 53.6C128.8 51.7 122.7 52.5 118.5 52.4C114.3 52.3 107.5 52.3 105.8 52.7C104.1 53.1 105.1 55.8 105.7 58C106.3 60.1 103.7 62.5 103.2 64.7C103.1 65.3 103.1 66.3 103.2 67.3H101.5C101.3 64.6 101.3 62.1 101.3 60.1C101.4 56.6 103.3 53.3 106.4 51.6C114.8 46.9 123.6 48.6 129.4 50.9C133.4 52.4 136 56.4 135.8 60.7C135.6 62.7 135.4 65 135.2 67.3Z" fill="#2E3052"/>
<path d="M157.24 76.0041L83.3595 165.44L145.117 216.456L218.997 127.02L157.24 76.0041Z" fill="#FFAA01"/>
<path d="M157.2 76.1L161.2 79.3L163.9 156.8L87.3 168.7L83.4 165.5L160 153.6L157.2 76.1Z" fill="#F88800"/>
<path d="M145.1 155.8L147.3 213.9L145.1 216.5L143.5 215.2L141.4 155.9L145.1 155.8Z" fill="#F88800"/>
<path d="M217.6 126L219 127.1L216.6 129.9L159.2 138.8L158.6 135.1L217.6 126Z" fill="#F88800"/>
<path d="M83.4 165.5L160 153.6L157.2 76.1L83.4 165.5Z" fill="#FDCC50"/>
<path d="M144.1 188H146.2C148.1 188 149.6 186.9 150.4 185.2C150.8 184.4 151.3 183.1 151.6 182.6C152.6 181.3 155.3 179 156.3 179C157.3 178.9 157.1 180.8 156.4 181.7C155.7 182.5 154.5 183.6 153.9 184.8C153.3 186 158.9 188.4 161.2 188.9C163.5 189.5 167.5 188.2 167.8 190.1C168.2 192 165.2 192.3 165.2 192.3C165.2 192.3 166.1 194 163.6 195.4C163.6 195.4 164 197.1 162.4 197.9C162.4 197.9 162.6 200 160.7 200.6C158.8 201.2 153 202.8 141.6 195.9L144.1 188Z" fill="#FBA691"/>
<path d="M104.9 139.6C109.2 155.9 113.4 163.1 113.4 163.1C113.4 163.1 118.2 170.5 128.2 177.5C135.1 182.3 146.2 188.1 146.2 188.1C144.3 190.6 142.9 195.5 143.7 197C120.7 197 100.5 175.2 100.5 175.2C84.4 147.2 83.3 124.3 83.6 116C83.7 113.1 84.5 110.2 86.2 107.8C87 106.5 88.1 105.4 89.3 104.8C89.3 104.8 96.2 107.4 98.6 115.5C101 123.4 104.9 139.6 104.9 139.6Z" fill="#5AA17F"/>
<path d="M207.5 141C207.5 141 202.4 139.2 200 140.2C197.6 141.2 204.2 144.7 204.2 144.7C204.2 144.7 196.3 140.5 194.9 142.2C193.5 143.9 201.1 148.2 201.1 148.2C201.1 148.2 195.3 146.2 194.1 147.4C192.9 148.6 198.3 152 198.3 152C198.3 152 193.5 150.9 192.6 151.7C191.6 152.5 195.8 155.9 198.5 156.8C201.2 157.7 201.6 153.9 201.6 153.9C201.6 153.9 204.1 151.7 203.8 150.1C203.8 150.1 206.4 148.3 206.6 146.5C206.6 146.5 210.3 143.3 207.5 141Z" fill="#FBA691"/>
</svg>
