<svg width="356" height="439" viewBox="0 0 356 439" fill="none" xmlns="http://www.w3.org/2000/svg">
<g id="illustration" clip-path="url(#clip0)">
<g id="Group 1">
<g id="Group">
<g id="Group_2">
<g id="Group_3">
<g id="Group_4">
<g id="Group_5">
<g id="Group_6">
<path id="Vector" d="M251.4 57.1H317.2C317.2 57.1 311.4 46.5 294.5 48.1C278.3 49.6 277.5 42.9 269.3 42.1C261 41.2 254.1 47.5 251.4 57.1Z" fill="#E0E0E0"/>
</g>
</g>
</g>
</g>
</g>
</g>
<g id="Group_7">
<g id="Group_8">
<g id="Group_9">
<path id="Vector_2" d="M79.5 230.9C79.5 230.9 72.9 234.5 82.5 248.2C92.1 262 98.3 268.6 98.3 268.6C98.3 268.6 100.1 271.9 97.3 272.8C94.5 273.7 88 273.6 87.2 277.3C86.4 281.2 89.5 284.2 95.3 286.5C101.1 288.8 113.7 294.3 114.8 294.8C115.9 295.3 117.2 296.7 115.3 297.7C113.5 298.6 99.4 302.1 101.4 308.7C103.4 315.3 120.7 319 122.6 319.5C124.5 319.9 125 320.6 125 321.6C125 322.6 120.1 323.3 116.2 324.5C112.2 325.7 107.8 327.7 109.3 331.4C110.8 335.1 121.7 341.8 145.6 340.9L156.7 339.7L161.4 329.6C170.2 307.3 167.4 294.8 164.4 292.2C161.4 289.6 158 293.1 155.6 296.4C153.2 299.8 150.9 304.1 150 303.8C149.1 303.5 148.6 302.7 148.8 300.8C149 298.9 151.2 281.3 145.6 277.2C140 273.1 132.1 285.3 130.6 286.7C129.1 288.1 128.1 286.4 128 285.2C127.9 284 126.9 270.3 126.6 264C126.4 257.7 124.5 253.8 120.5 253.3C116.7 252.8 114.7 259 112.9 261.4C111.1 263.8 108.6 261 108.6 261C108.6 261 104.4 252.9 94.6 239.4C84.8 225.8 79.1 231 79.1 231" fill="#EBEBEB"/>
</g>
<g id="Group_10">
<g id="Group_11">
<path id="Vector_3" d="M157.8 342.2C150.6 332.2 138.1 314.2 127.4 298.8C116.6 283.4 106.8 269.5 99.7 259.5C96.1 254.5 93.2 250.4 91.2 247.6C90.2 246.2 89.4 245.1 88.9 244.4C88.6 244 88.5 243.8 88.3 243.6C88.2 243.4 88.1 243.3 88.1 243.3C88.1 243.3 88.2 243.4 88.3 243.6C88.4 243.8 88.7 244.1 88.9 244.4C89.4 245.1 90.2 246.2 91.3 247.6C93.3 250.4 96.3 254.4 99.9 259.4C107.1 269.4 116.9 283.3 127.7 298.7C138.5 314.1 150.9 332.1 158.1 342.1" fill="#E0E0E0"/>
</g>
</g>
<g id="Group_12">
<g id="Group_13">
<path id="Vector_4" d="M96.3 277.8C96.3 277.8 96.6 277.8 97.1 277.9C97.6 278 98.3 278.1 99.2 278.3C101 278.7 103.5 279.3 106.2 280C108.9 280.7 111.3 281.4 113.2 281.9C114 282.1 114.7 282.3 115.3 282.5C115.8 282.6 116.1 282.7 116.1 282.7C116.1 282.7 115.8 282.7 115.3 282.6C114.8 282.5 114.1 282.4 113.2 282.2C111.4 281.8 108.9 281.1 106.2 280.4C103.5 279.7 101.1 279.1 99.2 278.6C98.4 278.4 97.6 278.2 97.1 278.1C96.6 277.9 96.3 277.9 96.3 277.8Z" fill="#E0E0E0"/>
</g>
</g>
<g id="Group_14">
<g id="Group_15">
<path id="Vector_5" d="M116.8 281.9C116.7 281.9 117.7 276.7 119.1 270.3C120.5 263.9 121.6 258.8 121.7 258.8C121.8 258.8 120.8 264 119.4 270.4C118.1 276.8 116.9 282 116.8 281.9Z" fill="#E0E0E0"/>
</g>
</g>
<g id="Group_16">
<g id="Group_17">
<path id="Vector_6" d="M132.3 306.3C132.3 306.3 132.4 306 132.7 305.6C133 305.1 133.3 304.4 133.8 303.6C134.7 301.9 135.9 299.6 137.2 297C138.5 294.4 139.5 292 140.3 290.3C140.7 289.5 141 288.8 141.2 288.3C141.4 287.8 141.5 287.6 141.6 287.6C141.6 287.6 141.5 287.9 141.4 288.4C141.2 288.9 141 289.6 140.6 290.5C139.9 292.3 138.9 294.7 137.6 297.3C136.3 299.9 135.1 302.2 134.1 303.8C133.6 304.6 133.2 305.3 132.9 305.7C132.5 306.1 132.4 306.3 132.3 306.3Z" fill="#E0E0E0"/>
</g>
</g>
<g id="Group_18">
<g id="Group_19">
<path id="Vector_7" d="M113 306.7C113 306.7 113.3 306.6 113.8 306.6C114.4 306.6 115.1 306.5 115.9 306.5C117.6 306.4 120.1 306.3 122.7 306.2C125.4 306.1 127.8 306.1 129.5 306C130.3 306 131 306 131.6 306C132.1 306 132.4 306 132.4 306C132.4 306 132.1 306.1 131.6 306.1C131 306.1 130.3 306.2 129.5 306.2C127.8 306.3 125.3 306.4 122.7 306.5C120 306.6 117.6 306.6 115.9 306.7C115.1 306.7 114.4 306.7 113.8 306.7C113.2 306.7 113 306.7 113 306.7Z" fill="#E0E0E0"/>
</g>
</g>
<g id="Group_20">
<g id="Group_21">
<path id="Vector_8" d="M123.9 329.9C123.9 329.9 124.2 329.8 124.9 329.8C125.6 329.8 126.5 329.7 127.5 329.6C129.7 329.5 132.8 329.3 136.2 329.2C139.6 329.1 142.7 329 144.9 328.9C146 328.9 146.9 328.9 147.5 328.8C148.1 328.8 148.5 328.8 148.5 328.8C148.5 328.8 148.2 328.9 147.5 328.9C146.8 328.9 145.9 329 144.9 329.1C142.7 329.2 139.6 329.4 136.2 329.5C132.8 329.6 129.7 329.7 127.5 329.8C126.4 329.8 125.5 329.8 124.9 329.9C124.3 330 123.9 330 123.9 329.9Z" fill="#E0E0E0"/>
</g>
</g>
<g id="Group_22">
<g id="Group_23">
<path id="Vector_9" d="M148 328.8C148 328.8 148.1 328.5 148.4 327.8C148.7 327.1 149.1 326.3 149.7 325.3C150.8 323.2 152.2 320.2 153.7 316.8C155.2 313.5 156.5 310.4 157.4 308.2C157.8 307.1 158.2 306.3 158.5 305.6C158.8 305 158.9 304.6 158.9 304.7C158.9 304.7 158.8 305.1 158.6 305.7C158.4 306.3 158 307.2 157.6 308.4C156.7 310.6 155.5 313.7 154 317C152.5 320.3 151 323.3 149.9 325.4C149.3 326.5 148.9 327.3 148.5 327.9C148.2 328.5 148 328.8 148 328.8Z" fill="#E0E0E0"/>
</g>
</g>
</g>
<g id="Group_24">
<g id="Group_25">
<g id="Group_26">
<g id="Group_27">
<g id="Group_28">
<path id="Vector_10" d="M241 181.2C229.1 167.9 230.2 148.6 234.7 132.1C235.5 129.3 235.8 126.3 237.7 124.2C239.6 122.1 243.1 121.1 245.3 122.9C247.1 124.4 247.5 127 248.1 129.2C249 132.2 250.8 134.9 253.1 137C254.7 138.3 256.7 139.4 258.7 138.9C261.4 138.1 262.5 134.9 263.1 132.1C264.3 126.9 265.5 121.8 266.7 116.6C267.3 113.8 268 111 269.5 108.6C271 106.2 273.5 104.2 276.3 104.1C279.1 104 282 106.3 281.9 109.1C281.9 110.3 281.4 111.4 281.2 112.6C281 113.8 281.2 115.2 282.3 115.7C283.3 116.3 284.6 115.8 285.6 115.2C289.1 113.1 291.9 110 294.5 106.8C297.2 103.7 299.8 100.4 303.1 98C306.4 95.6 310.6 94 314.6 94.7C318.6 95.4 322.2 98.9 322.3 103C322.4 107.1 319.2 110.5 316 113.1C311.2 116.9 305.9 120 300.3 122.3C299.3 122.7 298.2 123.2 297.6 124.1C296.6 125.8 297.9 128 299.5 129.1C301.4 130.3 303.7 130.6 305.8 131.4C307.9 132.2 310 133.7 310.3 135.9C310.8 139 307.7 141.4 304.9 142.8C299.3 145.6 293.3 147.4 287.1 148.1C284.9 148.4 282.6 148.5 280.6 149.5C278.6 150.5 277 152.8 277.6 155C278.1 157.2 280.5 158.4 282.7 158.5C284.9 158.6 287.1 157.9 289.3 157.6C293.4 157.1 298.3 158.5 299.9 162.3C301 164.8 300.4 167.9 299 170.2C297.6 172.6 295.4 174.4 293.2 176C285.4 181.7 276.3 185.6 266.8 186.6C257.4 187.6 249 186.5 241 181.2Z" fill="#F5F5F5"/>
</g>
</g>
</g>
</g>
<g id="Group_29">
<g id="Group_30">
<g id="Group_31">
<g id="Group_32">
<g id="Group_33">
<path id="Vector_11" d="M243.4 182.8C245.6 176.4 243.3 179.6 247.8 171.8C252.2 164 257.8 155.8 263.9 147.5C265.4 145.4 267 143.4 268.5 141.3C270 139.3 271.5 137.3 273.1 135.4C276.2 131.7 279.5 128.3 282.8 125.2C286 122.1 289.2 119.3 292.2 116.7C295.2 114.1 298 111.7 300.7 109.6C306.1 105.5 310.8 102.6 314.1 100.8C315.8 99.9 317.1 99.2 318 98.8C318.4 98.6 318.8 98.4 319 98.3C319.2 98.2 319.4 98.1 319.4 98.1C319.4 98.1 319.3 98.2 319.1 98.3C318.9 98.4 318.5 98.6 318.1 98.8C317.2 99.3 315.9 100 314.3 100.9C311 102.8 306.4 105.6 301.1 109.8C298.4 111.9 295.6 114.3 292.6 116.9C289.6 119.5 286.5 122.4 283.2 125.5C280 128.6 276.7 132 273.6 135.7C272 137.6 270.6 139.5 269.1 141.6C267.6 143.6 266.1 145.7 264.5 147.8C258.4 156.1 252.8 164.3 248.4 172C243.9 179.8 246.2 176.5 244 182.9" fill="#E0E0E0"/>
</g>
</g>
</g>
</g>
</g>
<g id="Group_34">
<g id="Group_35">
<g id="Group_36">
<g id="Group_37">
<g id="Group_38">
<path id="Vector_12" d="M273.2 135.5C273.2 135.5 273.2 135.1 273.2 134.3C273.2 133.5 273.3 132.4 273.5 130.9C273.8 128.1 274.3 124.1 274.8 119.8C275.4 115.5 275.8 111.6 276 108.7C276.1 107.3 276.2 106.1 276.2 105.3C276.2 104.5 276.3 104.1 276.3 104.1C276.3 104.1 276.4 104.5 276.4 105.3C276.4 106.1 276.4 107.3 276.3 108.7C276.2 111.6 275.8 115.5 275.2 119.8C274.6 124.1 274.1 127.9 273.7 130.8C273.5 132.1 273.4 133.2 273.3 134.1C273.3 135 273.2 135.5 273.2 135.5Z" fill="#E0E0E0"/>
</g>
</g>
</g>
</g>
</g>
<g id="Group_39">
<g id="Group_40">
<g id="Group_41">
<g id="Group_42">
<g id="Group_43">
<path id="Vector_13" d="M310.3 137.2C310.3 137.2 309.8 137.2 308.8 137C307.9 136.9 306.5 136.7 304.9 136.5C301.6 136.1 296.9 135.7 291.8 135.4C286.7 135.2 282 135.2 278.7 135.3C277 135.3 275.7 135.4 274.7 135.4C273.8 135.4 273.2 135.4 273.2 135.4C273.2 135.4 273.7 135.3 274.7 135.2C275.6 135.1 277 135 278.7 134.9C282.1 134.7 286.7 134.7 291.9 134.9C297 135.1 301.7 135.6 305 136.1C306.7 136.3 308 136.6 308.9 136.8C309.8 137.1 310.3 137.2 310.3 137.2Z" fill="#E0E0E0"/>
</g>
</g>
</g>
</g>
</g>
<g id="Group_44">
<g id="Group_45">
<g id="Group_46">
<g id="Group_47">
<g id="Group_48">
<path id="Vector_14" d="M248.4 171.3C248.4 171.3 248.3 171.1 248.3 170.8C248.2 170.4 248.1 169.9 248 169.4C247.7 168.2 247.4 166.4 247 164.1C246.3 159.6 245.4 153.4 244.6 146.6C243.8 139.7 243 133.5 242.3 129C242 126.8 241.7 125 241.5 123.7C241.4 123.1 241.3 122.6 241.3 122.3C241.3 122 241.2 121.8 241.3 121.8C241.3 121.8 241.4 122 241.4 122.3C241.5 122.7 241.6 123.2 241.7 123.7C242 124.9 242.3 126.7 242.7 129C243.4 133.5 244.3 139.7 245.1 146.6C245.9 153.5 246.7 159.7 247.4 164.2C247.7 166.4 248 168.2 248.2 169.5C248.3 170.1 248.4 170.6 248.4 170.9C248.4 171.1 248.4 171.3 248.4 171.3Z" fill="#E0E0E0"/>
</g>
</g>
</g>
</g>
</g>
<g id="Group_49">
<g id="Group_50">
<g id="Group_51">
<g id="Group_52">
<g id="Group_53">
<path id="Vector_15" d="M299.1 167.2C299.1 167.2 298.9 167.2 298.6 167.3C298.2 167.3 297.7 167.4 297.1 167.4C295.7 167.5 293.9 167.7 291.7 167.8C287.1 168.2 280.8 168.8 273.8 169.4C266.8 170.1 260.4 170.6 255.8 170.9C253.5 171 251.6 171.1 250.3 171.2C249.7 171.2 249.2 171.2 248.8 171.2C248.5 171.2 248.3 171.2 248.3 171.2C248.3 171.2 248.5 171.2 248.8 171.1C249.2 171.1 249.7 171 250.3 171C251.7 170.9 253.5 170.7 255.7 170.6C260.3 170.2 266.6 169.6 273.6 169C280.6 168.3 286.9 167.8 291.6 167.5C293.9 167.4 295.8 167.3 297.1 167.2C297.7 167.2 298.2 167.2 298.6 167.2C299 167.2 299.1 167.2 299.1 167.2Z" fill="#E0E0E0"/>
</g>
</g>
</g>
</g>
</g>
</g>
<g id="Group_54">
<g id="Group_55">
<g id="Group_56">
<g id="Group_57">
<g id="Group_58">
<g id="Group_59">
<path id="Vector_16" d="M338.5 269C338.5 269 338.5 269.2 338.3 269.5C338.2 269.8 338 270.3 337.8 270.8C337.3 272 336.6 273.7 335.7 275.8C333.8 280.1 331.2 286.3 328 293.6V293.7H327.9C320.8 294.9 312.5 296.2 303.7 297.7C300.9 298.2 298.2 298.6 295.6 299L295.2 299.1L295.3 298.7C297.3 290.9 299.1 283.7 300.6 277.6L300.7 277.8C294.8 275.2 289.9 273 286.5 271.4C284.8 270.6 283.5 270 282.6 269.6C282.2 269.4 281.8 269.2 281.6 269.1C281.4 269 281.3 268.9 281.3 268.9C281.3 268.9 281.4 268.9 281.7 269C282 269.1 282.3 269.3 282.7 269.4C283.6 269.8 285 270.4 286.7 271.1C290.2 272.6 295.1 274.7 301 277.3L301.2 277.4V277.6C299.7 283.7 297.9 290.9 295.9 298.7L295.6 298.4C298.2 298 301 297.5 303.7 297.1C312.5 295.7 320.8 294.3 327.9 293.2L327.7 293.3C330.9 286 333.6 279.9 335.6 275.5C336.6 273.4 337.3 271.7 337.8 270.5C338.1 270 338.3 269.5 338.4 269.2C338.4 269.1 338.5 269 338.5 269Z" fill="#E0E0E0"/>
</g>
</g>
</g>
</g>
</g>
<g id="Group_60">
<g id="Group_61">
<g id="Group_62">
<g id="Group_63">
<path id="Vector_17" d="M298.3 296.2L297.7 298L298.7 299.5L296.9 299.4L295.7 300.9L295.2 299.1L293.5 298.5L295 297.5L295.1 295.6L296.5 296.8L298.3 296.2Z" fill="#E0E0E0"/>
</g>
</g>
</g>
</g>
<g id="Group_64">
<g id="Group_65">
<g id="Group_66">
<g id="Group_67">
<path id="Vector_18" d="M281.7 268L281.4 268.9L281.9 269.6H281L280.4 270.3L280.2 269.4L279.3 269.1L280.1 268.6V267.7L280.8 268.3L281.7 268Z" fill="#E0E0E0"/>
</g>
</g>
</g>
</g>
<g id="Group_68">
<g id="Group_69">
<g id="Group_70">
<g id="Group_71">
<path id="Vector_19" d="M328.7 292.6L328.3 293.4L328.9 294.2L327.9 294.1L327.4 294.9L327.1 294L326.2 293.7L327 293.2V292.2L327.8 292.8L328.7 292.6Z" fill="#E0E0E0"/>
</g>
</g>
</g>
</g>
<g id="Group_72">
<g id="Group_73">
<g id="Group_74">
<g id="Group_75">
<path id="Vector_20" d="M301.5 277L301.2 277.8L301.7 278.6L300.8 278.5L300.3 279.3L300 278.4L299.1 278.1L299.9 277.6V276.6L300.7 277.2L301.5 277Z" fill="#E0E0E0"/>
</g>
</g>
</g>
</g>
<g id="Group_76">
<g id="Group_77">
<g id="Group_78">
<g id="Group_79">
<path id="Vector_21" d="M339.7 268.1L339.3 269L339.9 269.8L338.9 269.7L338.4 270.5L338.1 269.6L337.2 269.2L338 268.7V267.8L338.8 268.4L339.7 268.1Z" fill="#E0E0E0"/>
</g>
</g>
</g>
</g>
</g>
<g id="Group_80">
<g id="Group_81">
<g id="Group_82">
<g id="Group_83">
<g id="Group_84">
<g id="Group_85">
<path id="Vector_22" d="M36.6 340.9H89C89 340.9 84.4 332.5 70.9 333.7C58 334.9 57.4 329.6 50.8 328.9C44.2 328.2 38.7 333.3 36.6 340.9Z" fill="#E0E0E0"/>
</g>
</g>
</g>
</g>
</g>
</g>
<g id="Group_86">
<g id="Group_87">
<g id="Group_88">
<g id="Group_89">
<g id="Group_90">
<g id="Group_91">
<path id="Vector_23" d="M47 134.8H99.4C99.4 134.8 94.8 126.4 81.3 127.6C68.4 128.8 67.8 123.5 61.2 122.8C54.6 122.1 49.1 127.2 47 134.8Z" fill="#F5F5F5"/>
</g>
</g>
</g>
</g>
</g>
</g>
<g id="Group_92">
<g id="Group_93">
<g id="Group_94">
<g id="Group_95">
<g id="Group_96">
<g id="Group_97">
<path id="Vector_24" d="M312.8 171.2H355.8C355.8 171.2 352 164.3 340.9 165.3C330.3 166.3 329.8 161.9 324.4 161.4C319.1 160.8 314.6 164.9 312.8 171.2Z" fill="#F5F5F5"/>
</g>
</g>
</g>
</g>
</g>
</g>
</g>
<g id="Group_98">
<g id="Group_99">
<path id="Vector_25" d="M226.9 256.1C229 240 217.7 226.7 203.5 218.7C189.3 210.7 172.9 208 157.3 203.6C142.5 199.4 127.9 193.3 117 182.5C106.1 171.7 99.5 155.6 103.4 140.7C104.4 137 106.1 133.2 109.3 131.1C112.5 129 117.4 129 119.8 132C124.9 138.4 115 150 121.2 155.3C122.6 156.5 124.6 157 126 158.2C129.9 161.3 128.6 167.4 129.2 172.4C130.3 182.2 139.5 189.1 148.6 193.1C160.7 198.4 173.9 201 186.8 204.1C199.7 207.3 212.7 211.3 223.4 219.1C234.1 226.9 243.5 239.1 243.4 252.4C243.4 256.1 242.9 260.7 240.6 263.6C238.3 266.5 235.3 267.1 232 265.5C228.7 263.9 226.3 261.4 226.9 256.1Z" fill="#98FF98"/>
<g id="Group_100" opacity="0.8">
<path id="Vector_26" opacity="0.8" d="M226.9 256.1C229 240 217.7 226.7 203.5 218.7C189.3 210.7 172.9 208 157.3 203.6C142.5 199.4 127.9 193.3 117 182.5C106.1 171.7 99.5 155.6 103.4 140.7C104.4 137 106.1 133.2 109.3 131.1C112.5 129 117.4 129 119.8 132C124.9 138.4 115 150 121.2 155.3C122.6 156.5 124.6 157 126 158.2C129.9 161.3 128.6 167.4 129.2 172.4C130.3 182.2 139.5 189.1 148.6 193.1C160.7 198.4 173.9 201 186.8 204.1C199.7 207.3 212.7 211.3 223.4 219.1C234.1 226.9 243.5 239.1 243.4 252.4C243.4 256.1 242.9 260.7 240.6 263.6C238.3 266.5 235.3 267.1 232 265.5C228.7 263.9 226.3 261.4 226.9 256.1Z" fill="white"/>
</g>
</g>
<g id="Group_101">
<path id="Vector_27" d="M158.4 128C157.9 122 162.3 116.8 167.4 114C172.5 111.2 178.3 110.1 183.5 107.6C196.4 101.5 204.7 87 205.3 72.2C205.9 57.4 199.5 42.6 189.4 31.7C185.3 27.3 180.3 22.6 180.2 16.6C180.1 10.3 186.2 5.3 192.3 5.4C198.4 5.5 204 9.6 207.7 14.7C211.4 19.8 213.4 26 215.3 32C213.9 29.5 216.8 26.4 219.5 26.6C222.3 26.9 224.5 29.2 226.2 31.5C233.5 41.4 237.2 54.1 236.2 66.3C235.2 78.5 229.5 90.2 220.7 98.2C210.8 107.2 197.8 111.4 185.1 115.4C176.3 118.2 167.5 121 158.7 123.7" fill="#98FF98"/>
<g id="Group_102" opacity="0.8">
<path id="Vector_28" opacity="0.8" d="M158.4 128C157.9 122 162.3 116.8 167.4 114C172.5 111.2 178.3 110.1 183.5 107.6C196.4 101.5 204.7 87 205.3 72.2C205.9 57.4 199.5 42.6 189.4 31.7C185.3 27.3 180.3 22.6 180.2 16.6C180.1 10.3 186.2 5.3 192.3 5.4C198.4 5.5 204 9.6 207.7 14.7C211.4 19.8 213.4 26 215.3 32C213.9 29.5 216.8 26.4 219.5 26.6C222.3 26.9 224.5 29.2 226.2 31.5C233.5 41.4 237.2 54.1 236.2 66.3C235.2 78.5 229.5 90.2 220.7 98.2C210.8 107.2 197.8 111.4 185.1 115.4C176.3 118.2 167.5 121 158.7 123.7" fill="white"/>
</g>
</g>
<g id="Group_103">
<path id="Vector_29" d="M151.1 2.5C148.5 3.6 147 6.9 148 9.6C149 12.3 152.2 13.9 155 13C157.7 12.1 159.4 8.9 158.7 6.2C157.9 3.5 154.8 1.6 152.1 2.2" fill="#98FF98"/>
<g id="Group_104" opacity="0.8">
<path id="Vector_30" opacity="0.8" d="M151.1 2.5C148.5 3.6 147 6.9 148 9.6C149 12.3 152.2 13.9 155 13C157.7 12.1 159.4 8.9 158.7 6.2C157.9 3.5 154.8 1.6 152.1 2.2" fill="white"/>
</g>
</g>
</g>
<g id="Group_105">
<path id="Vector_31" d="M183.7 387.8C180.5 381.1 183.3 372.7 188.4 367.3C193.6 361.9 200.6 358.8 207.4 355.8C222.5 349.2 238.4 341.3 246 326.7C248.6 321.8 250.1 316.4 251.5 311C254.3 300.6 256.9 288.9 251.3 279.7C249.7 277.1 247.2 274.7 244.2 274.2C240.7 273.6 237.2 275.5 235 278.3C232.9 281.1 232 284.6 231.5 288.1C230.7 294.7 231.4 301.5 230.7 308.1C230 314.8 227.6 321.7 222.1 325.5C215.4 330.1 205.9 329.1 199.5 334C194.3 338 192.3 344.8 188.2 350C184.8 354.3 180 357.3 175.6 360.6C171.2 363.9 166.9 368 165.4 373.3C163.8 378.8 165.8 385.2 170.2 388.8C174.6 392.5 181.2 393.3 186.3 390.9" fill="#98FF98"/>
<g id="Group_106" opacity="0.8">
<path id="Vector_32" opacity="0.8" d="M183.7 387.8C180.5 381.1 183.3 372.7 188.4 367.3C193.6 361.9 200.6 358.8 207.4 355.8C222.5 349.2 238.4 341.3 246 326.7C248.6 321.8 250.1 316.4 251.5 311C254.3 300.6 256.9 288.9 251.3 279.7C249.7 277.1 247.2 274.7 244.2 274.2C240.7 273.6 237.2 275.5 235 278.3C232.9 281.1 232 284.6 231.5 288.1C230.7 294.7 231.4 301.5 230.7 308.1C230 314.8 227.6 321.7 222.1 325.5C215.4 330.1 205.9 329.1 199.5 334C194.3 338 192.3 344.8 188.2 350C184.8 354.3 180 357.3 175.6 360.6C171.2 363.9 166.9 368 165.4 373.3C163.8 378.8 165.8 385.2 170.2 388.8C174.6 392.5 181.2 393.3 186.3 390.9" fill="white"/>
</g>
</g>
<g id="Group_107">
<g id="Group_108">
<g id="Group_109">
<g id="Group_110">
<path id="Vector_33" d="M95 303.2L95.6 304.2C96.3 305.3 97.3 306.2 98.4 306.8L99.4 307.3L98.4 307.9C97.3 308.6 96.4 309.6 95.8 310.7L95.3 311.7L94.7 310.7C94 309.6 93 308.7 91.9 308.1L90.9 307.6L91.9 307C93 306.3 93.9 305.3 94.5 304.2L95 303.2Z" fill="#98FF98"/>
</g>
</g>
</g>
</g>
<g id="Group_111">
<g id="Group_112">
<g id="Group_113">
<g id="Group_114">
<path id="Vector_34" d="M39.6 96.9L40.2 97.9C40.9 99 41.9 99.9 43 100.5L44 101L43 101.6C41.9 102.3 41 103.3 40.4 104.4L39.9 105.4L39.3 104.4C38.6 103.3 37.6 102.4 36.5 101.8L35.5 101.3L36.5 100.7C37.6 100 38.5 99 39.1 97.9L39.6 96.9Z" fill="#98FF98"/>
</g>
</g>
</g>
</g>
<g id="Group_115">
<g id="Group_116">
<g id="Group_117">
<g id="Group_118">
<path id="Vector_35" d="M296.2 132.5L296.8 133.5C297.5 134.6 298.5 135.5 299.6 136.1L300.6 136.6L299.6 137.2C298.5 137.9 297.6 138.9 297 140L296.5 141L295.9 140C295.2 138.9 294.2 138 293.1 137.4L292.1 136.9L293.1 136.3C294.2 135.6 295.1 134.6 295.7 133.5L296.2 132.5Z" fill="#98FF98"/>
</g>
</g>
</g>
</g>
<g id="Group_119">
<g id="Group_120">
<g id="Group_121">
<g id="Group_122">
<path id="Vector_36" d="M265.9 316.1L266.5 317.1C267.2 318.2 268.2 319.1 269.3 319.7L270.3 320.2L269.3 320.8C268.2 321.5 267.3 322.5 266.7 323.6L266.2 324.6L265.6 323.6C264.9 322.5 263.9 321.6 262.8 321L261.8 320.5L262.8 319.9C263.9 319.2 264.8 318.2 265.4 317.1L265.9 316.1Z" fill="#98FF98"/>
</g>
</g>
</g>
</g>
<g id="Group_123">
<g id="Group_124">
<g id="Group_125">
<g id="Group_126">
<path id="Vector_37" d="M271.6 354.7L271.9 354.8C272.2 354.9 272.6 355 272.9 354.9L273.2 354.8L273.1 355.1C273 355.4 272.9 355.8 273 356.1L273.1 356.4L272.8 356.3C272.5 356.2 272.1 356.1 271.8 356.2L271.5 356.3L271.6 356C271.7 355.7 271.8 355.3 271.7 355L271.6 354.7Z" fill="#E8505B"/>
</g>
</g>
</g>
</g>
<g id="Group_127">
<g id="Group_128">
<g id="Group_129">
<g id="Group_130">
<path id="Vector_38" d="M289.1 93.8L289.4 93.9C289.7 94 290.1 94.1 290.4 94L290.7 93.9L290.6 94.2C290.5 94.5 290.4 94.9 290.5 95.2L290.6 95.5L290.3 95.4C290 95.3 289.6 95.2 289.3 95.3L289 95.4L289.1 95.1C289.2 94.8 289.3 94.4 289.2 94.1L289.1 93.8Z" fill="#E8505B"/>
</g>
</g>
</g>
</g>
<g id="Group_131">
<g id="Group_132">
<g id="Group_133">
<g id="Group_134">
<path id="Vector_39" d="M50.8 70L51.1 70.1C51.4 70.2 51.8 70.3 52.1 70.2L52.4 70.1L52.3 70.4C52.2 70.7 52.1 71.1 52.2 71.4L52.3 71.7L52 71.6C51.7 71.5 51.3 71.4 51 71.5L50.7 71.6L50.8 71.3C50.9 71 51 70.6 50.9 70.3L50.8 70Z" fill="#E8505B"/>
</g>
</g>
</g>
</g>
<g id="Group_135">
<g id="Group_136">
<g id="Group_137">
<g id="Group_138">
<path id="Vector_40" d="M80.2 273.2L80.5 273.3C80.8 273.4 81.2 273.5 81.5 273.4L81.8 273.3L81.7 273.6C81.6 273.9 81.5 274.3 81.6 274.6L81.7 274.9L81.4 274.8C81.1 274.7 80.7 274.6 80.4 274.7L80.1 274.8L80.2 274.5C80.3 274.2 80.4 273.8 80.3 273.5L80.2 273.2Z" fill="#E8505B"/>
</g>
</g>
</g>
</g>
<g id="Group_139">
<g id="Group_140">
<g id="Group_141">
<g id="Group_142">
<g id="Group_143">
<g id="Group_144">
<path id="Vector_41" d="M112.1 351.7C112.1 351.7 112 351.8 111.8 352C111.6 352.2 111.3 352.5 111 352.8C110.2 353.5 109.2 354.6 107.8 355.9C105 358.6 100.9 362.6 95.8 367.5V367.4C96.4 379.9 97.1 397 98 416V416.4L97.6 416.2C96.2 415.3 94.8 414.3 93.3 413.3C83.4 406.7 74.1 400.4 65.9 394.9H65.8V394.8C61.7 382.6 58.3 372.3 55.8 365C54.6 361.4 53.7 358.5 53 356.5C52.7 355.5 52.4 354.8 52.3 354.3C52.2 354.1 52.2 353.9 52.1 353.7C52.1 353.6 52 353.5 52 353.5C52 353.5 52 353.6 52.1 353.7C52.2 353.8 52.2 354 52.3 354.3C52.5 354.8 52.7 355.6 53.1 356.5C53.8 358.5 54.8 361.3 56 364.9C58.5 372.2 62 382.5 66.1 394.7L66 394.6C74.2 400.1 83.6 406.3 93.5 412.9C95 413.9 96.5 414.9 97.8 415.8L97.5 416C96.7 397 96 380 95.4 367.4V367.3H95.5C100.6 362.5 104.7 358.6 107.6 355.8C109 354.5 110.1 353.4 110.9 352.7C111.3 352.4 111.6 352.1 111.8 351.9C112 351.8 112.1 351.7 112.1 351.7Z" fill="#98FF98"/>
</g>
</g>
</g>
</g>
</g>
<g id="Group_145">
<g id="Group_146">
<g id="Group_147">
<g id="Group_148">
<path id="Vector_42" d="M99.3 410.2V413.1L101.5 414.8L98.8 415.5L97.9 418.2L96.3 415.9H93.5L95.2 413.6L94.4 410.9L97 411.9L99.3 410.2Z" fill="#98FF98"/>
</g>
</g>
</g>
</g>
<g id="Group_149">
<g id="Group_150">
<g id="Group_151">
<g id="Group_152">
<path id="Vector_43" d="M66.3 391V392.9L67.9 393.9L66.2 394.5L65.7 396.2L64.6 394.8L62.7 394.9L63.8 393.4L63.1 391.7L64.9 392.2L66.3 391Z" fill="#98FF98"/>
</g>
</g>
</g>
</g>
<g id="Group_153">
<g id="Group_154">
<g id="Group_155">
<g id="Group_156">
<path id="Vector_44" d="M52 350.1L53.4 351.9L55.7 351.7L54.4 353.6L55.2 355.7L53.1 355.1L51.3 356.5V354.3L49.4 353L51.5 352.3L52 350.1Z" fill="#98FF98"/>
</g>
</g>
</g>
</g>
<g id="Group_157">
<g id="Group_158">
<g id="Group_159">
<g id="Group_160">
<path id="Vector_45" d="M110.7 348.3L112.1 350.1L114.4 350L113.1 351.8L113.9 353.9L111.8 353.3L110 354.7V352.5L108.1 351.3L110.2 350.5L110.7 348.3Z" fill="#98FF98"/>
</g>
</g>
</g>
</g>
<g id="Group_161">
<g id="Group_162">
<g id="Group_163">
<g id="Group_164">
<path id="Vector_46" d="M95.3 365.5L96.2 366.6L97.6 366.5L96.8 367.7L97.4 369.1L96 368.7L94.9 369.6L94.8 368.1L93.6 367.4L95 366.9L95.3 365.5Z" fill="#98FF98"/>
</g>
</g>
</g>
</g>
</g>
<g id="Group_165">
<g id="Group_166">
<g id="Group_167">
<g id="Group_168">
<g id="Group_169">
<path id="Vector_47" d="M273.615 94.9933C280.195 88.6882 280.417 78.2433 274.112 71.664C267.807 65.0846 257.362 64.8622 250.783 71.1673C244.203 77.4724 243.981 87.9173 250.286 94.4967C256.591 101.076 267.036 101.298 273.615 94.9933Z" fill="#98FF98"/>
</g>
</g>
</g>
</g>
<g id="Group_170" opacity="0.4">
<g id="Group_171" opacity="0.4">
<g id="Group_172" opacity="0.4">
<g id="Group_173" opacity="0.4">
<path id="Vector_48" opacity="0.4" d="M267.5 76.8C267.5 75.3 268.8 74.1 270.2 74.2C271.7 74.2 272.9 75.5 272.8 76.9C272.8 78.4 271.5 79.6 270.1 79.5C268.7 79.5 267.5 78.3 267.5 76.8Z" fill="black"/>
</g>
</g>
</g>
</g>
<g id="Group_174" opacity="0.4">
<g id="Group_175" opacity="0.4">
<g id="Group_176" opacity="0.4">
<g id="Group_177" opacity="0.4">
<path id="Vector_49" opacity="0.4" d="M272.9 83.1C272.9 82.2 273.6 81.6 274.5 81.6C275.4 81.6 276 82.3 276 83.2C276 84.1 275.3 84.7 274.4 84.7C273.6 84.6 272.9 83.9 272.9 83.1Z" fill="black"/>
</g>
</g>
</g>
</g>
<g id="Group_178" opacity="0.4">
<g id="Group_179" opacity="0.4">
<g id="Group_180" opacity="0.4">
<g id="Group_181" opacity="0.4">
<path id="Vector_50" opacity="0.4" d="M270.8 87.8C271.1 87.8 271.4 88.1 271.4 88.4C271.4 88.7 271.1 89 270.8 89C270.5 89 270.2 88.7 270.2 88.4C270.2 88.1 270.5 87.8 270.8 87.8Z" fill="black"/>
</g>
</g>
</g>
</g>
</g>
</g>
<g id="pencil">
<g id="Group_182">
<path id="Vector_51" d="M83.5 48.8C78.2 44.9 75 38.3 75.1 31.7C75.2 25.1 78.7 18.6 84.1 14.9C87.2 12.8 90.8 11.5 93.6 9.00001C96 6.70001 97.6 3.60001 100.3 1.70001C103.7 -0.699993 108.6 -0.599993 111.9 1.90001C115.2 4.40001 116.6 9.10001 115.2 13C113.9 16.5 110.8 19.1 109.5 22.6C108.1 26.4 109 30.6 108.5 34.5C107.9 39.4 104.9 43.9 100.7 46.5C96.5 49 91.1 49.5 86.5 47.8" fill="#98FF98"/>
<g id="Group_183" opacity="0.8">
<path id="Vector_52" opacity="0.8" d="M83.5 48.8C78.2 44.9 75 38.3 75.1 31.7C75.2 25.1 78.7 18.6 84.1 14.9C87.2 12.8 90.8 11.5 93.6 9.00001C96 6.70001 97.6 3.60001 100.3 1.70001C103.7 -0.699993 108.6 -0.599993 111.9 1.90001C115.2 4.40001 116.6 9.10001 115.2 13C113.9 16.5 110.8 19.1 109.5 22.6C108.1 26.4 109 30.6 108.5 34.5C107.9 39.4 104.9 43.9 100.7 46.5C96.5 49 91.1 49.5 86.5 47.8" fill="white"/>
</g>
</g>
<g id="Group_184">
<path id="Vector_53" d="M90.8 58.2H89.3C86.3 58.2 83.9 55.8 83.9 52.8V27.4H96.2V52.7C96.2 55.7 93.8 58.2 90.8 58.2Z" fill="#98FF98"/>
<path id="Vector_54" d="M83.9 27.4L90.1 16.1L96.2 27.4H83.9Z" fill="#FFBE9D"/>
<path id="Vector_55" d="M87.6 20.6C87.6 20.6 89.5 23.4 92.5 20.6L90.1 16.1L87.6 20.6Z" fill="#98FF98"/>
</g>
<g id="Group_185">
<path id="Vector_56" d="M96.4 51.5C96.4 51.6 93.6 51.7 90.2 51.7C86.7 51.7 84 51.6 84 51.5C84 51.4 86.8 51.3 90.2 51.3C93.6 51.3 96.4 51.4 96.4 51.5Z" fill="#263238"/>
</g>
<g id="Group_186">
<path id="Vector_57" d="M96.3 49.6C96.3 49.7 93.6 49.8 90.2 49.8C86.8 49.8 84.1 49.7 84.1 49.6C84.1 49.5 86.8 49.4 90.2 49.4C93.5 49.4 96.3 49.5 96.3 49.6Z" fill="#263238"/>
</g>
<g id="Group_187">
<path id="Vector_58" d="M87.5 27.6C87.6 27.6 87.7 32.5 87.7 38.6C87.7 44.7 87.6 49.6 87.5 49.6C87.4 49.6 87.3 44.7 87.3 38.6C87.3 32.5 87.4 27.6 87.5 27.6Z" fill="#FAFAFA"/>
</g>
<g id="Group_188">
<path id="Vector_59" d="M92.5 27.6C92.6 27.6 92.7 32.5 92.7 38.6C92.7 44.7 92.6 49.6 92.5 49.6C92.4 49.6 92.3 44.7 92.3 38.6C92.3 32.5 92.4 27.6 92.5 27.6Z" fill="#FAFAFA"/>
</g>
</g>
<g id="book">
<path id="Vector_60" d="M190.7 373.7L246.5 376.1L247.9 379.4L211.3 438.8L145.2 436.8L190.7 373.7Z" fill="#263238"/>
<path id="Vector_61" d="M142.7 431L209.2 434.8L243.9 381L219.5 382.9L157.8 404.7L142.7 431Z" fill="#E0E0E0"/>
<g id="Group_189">
<path id="Vector_62" d="M133.4 427L194.4 428C191.9 420.2 197.8 409.2 206 405.5C211.4 403 221.7 399.9 227 397.2C237 392.1 246.1 382.3 245.3 373.9L220.2 373.1L188.2 371.9C185.5 379.8 179.8 385 171.1 388.2C163.3 391 154.5 391 146.9 394.2C134.7 399.2 128.8 415.8 133.4 427Z" fill="#EBEBEB"/>
<g id="Group_190">
<path id="Vector_63" d="M133.4 427C133.4 427 133.3 426.9 133.2 426.6C133.1 426.3 133 425.9 132.8 425.4C132.6 424.9 132.5 424.2 132.3 423.4C132.1 422.6 132 421.7 131.9 420.6C131.7 418.5 131.8 415.8 132.4 412.8C133 409.8 134.2 406.4 136.3 403.1C136.8 402.3 137.4 401.4 138.1 400.6C138.4 400.2 138.7 399.8 139.1 399.4C139.5 399 139.8 398.6 140.2 398.3C140.6 397.9 141 397.5 141.4 397.2C141.8 396.9 142.3 396.5 142.7 396.1C143.7 395.5 144.6 394.8 145.7 394.3C149.9 392.2 155 391.3 160.2 390.3C162.8 389.8 165.6 389.3 168.3 388.6C171 387.8 173.7 386.8 176.3 385.4C177.6 384.7 178.9 383.9 180.1 382.9C181.3 382 182.4 380.9 183.4 379.8C185.5 377.5 187 374.7 188 371.6L188.1 371.4H188.3C196.8 371.7 205.7 372.1 215 372.4C224.2 372.8 233.8 373 243.6 373.3C244.2 373.3 244.8 373.3 245.4 373.4H245.6V373.6C245.8 375.5 245.4 377.5 244.8 379.2C244.5 380.1 244.1 380.9 243.7 381.8C243.2 382.6 242.8 383.4 242.2 384.2C240.1 387.3 237.5 389.9 234.6 392.2C231.8 394.5 228.7 396.4 225.5 397.8C222.3 399.2 219 400.4 215.8 401.6C212.6 402.8 209.5 403.9 206.5 405.2C205 405.9 203.6 406.7 202.4 407.7C201.8 408.2 201.2 408.7 200.6 409.3C200.1 409.9 199.5 410.4 199 411.1C197 413.5 195.5 416.3 194.7 419.1C193.8 421.9 193.7 425 194.5 427.6L194.6 427.9H194.3C175.8 427.6 160.6 427.3 149.9 427.1C144.6 427 140.4 426.9 137.6 426.9C136.2 426.9 135.1 426.8 134.4 426.8C133.8 427.1 133.4 427 133.4 427C133.4 427 133.8 427 134.5 427C135.2 427 136.3 427 137.7 427C140.5 427 144.7 427.1 150 427.1C160.6 427.2 175.9 427.5 194.4 427.7L194.2 428C193.4 425.2 193.5 422.1 194.3 419.2C195.1 416.3 196.6 413.5 198.6 411C199.1 410.4 199.7 409.8 200.2 409.2C200.8 408.7 201.4 408.1 202 407.6C203.2 406.6 204.7 405.7 206.2 405C209.2 403.7 212.4 402.6 215.6 401.4C218.8 400.2 222 399 225.2 397.6C228.4 396.1 231.4 394.3 234.2 392C237 389.7 239.6 387.2 241.7 384.1C242.2 383.4 242.7 382.5 243.1 381.7C243.5 380.9 243.9 380 244.2 379.2C244.8 377.5 245.1 375.6 245 373.8L245.2 374C244.6 374 244 374 243.4 373.9C233.6 373.6 224 373.3 214.8 372.9C205.6 372.5 196.6 372.2 188.1 371.9L188.3 371.7C187.2 374.8 185.7 377.7 183.6 380C182.6 381.2 181.4 382.3 180.2 383.2C179 384.1 177.7 385 176.4 385.7C173.8 387.2 171 388.2 168.3 389C165.5 389.7 162.8 390.2 160.2 390.7C154.9 391.6 149.9 392.5 145.7 394.6C144.6 395.1 143.7 395.7 142.8 396.3C142.3 396.6 141.9 397 141.5 397.3C141.1 397.6 140.7 398 140.3 398.4C139.9 398.8 139.5 399.2 139.2 399.5C138.8 399.9 138.5 400.3 138.2 400.7C137.5 401.5 137 402.3 136.4 403.1C134.3 406.4 133.1 409.7 132.5 412.7C131.9 415.7 131.8 418.3 132 420.4C132.1 421.4 132.2 422.4 132.4 423.2C132.6 424 132.7 424.7 132.9 425.2C133.1 425.7 133.2 426.1 133.3 426.4C133.4 426.9 133.4 427 133.4 427Z" fill="#263238"/>
</g>
</g>
<g id="Group_191">
<path id="Vector_64" d="M205.4 372.9C205.4 372.9 205.5 372.5 205.5 371.8C205.6 371.1 205.5 370.1 205 368.9C204.5 367.8 203.6 366.5 202.1 365.8C200.6 365.1 198.7 365 197 365.6C195.2 366.3 193.9 367.7 193.3 369.2C192.6 370.7 192.5 372.2 192.7 373.5C192.9 374.7 193.4 375.7 193.7 376.2C194.1 376.8 194.4 377.1 194.3 377.1C194.3 377.1 194 376.9 193.5 376.3C193.1 375.7 192.5 374.8 192.3 373.5C192 372.2 192.1 370.6 192.8 369C193.5 367.4 194.8 365.9 196.8 365.1C198.7 364.4 200.8 364.6 202.3 365.3C203.9 366.1 204.9 367.5 205.3 368.7C205.8 369.9 205.8 371 205.6 371.7C205.5 372.1 205.5 372.3 205.4 372.5C205.5 372.8 205.4 372.9 205.4 372.9Z" fill="#263238"/>
</g>
<g id="Group_192">
<path id="Vector_65" d="M215 372.9C215 372.9 215.1 372.5 215.1 371.8C215.2 371.1 215.1 370.1 214.6 368.9C214.1 367.8 213.2 366.5 211.7 365.8C210.2 365.1 208.3 365 206.6 365.6C204.8 366.3 203.5 367.7 202.9 369.2C202.2 370.7 202.1 372.2 202.3 373.5C202.5 374.7 203 375.7 203.3 376.2C203.7 376.8 204 377.1 203.9 377.1C203.9 377.1 203.6 376.9 203.1 376.3C202.7 375.7 202.1 374.8 201.9 373.5C201.6 372.2 201.7 370.6 202.4 369C203.1 367.4 204.4 365.9 206.4 365.1C208.3 364.4 210.4 364.6 211.9 365.3C213.5 366.1 214.5 367.5 214.9 368.7C215.4 369.9 215.4 371 215.2 371.7C215.1 372.1 215.1 372.3 215 372.5C215 372.8 215 372.9 215 372.9Z" fill="#263238"/>
</g>
<g id="Group_193">
<path id="Vector_66" d="M222.2 373.4C222.2 373.4 222.3 373 222.3 372.3C222.3 371.6 222.2 370.6 221.7 369.4C221.2 368.3 220.2 367.1 218.6 366.5C217.1 365.9 215.2 365.8 213.5 366.6C211.8 367.3 210.6 368.9 210 370.4C209.4 371.9 209.4 373.5 209.7 374.7C210 375.9 210.5 376.8 210.9 377.4C211.3 378 211.6 378.2 211.6 378.3C211.6 378.3 211.2 378.1 210.8 377.6C210.3 377.1 209.7 376.1 209.4 374.9C209.1 373.6 209 372 209.7 370.4C210.3 368.8 211.6 367.1 213.4 366.3C215.3 365.5 217.3 365.5 218.9 366.2C220.5 366.9 221.6 368.2 222.1 369.4C222.6 370.6 222.7 371.7 222.6 372.4C222.6 372.8 222.5 373 222.4 373.2C222.3 373.3 222.3 373.4 222.2 373.4Z" fill="#263238"/>
</g>
<g id="Group_194">
<path id="Vector_67" d="M230 373.8C230 373.8 230 373.4 230 372.7C230 372 229.8 371 229.2 369.9C228.6 368.8 227.5 367.7 226 367.1C224.5 366.6 222.5 366.6 220.9 367.5C219.2 368.3 218.1 369.9 217.6 371.5C217.1 373.1 217.2 374.6 217.5 375.8C217.8 377 218.4 377.9 218.8 378.4C219.2 378.9 219.6 379.2 219.5 379.2C219.5 379.2 219.1 379 218.6 378.5C218.1 378 217.5 377.1 217.1 375.9C216.7 374.7 216.6 373 217.1 371.4C217.6 369.8 218.8 368 220.6 367.1C222.4 366.2 224.5 366.1 226.1 366.7C227.8 367.3 228.9 368.6 229.5 369.7C230.1 370.9 230.2 372 230.2 372.7C230.2 373.1 230.1 373.3 230.1 373.5C230.1 373.7 230 373.8 230 373.8Z" fill="#263238"/>
</g>
<g id="Group_195">
<path id="Vector_68" d="M237.8 373.6C237.8 373.6 237.8 373.2 237.8 372.5C237.8 371.8 237.6 370.8 236.9 369.7C236.3 368.6 235.2 367.5 233.6 367C232.1 366.5 230.1 366.6 228.5 367.5C226.8 368.4 225.8 370 225.3 371.6C224.8 373.2 224.9 374.7 225.3 375.9C225.7 377.1 226.3 377.9 226.7 378.5C227.2 379 227.5 379.3 227.4 379.3C227.4 379.3 227 379.1 226.5 378.6C226 378.1 225.3 377.2 224.9 376C224.5 374.8 224.3 373.1 224.8 371.5C225.3 369.8 226.4 368.1 228.2 367.1C230 366.1 232 366 233.7 366.6C235.4 367.2 236.5 368.4 237.1 369.5C237.7 370.7 237.9 371.7 237.9 372.5C237.9 372.9 237.9 373.1 237.8 373.3C237.9 373.5 237.8 373.6 237.8 373.6Z" fill="#263238"/>
</g>
<g id="Group_196">
<path id="Vector_69" d="M244.4 374.5C244.4 374.5 244.4 374.1 244.4 373.4C244.4 372.7 244.2 371.7 243.6 370.6C243 369.5 242 368.4 240.4 367.8C238.9 367.2 237 367.3 235.3 368.1C233.6 368.9 232.5 370.5 232 372C231.5 373.6 231.5 375.1 231.8 376.3C232.1 377.5 232.7 378.4 233.1 378.9C233.5 379.5 233.8 379.7 233.8 379.7C233.8 379.7 233.4 379.5 232.9 379C232.4 378.5 231.8 377.6 231.4 376.3C231 375.1 230.9 373.4 231.5 371.8C232 370.2 233.2 368.5 235.1 367.6C236.9 366.7 239 366.7 240.6 367.3C242.3 367.9 243.4 369.2 243.9 370.4C244.5 371.6 244.6 372.7 244.5 373.4C244.5 373.8 244.4 374 244.4 374.2C244.5 374.4 244.4 374.5 244.4 374.5Z" fill="#263238"/>
</g>
</g>
<g id="balloon">
<path id="Vector_70" d="M273.2 169.6C270.6 169.5 267.8 169.6 264.9 170C247.7 172.1 234.8 186.9 234.9 204.3C234.9 209.4 235.4 215 237 220.6C241.8 237.7 243.3 252.7 242.7 260L258.8 268.7C258.8 268.7 266.3 258 273.5 253.4C280.7 248.8 304.7 236.4 314.1 223.7C320.2 215.5 321.4 198.7 306.8 184C297.9 175.1 285.8 170 273.2 169.6Z" fill="#98FF98"/>
<path id="Vector_71" d="M235.1 278.7L249.7 286.6L240.2 298.6L230.5 294.2L235.1 278.7Z" fill="#455A64"/>
<g id="Group_197">
<path id="Vector_72" d="M235.8 279.2C235.7 279.2 237.1 274.8 239 269.6C240.9 264.3 242.6 260.1 242.7 260.1C242.8 260.1 241.4 264.5 239.5 269.7C237.6 275 236 279.2 235.8 279.2Z" fill="#263238"/>
</g>
<g id="Group_198">
<path id="Vector_73" d="M248.7 286C248.6 285.9 250.9 281.9 253.8 276.9C256.7 271.9 259.2 268 259.3 268C259.4 268.1 257.1 272.1 254.2 277.1C251.3 282.1 248.9 286 248.7 286Z" fill="#263238"/>
</g>
<g id="Group_199" opacity="0.4">
<path id="Vector_74" opacity="0.4" d="M278 170.1C277.3 170.1 269.3 179.5 265.8 185.8C253.9 207.1 253.4 227.9 250.1 252.1C249.6 255.6 247.9 263 247.9 262.8C249.7 264.2 255.6 266.9 255.6 266.9C255.6 266.9 261.2 260.2 263.4 256.8C272.3 243.2 281.9 232.6 289.5 218.3C297.1 204 304.4 191.3 297.4 176.6C297.4 176.7 285.2 169.7 278 170.1Z" fill="black"/>
</g>
<g id="Group_200">
<path id="Vector_75" d="M314.2 225.9C314.2 225.9 314.1 225.7 314 225.4C313.9 225.1 313.7 224.6 313.4 224C312.9 222.8 312 221.2 310.6 219.3C309.2 217.4 307.2 215.3 304.4 213.5C301.7 211.7 298.2 210.2 294.3 209.7H294.2L294.1 209.6C292.3 207.1 290.1 204.5 287.6 202.1C285.1 199.7 282.1 197.5 278.7 196C275.3 194.5 271.7 193.8 268.2 194C264.8 194.2 261.5 195.3 259 197.1L258.9 197.2L258.8 197.1C255.8 194.5 252.2 193.1 249 192.7C245.8 192.3 242.9 192.9 240.7 193.8C238.5 194.6 236.9 195.7 235.9 196.5C235.4 196.9 235 197.2 234.8 197.4C234.6 197.6 234.4 197.7 234.4 197.7C234.4 197.7 234.5 197.6 234.7 197.3C234.9 197.1 235.3 196.7 235.8 196.3C236.8 195.5 238.3 194.4 240.6 193.5C242.8 192.6 245.7 192 249.1 192.3C252.4 192.6 256.1 194 259.2 196.7H258.9C261.5 194.8 264.8 193.7 268.3 193.5C271.8 193.3 275.6 194 279 195.5C282.5 197.1 285.5 199.3 288 201.7C290.5 204.1 292.7 206.7 294.5 209.2L294.3 209.1C298.3 209.6 301.9 211.1 304.6 213C307.4 214.8 309.4 217 310.8 218.9C312.2 220.8 313 222.5 313.5 223.7C313.8 224.3 313.9 224.8 314 225.1C314.2 225.7 314.2 225.9 314.2 225.9Z" fill="#263238"/>
</g>
<g id="Group_201">
<path id="Vector_76" d="M284.3 247.1C284.2 247.1 284.2 245.6 282.9 243.6C282.2 242.6 281.3 241.5 279.8 240.6C278.4 239.7 276.5 239.1 274.5 239.3H274.3V239.1C274 237 273.1 234.8 271.7 232.9C270.2 231 268.2 229.2 265.7 228.3C263.7 227.5 261.5 227.2 259.5 227.3C257.5 227.4 255.6 228 253.9 228.9L253.7 229L253.6 228.9C252 227.2 249.9 226.2 248 225.9C246.1 225.5 244.3 225.7 243 226.1C240.2 226.8 239.1 228.2 239 228.1C239 228.1 239.1 228 239.2 227.9C239.4 227.8 239.6 227.6 239.9 227.3C240.5 226.8 241.5 226.3 242.9 225.8C244.3 225.4 246.1 225.2 248.1 225.5C250.1 225.8 252.2 226.8 254 228.6H253.7C255.4 227.7 257.3 227.1 259.4 226.9C261.5 226.7 263.7 227 265.9 227.9C268.5 228.9 270.6 230.7 272.1 232.7C273.6 234.7 274.5 237 274.8 239.1L274.6 238.9C276.8 238.7 278.7 239.4 280.2 240.3C281.7 241.2 282.7 242.4 283.3 243.4C283.9 244.5 284.2 245.4 284.4 246C284.5 246.3 284.5 246.6 284.5 246.7C284.3 247.1 284.3 247.1 284.3 247.1Z" fill="#263238"/>
</g>
<g id="Group_202">
<path id="Vector_77" d="M246.8 290.4C246.8 290.4 246.6 290.2 246.3 290C245.9 289.8 245.3 289.8 244.6 290.1C244.2 290.2 243.8 290.3 243.3 290.3C242.8 290.3 242.2 290.1 241.9 289.7C241.1 288.9 240.8 287.7 240.1 286.9C239.7 286.5 239.3 286.3 238.8 286.3C238.3 286.3 237.8 286.5 237.3 286.6C236.8 286.7 236.3 286.8 235.8 286.7C235.3 286.6 234.9 286.4 234.6 286.1C234 285.6 233.7 284.9 233.6 284.5C233.5 284.1 233.6 283.8 233.6 283.8C233.6 283.8 233.6 284 233.8 284.4C233.9 284.8 234.2 285.3 234.8 285.8C235.1 286 235.4 286.2 235.9 286.3C236.3 286.4 236.8 286.3 237.2 286.2C237.7 286.1 238.2 285.9 238.8 285.9C239.4 285.8 240.1 286.1 240.5 286.6C241.3 287.6 241.6 288.7 242.3 289.4C242.6 289.7 243 289.9 243.4 289.9C243.8 289.9 244.2 289.8 244.6 289.7C245.4 289.5 246.1 289.6 246.5 289.8C246.8 290.1 246.9 290.3 246.8 290.4Z" fill="#263238"/>
</g>
<g id="Group_203">
<path id="Vector_78" d="M248.5 288C248.4 288.1 245.3 286.6 241.4 284.5C237.5 282.4 234.5 280.7 234.5 280.6C234.6 280.5 237.7 282 241.6 284.1C245.5 286.1 248.6 287.9 248.5 288Z" fill="#263238"/>
</g>
<g id="Group_204">
<path id="Vector_79" d="M245.6 291.7C245.6 291.7 245.4 291.8 245 292C244.8 292.1 244.6 292.2 244.3 292.3C244 292.4 243.7 292.5 243.3 292.4C242.6 292.3 241.7 292.1 240.9 291.5C240.5 291.2 240.2 290.7 240 290.2C239.8 289.7 239.6 289.2 239.3 288.9C238.6 288.2 237.6 288.1 236.7 288.1C235.8 288.1 234.9 288.2 234.2 287.9C233.5 287.6 233.1 287.1 232.9 286.7C232.7 286.3 232.8 286.1 232.8 286.1C232.8 286.1 232.9 286.3 233.1 286.6C233.3 286.9 233.7 287.3 234.3 287.5C234.9 287.7 235.7 287.7 236.7 287.6C237.6 287.6 238.8 287.6 239.7 288.5C240.1 289 240.3 289.5 240.5 289.9C240.7 290.4 240.9 290.7 241.3 291C242 291.6 242.8 291.8 243.4 291.9C244.1 292 244.6 291.7 245 291.6C245.4 291.7 245.6 291.7 245.6 291.7Z" fill="#263238"/>
</g>
</g>
<g id="man">
<g id="Group_205">
<path id="Vector_80" d="M135.8 198.3L160.9 194.6L148.9 177.6L142.5 178C138.2 178.3 134.3 180.9 132.6 184.9C131.7 187 131.4 189.4 131.9 191.6L135.8 198.3Z" fill="#98FF98"/>
<path id="Vector_81" opacity="0.4" d="M135.8 198.3L160.9 194.6L148.9 177.6L142.5 178C138.2 178.3 134.3 180.9 132.6 184.9C131.7 187 131.4 189.4 131.9 191.6L135.8 198.3Z" fill="black"/>
</g>
<g id="Group_206">
<g id="Group_207">
<path id="Vector_82" d="M243.9 226.2C244.2 226.9 244.4 227.8 244.7 228.8C244.9 229.7 245 230.6 245 231.5C244.9 232.6 244.8 234.1 244.4 234.8C244 235.8 244.9 236.7 245.8 236.2C246.6 235.7 247.8 233.1 247.7 229.8C247.6 226.5 251 230.5 252.3 231.9C253.6 233.3 257.7 237.6 258.5 237.6C259.6 237.5 259.7 236.3 258.4 234.9C257.1 233.5 253.5 229 254.3 228.4C255.1 227.8 261.4 235.2 261.4 235.2C261.4 235.2 262.5 237 263.4 236.3C265.1 235 257.7 227.6 257 227C256.5 226.5 257.3 225.8 257.8 226.3C258.3 226.9 264 233.8 265.7 232.6C267 231.6 259.7 226.5 259.3 224.4C258.9 222.3 264.5 228.9 265.7 227.9C266.2 227.5 266.5 227.2 262.7 223.9C260.9 222.3 254 217.5 254 217.5L233.4 158.4L217.5 167.5L243.9 226.2Z" fill="#FFBE9D"/>
</g>
<path id="Vector_83" d="M121 114.4L97.9 86.9C97.6 86 97.2 85 96.8 84.2C95.6 82.1 93.7 80.2 91.4 79.7C89.9 79.4 88.3 79.5 87.1 78.6C86.6 78.2 86.2 77.6 85.7 77.2C85.2 76.8 84.3 76.7 83.9 77.3C83.7 77.7 83.8 78.2 84 78.7C84.9 80.7 86.3 82.5 88 83.9C85.8 84.6 82.7 85.6 82.7 85.6C82.7 85.6 77.9 80 75.4 80C72.9 80 77.4 84.7 77.4 84.7C77.4 84.7 73.4 81 72.2 82C71 83 74.1 85.8 74.1 85.8C73.1 85.3 72 84.7 70.9 84.9C69.8 85.1 68.8 86.4 69.4 87.4C69.6 87.8 70 88 70.4 88.2C72.4 89.3 74.5 90.5 76.5 91.6C77.5 92.2 78.6 92.8 79.8 92.8C82.9 92.9 85.3 91 88.4 91.1C88.4 91.1 105.8 127.7 107.6 129.6C109.4 131.5 147.6 134.1 147.6 134.1L169.7 115L121 114.4Z" fill="#FFBE9D"/>
<g id="Group_208">
<path id="Vector_84" d="M190.3 313.8L213.9 324.1L201.3 353.5C198.6 352.1 199.5 334.5 199.5 334.5L184.1 328.5L190.3 313.8Z" fill="#98FF98"/>
<g id="Group_209" opacity="0.6">
<path id="Vector_85" opacity="0.6" d="M202 324.8C202.4 324.3 203.2 324.2 203.7 324.6C204.2 325 204.3 325.8 204 326.3C203.6 326.8 202.6 327 202.2 326.5C201.7 326.1 201.6 325.1 202 324.8Z" fill="white"/>
</g>
<path id="Vector_86" opacity="0.6" d="M213.8 324.1L211.4 323.2L200.2 351.7C200.2 351.7 200.2 353.3 201.2 353.5L213.8 324.1Z" fill="white"/>
<g id="Group_210">
<path id="Vector_87" d="M199 334.9C199.1 335 199.5 334.3 200.3 333.8C201.1 333.3 201.8 333.2 201.8 333C201.8 332.9 200.9 332.7 200 333.3C199.1 333.9 198.9 334.8 199 334.9Z" fill="#263238"/>
</g>
<g id="Group_211">
<path id="Vector_88" d="M199 338.5C199.1 338.6 199.6 338.1 200.5 337.8C201.3 337.5 202 337.7 202.1 337.6C202.2 337.5 201.4 337 200.4 337.3C199.2 337.6 198.8 338.4 199 338.5Z" fill="#263238"/>
</g>
<g id="Group_212">
<path id="Vector_89" d="M201.9 341.8C202 341.7 201.4 341.2 200.4 341.2C199.5 341.2 198.9 341.8 198.9 341.9C199 342 199.6 341.8 200.4 341.8C201.2 341.7 201.8 342 201.9 341.8Z" fill="#263238"/>
</g>
<g id="Group_213">
<path id="Vector_90" d="M195.7 333.1C195.9 333.1 195.9 332.4 196.3 331.6C196.7 330.8 197.2 330.3 197.1 330.2C197 330.1 196.2 330.5 195.8 331.4C195.3 332.3 195.5 333.1 195.7 333.1Z" fill="#263238"/>
</g>
<g id="Group_214">
<path id="Vector_91" d="M192.5 330.9C192.6 330.9 192.9 330.4 193.1 329.4C193.2 328.9 193.3 328.3 193.3 327.7C193.3 327.4 193.3 327 193.2 326.7C193.2 326.5 193.2 326.3 193 326.1C192.9 325.9 192.6 325.6 192.3 325.7C192 325.8 191.8 326 191.7 326.2C191.6 326.4 191.6 326.6 191.5 326.8C191.4 327.2 191.4 327.5 191.4 327.8C191.4 328.5 191.5 329.1 191.7 329.5C192 330.5 192.5 330.9 192.5 330.9C192.6 330.9 192.3 330.3 192 329.4C191.9 328.9 191.8 328.4 191.8 327.8C191.8 327.5 191.8 327.2 191.9 326.8C192 326.5 192.1 326.2 192.2 326.2C192.3 326.2 192.3 326.2 192.4 326.3C192.5 326.4 192.5 326.6 192.5 326.7C192.6 327 192.6 327.4 192.6 327.7C192.6 328.3 192.6 328.9 192.5 329.4C192.6 330.3 192.4 330.9 192.5 330.9Z" fill="#263238"/>
</g>
<g id="Group_215">
<path id="Vector_92" d="M192.8 330.8C192.8 330.8 192.5 330.3 191.5 329.8C191 329.6 190.5 329.4 189.8 329.3C189.5 329.3 189.1 329.3 188.7 329.3C188.3 329.3 187.9 329.4 187.6 329.9C187.5 330.2 187.6 330.5 187.7 330.7C187.9 330.9 188 331 188.2 331.1C188.5 331.3 188.9 331.4 189.2 331.5C189.9 331.7 190.5 331.6 191 331.5C192 331.3 192.4 330.7 192.4 330.7C192.3 330.6 191.9 331 190.9 331.1C190.4 331.2 189.9 331.1 189.3 331C189 330.9 188.7 330.8 188.5 330.6C188.2 330.4 188 330.2 188.1 330.1C188.2 330 188.5 329.8 188.8 329.8C189.1 329.8 189.4 329.8 189.8 329.8C190.4 329.8 191 330 191.4 330.1C192.2 330.5 192.7 330.9 192.8 330.8Z" fill="#263238"/>
</g>
</g>
<g id="Group_216">
<path id="Vector_93" d="M172.1 354.2L181.8 374.6L184.9 393C185.1 394.3 186.4 395.2 187.7 394.9C188.4 394.7 189 394.2 189.3 393.5C191.1 389.1 197.6 372.7 196.8 371.3C195.9 369.6 188 349.1 188 349.1L172.1 354.2Z" fill="#98FF98"/>
<path id="Vector_94" opacity="0.6" d="M187.7 394.8L196.2 369.8L196.6 370.7C196.9 371.5 197 372.3 196.8 373.1C196.2 375.2 194.3 381.1 189.4 393.4C189.1 394.1 188.5 394.7 187.7 394.8Z" fill="white"/>
<g id="Group_217" opacity="0.6">
<path id="Vector_95" opacity="0.6" d="M189 365.1C188.6 365.7 188.8 366.5 189.4 366.9C190 367.3 190.8 367.1 191.2 366.5C191.6 365.9 191.4 364.9 190.8 364.6C190.2 364.3 189.2 364.6 189 365.2" fill="white"/>
</g>
<g id="Group_218">
<path id="Vector_96" d="M188.4 383.7C188.3 383.8 187.4 382.9 185.9 382.9C184.4 382.8 183.4 383.6 183.3 383.5C183.3 383.5 183.4 383.2 183.9 382.9C184.3 382.6 185.1 382.4 185.9 382.4C186.7 382.4 187.4 382.7 187.9 383C188.3 383.4 188.4 383.6 188.4 383.7Z" fill="#263238"/>
</g>
<g id="Group_219">
<path id="Vector_97" d="M188.2 387.1C188.1 387.2 187.2 386.9 186 387C184.8 387.1 184 387.8 183.9 387.6C183.8 387.5 184.6 386.6 186 386.5C187.3 386.4 188.3 387 188.2 387.1Z" fill="#263238"/>
</g>
<g id="Group_220">
<path id="Vector_98" d="M189.5 378.9C189.4 379 188 378.5 186.1 378.6C184.2 378.7 182.8 379.4 182.7 379.3C182.6 379.2 184 378.2 186.1 378.1C188.1 378 189.6 378.8 189.5 378.9Z" fill="#263238"/>
</g>
<g id="Group_221">
<path id="Vector_99" d="M187.1 372.5C187.1 372.6 185.7 372.7 184.2 373.3C182.7 373.9 181.7 374.8 181.6 374.7C181.5 374.6 182.4 373.5 184 372.8C185.7 372.1 187.1 372.3 187.1 372.5Z" fill="#263238"/>
</g>
<g id="Group_222">
<path id="Vector_100" d="M184.4 366.4C184.4 366.5 182.9 366.4 181.4 367.2C179.8 367.9 179.1 369.2 179 369.1C178.9 369.1 179.1 368.7 179.4 368.2C179.7 367.7 180.4 367.1 181.2 366.7C182 366.3 182.9 366.2 183.5 366.2C184.1 366.2 184.4 366.3 184.4 366.4Z" fill="#263238"/>
</g>
<g id="Group_223">
<path id="Vector_101" d="M180.9 366C180.9 366 180.7 365.8 180.5 365.2C180.3 364.7 180.1 363.9 180.2 362.9C180.3 362.4 180.3 361.8 180.7 361.3C180.9 361 181.4 360.9 181.7 361.1C182.1 361.3 182.3 361.6 182.4 361.9C183 363.2 182.4 365 181 365.8C179.6 366.6 177.9 366.4 176.8 365.5C176.5 365.3 176.3 364.9 176.3 364.5C176.3 364.1 176.7 363.7 177 363.7C177.7 363.5 178.2 363.7 178.7 363.8C179.7 364.1 180.4 364.5 180.8 364.8C181.3 365.1 181.5 365.3 181.4 365.4C181.4 365.5 180.4 364.6 178.6 364.2C178.1 364.1 177.6 364 177.1 364.2C176.9 364.3 176.7 364.4 176.7 364.7C176.7 364.9 176.9 365.1 177.1 365.3C178 366 179.6 366.2 180.8 365.5C182 364.8 182.5 363.2 182 362.2C181.9 361.9 181.7 361.7 181.5 361.6C181.3 361.5 181.1 361.6 180.9 361.7C180.6 362 180.5 362.6 180.4 363.1C180.4 364.8 181 366 180.9 366Z" fill="#263238"/>
</g>
</g>
<g id="Group_224">
<path id="Vector_102" d="M204.9 316.3L178.2 298.3L187 211.5L161.7 196.7L138.6 191.3C138.6 191.3 128.9 211.4 124.6 224.3C115.5 251.7 109 261.5 110.5 281.3C111 287.6 134.1 303.3 148.8 312C149 314 149.3 315.8 149.6 317.2C154.6 339.8 169.9 369.9 169.9 369.9L193.1 359.1L185.6 333.5L193.4 338L204.9 316.3ZM147.5 260.3L150.6 246.4C149.9 255.2 149.3 264.5 148.9 273.3C147.5 269.3 147 264.7 147.5 260.3Z" fill="#263238"/>
<g id="Group_225">
<path id="Vector_103" d="M169.9 370C169.9 370 169.8 369.9 169.7 369.6C169.6 369.3 169.4 369 169.2 368.5C168.8 367.5 168.2 366.1 167.4 364.3C165.9 360.6 163.7 355.3 161 348.7C158.4 342.1 155.2 334.2 152 325.3C151.2 323.1 150.4 320.8 149.7 318.4C149.4 317.2 149 316 148.8 314.7C148.7 314.4 148.7 314.1 148.6 313.8L148.5 312.9C148.4 312.3 148.4 311.6 148.3 311C148 308.4 147.8 305.8 147.6 303.2C147.5 301.9 147.4 300.5 147.4 299.2C147.4 297.9 147.3 296.5 147.4 295.1C147.8 284.2 148.7 273.9 149.5 264.4C150.3 255 151 246.5 151.6 239.4C152.2 232.3 152.6 226.5 152.8 222.5C152.9 220.5 153 219 153 217.9C153 217.4 153 217 153.1 216.7C153.1 216.4 153.1 216.3 153.1 216.3C153.1 216.3 153.1 216.4 153.1 216.7C153.1 217 153.1 217.4 153.1 217.9C153.1 219 153 220.5 153 222.5C152.8 226.5 152.5 232.3 152 239.4C151.4 246.5 150.8 255 150 264.4C149.3 273.8 148.4 284.2 148 295C147.9 296.4 148 297.7 148 299C148.1 300.3 148.1 301.7 148.2 303C148.4 305.6 148.6 308.2 148.9 310.8C149 311.4 149 312.1 149.1 312.7L149.2 313.6C149.3 313.9 149.3 314.2 149.4 314.5C149.6 315.7 150 316.9 150.3 318.1C151 320.5 151.8 322.7 152.6 325C155.7 333.9 158.9 341.8 161.4 348.5C164 355.1 166.2 360.5 167.7 364.2C168.4 366 169 367.5 169.4 368.5C169.6 369 169.7 369.3 169.8 369.6C169.9 369.8 170 370 169.9 370Z" fill="#455A64"/>
</g>
<g id="Group_226">
<path id="Vector_104" d="M152.1 213.4C152.1 213.4 151.9 213.3 151.5 212.9C151.2 212.5 150.7 211.9 150.4 211.1C149.7 209.4 149.3 206.9 149.3 204.2C149.3 201.5 149.5 199 149.6 197.2C149.8 195.4 149.9 194.3 150 194.3C150.1 194.3 150 195.4 149.9 197.2C149.8 199 149.7 201.4 149.7 204.1C149.8 206.8 150.1 209.2 150.7 210.9C151 211.7 151.4 212.3 151.6 212.7C151.9 213.1 152.1 213.3 152.1 213.4Z" fill="#455A64"/>
</g>
<g id="Group_227">
<path id="Vector_105" d="M142.1 192.7C142.1 192.7 142.4 193.6 142.3 195.1C142.2 196.6 141.7 198.7 140.4 200.7C139.1 202.6 137.3 203.9 135.9 204.5C134.5 205.1 133.6 205.3 133.6 205.2C133.6 205.1 134.5 204.9 135.8 204.2C137.1 203.5 138.8 202.3 140 200.4C141.3 198.6 141.8 196.5 142 195.1C142.1 193.6 142 192.7 142.1 192.7Z" fill="#455A64"/>
</g>
<g id="Group_228">
<path id="Vector_106" d="M183.6 243.2C183.6 243.2 183.6 243.3 183.6 243.5C183.6 243.7 183.6 244 183.5 244.3C183.4 245 183.3 246 183.2 247.3C182.9 249.9 182.5 253.6 182 258.2C181 267.4 179.5 280.1 177.9 294.1C177.3 301.1 177.9 307.9 179.2 313.8C179.8 316.8 180.7 319.5 181.6 322.1C182.5 324.7 183.3 327.1 184.1 329.2C185.6 333.5 186.8 337.1 187.7 339.5C188.1 340.7 188.4 341.6 188.7 342.3C188.8 342.6 188.9 342.8 188.9 343C189 343.2 189 343.3 189 343.3C189 343.3 189 343.2 188.9 343.1C188.8 342.9 188.7 342.7 188.6 342.4C188.3 341.7 188 340.8 187.6 339.6C186.7 337.1 185.4 333.6 183.9 329.3C183.1 327.1 182.3 324.7 181.3 322.2C180.4 319.6 179.5 316.9 178.8 313.9C177.5 307.9 176.8 301.1 177.4 294.1C179 280.1 180.5 267.4 181.6 258.2C182.2 253.6 182.6 249.9 182.9 247.3C183.1 246 183.2 245.1 183.3 244.3C183.3 244 183.4 243.7 183.4 243.5C183.6 243.3 183.6 243.2 183.6 243.2Z" fill="#455A64"/>
</g>
</g>
<g id="Group_229">
<path id="Vector_107" d="M138.6 191.2L142.7 180.8L152.1 194.7L139.6 191.6" fill="#FFBE9D"/>
<path id="Vector_108" d="M236.5 159.8L225.4 134.9C224.1 130.9 221.6 130.3 219.5 128L191.7 112.3C171.4 104 160.4 131.8 160.4 131.8L142 173.8C120.4 181 135.7 197.6 135.7 197.6C135.7 197.6 129.8 187.4 135.6 183.7C141.7 179.8 148.4 190 154.8 199.7C162.4 211.1 187.2 218.5 187.2 218.5C190.1 215.4 189.3 204.7 191.6 199C192.3 197.2 209.5 157.4 209.5 157.4L216.2 173.5C216.2 173.5 224.7 163.5 228.9 161.9C232.9 160.4 236.5 159.8 236.5 159.8Z" fill="#98FF98"/>
<g id="Group_230">
<path id="Vector_109" d="M187.2 177.5C187.2 177.5 186.9 177.7 186.4 178.1C185.8 178.4 185 178.9 183.9 179.3C181.7 180.1 178.4 180.8 174.8 180.2C171.2 179.6 168.2 178 166.4 176.5C165.5 175.8 164.8 175.1 164.4 174.6C164 174.1 163.8 173.8 163.8 173.8C163.9 173.7 164.8 174.9 166.7 176.2C168.6 177.6 171.5 179.1 175 179.6C178.5 180.1 181.8 179.6 183.9 178.8C185.9 178.2 187.2 177.4 187.2 177.5Z" fill="#263238"/>
</g>
<path id="Vector_110" d="M141.2 138L158.4 139.6L185.8 110.6L169.7 110L141 112.8C140.9 112.9 143.4 124.9 141.2 138Z" fill="#98FF98"/>
<g id="Group_231">
<path id="Vector_111" d="M165 122.7C165 122.7 164.9 122.9 164.8 123.2C164.6 123.6 164.4 124.1 164.1 124.7C163.5 126 162.6 127.9 161.6 130.1C159.5 134.7 156.6 141.1 153.6 148.2C150.5 155.3 147.7 161.7 145.6 166.3C144.5 168.6 143.7 170.5 143.1 171.7C142.8 172.3 142.6 172.8 142.4 173.2C142.2 173.5 142.1 173.7 142.1 173.7C142.1 173.7 142.2 173.5 142.3 173.2C142.5 172.8 142.7 172.3 142.9 171.7C143.5 170.3 144.3 168.5 145.3 166.2C147.3 161.5 150.1 155.1 153.1 148C156.2 140.9 159.1 134.5 161.3 130C162.4 127.7 163.3 125.9 164 124.6C164.3 124 164.6 123.5 164.8 123.2C164.9 122.9 165 122.7 165 122.7Z" fill="#263238"/>
</g>
<g id="Group_232">
<path id="Vector_112" d="M217.3 131.2C217.3 131.3 216.3 131.8 214.8 133.1C214.1 133.7 213.3 134.5 212.5 135.5C211.7 136.5 211 137.6 210.3 138.9C209.7 140.2 209.2 141.5 208.9 142.7C208.6 143.9 208.5 145.1 208.5 146C208.4 147.9 208.7 149.1 208.6 149.1C208.6 149.1 208.5 148.8 208.4 148.3C208.3 148 208.3 147.7 208.3 147.3C208.3 146.9 208.2 146.5 208.2 146C208.2 145 208.3 143.9 208.6 142.6C208.9 141.3 209.3 140 210 138.6C210.7 137.3 211.5 136.1 212.3 135.1C213.1 134.1 214 133.3 214.7 132.7C215.1 132.4 215.4 132.2 215.8 131.9C216.1 131.7 216.4 131.5 216.7 131.4C217.1 131.3 217.3 131.1 217.3 131.2Z" fill="#263238"/>
</g>
</g>
<g id="Group_233">
<g id="Group_234">
<g id="Group_235">
<g id="Group_236">
<g id="Group_237">
<g id="Group_238">
<g id="Group_239">
<g id="Group_240">
<g id="Group_241">
<g id="Group_242">
<g id="Group_243">
<g id="Group_244">
<g id="Group_245">
<g id="Group_246">
<path id="Vector_113" d="M222.1 91.3L206 121.4C203.4 126.3 197.4 128.4 192.3 126.1C186.7 123.6 184.4 116.9 187.3 111.5C188.8 108.6 190.1 106.3 190.1 106.3C190.1 106.3 183.1 101.8 186.4 94.2C189.3 87.5 200 68.4 202.3 64.4L215.9 70.5C223.4 74.4 226.3 83.8 222.1 91.3Z" fill="#FFBE9D"/>
</g>
</g>
</g>
</g>
</g>
</g>
</g>
<g id="Group_247">
<g id="Group_248">
<g id="Group_249">
<g id="Group_250">
<g id="Group_251">
<g id="Group_252">
<g id="Group_253">
<path id="Vector_114" d="M190.1 106.1C190.1 106.1 194.7 108.6 201.1 107.7C201.1 107.7 196.4 112.1 189.2 108L190.1 106.1Z" fill="#EB996E"/>
</g>
</g>
</g>
</g>
</g>
</g>
</g>
</g>
</g>
</g>
<g id="Group_254">
<g id="Group_255">
<g id="Group_256">
<g id="Group_257">
<g id="Group_258">
<g id="Group_259">
<g id="Group_260">
<g id="Group_261">
<g id="Group_262">
<g id="Group_263">
<g id="Group_264">
<g id="Group_265">
<g id="Group_266">
<path id="Vector_115" d="M195.3 82.1C195 82.7 195.3 83.3 195.9 83.6C196.5 83.9 197.2 83.7 197.4 83.1C197.7 82.5 197.4 81.8 196.9 81.6C196.3 81.3 195.6 81.5 195.3 82.1Z" fill="#263238"/>
</g>
</g>
</g>
</g>
</g>
</g>
</g>
<g id="Group_267">
<g id="Group_268">
<g id="Group_269">
<g id="Group_270">
<g id="Group_271">
<g id="Group_272">
<g id="Group_273">
<g id="Group_274">
<path id="Vector_116" d="M195.3 81.1C195.4 81.3 196.5 81.1 197.6 81.6C198.8 82.1 199.3 83.1 199.5 83C199.6 83 199.6 82.7 199.3 82.2C199.1 81.8 198.6 81.2 197.8 80.9C197.1 80.6 196.4 80.6 195.9 80.7C195.5 80.8 195.3 81 195.3 81.1Z" fill="#263238"/>
</g>
</g>
</g>
</g>
</g>
</g>
</g>
</g>
</g>
<g id="Group_275">
<g id="Group_276">
<g id="Group_277">
<g id="Group_278">
<g id="Group_279">
<g id="Group_280">
<g id="Group_281">
<g id="Group_282">
<path id="Vector_117" d="M206.1 87.4C205.8 88 206.1 88.6 206.7 88.9C207.3 89.2 208 89 208.2 88.4C208.5 87.8 208.2 87.1 207.7 86.9C207.1 86.6 206.4 86.8 206.1 87.4Z" fill="#263238"/>
</g>
</g>
</g>
</g>
</g>
</g>
</g>
<g id="Group_283">
<g id="Group_284">
<g id="Group_285">
<g id="Group_286">
<g id="Group_287">
<g id="Group_288">
<g id="Group_289">
<g id="Group_290">
<path id="Vector_118" d="M206.6 86.4C206.7 86.6 207.8 86.4 208.9 86.9C210.1 87.4 210.6 88.4 210.8 88.3C210.9 88.3 210.9 88 210.6 87.5C210.4 87.1 209.9 86.5 209.1 86.2C208.4 85.9 207.7 85.9 207.2 86C206.8 86.1 206.6 86.3 206.6 86.4Z" fill="#263238"/>
</g>
</g>
</g>
</g>
</g>
</g>
</g>
</g>
</g>
<g id="Group_291">
<g id="Group_292">
<g id="Group_293">
<g id="Group_294">
<g id="Group_295">
<g id="Group_296">
<g id="Group_297">
<g id="Group_298">
<path id="Vector_119" d="M198.6 93.1C198.6 93 198 92.6 196.9 91.9C196.6 91.7 196.4 91.6 196.4 91.3C196.4 91.1 196.7 90.8 197 90.5C197.6 89.9 198.2 89.3 198.9 88.6C201.5 85.9 203.6 83.7 203.5 83.6C203.4 83.5 201.2 85.6 198.5 88.2C197.9 88.9 197.2 89.5 196.7 90.1C196.4 90.4 196.1 90.7 196 91.2C196 91.5 196.1 91.7 196.3 91.8C196.5 91.9 196.6 92 196.8 92.1C197.8 92.8 198.5 93.2 198.6 93.1Z" fill="#263238"/>
</g>
</g>
</g>
</g>
</g>
</g>
</g>
</g>
<g id="Group_299">
<g id="Group_300">
<g id="Group_301">
<g id="Group_302">
<g id="Group_303">
<g id="Group_304">
<g id="Group_305">
<g id="Group_306">
<path id="Vector_120" d="M201.6 95.4C201.4 95.3 200.9 96.6 199.4 97C197.9 97.4 196.7 96.7 196.6 96.8C196.5 96.9 196.8 97.2 197.3 97.4C197.8 97.7 198.7 97.9 199.6 97.6C200.5 97.3 201.1 96.7 201.4 96.2C201.7 95.8 201.7 95.5 201.6 95.4Z" fill="#263238"/>
</g>
</g>
</g>
</g>
</g>
</g>
</g>
</g>
</g>
</g>
</g>
<g id="Group_307">
<g id="Group_308">
<g id="Group_309">
<g id="Group_310">
<g id="Group_311">
<g id="Group_312">
<g id="Group_313">
<path id="Vector_121" d="M208.3 81.8C208.3 82.2 209.5 82.5 210.8 83.3C212.1 84 213 84.9 213.3 84.7C213.4 84.6 213.4 84.2 213.1 83.7C212.8 83.2 212.2 82.6 211.5 82.1C210.7 81.6 209.9 81.4 209.3 81.4C208.7 81.4 208.4 81.6 208.3 81.8Z" fill="#263238"/>
</g>
</g>
</g>
</g>
</g>
</g>
</g>
<g id="Group_314">
<g id="Group_315">
<g id="Group_316">
<g id="Group_317">
<g id="Group_318">
<g id="Group_319">
<g id="Group_320">
<path id="Vector_122" d="M197.3 78C197.4 78.4 198.3 78.4 199.3 78.9C200.3 79.3 201 79.9 201.3 79.7C201.4 79.6 201.4 79.3 201.2 78.9C201 78.5 200.5 78 199.8 77.8C199.1 77.5 198.5 77.5 198 77.6C197.5 77.6 197.2 77.8 197.3 78Z" fill="#263238"/>
</g>
</g>
</g>
</g>
</g>
</g>
</g>
</g>
</g>
<g id="Group_321">
<g id="Group_322">
<g id="Group_323">
<g id="Group_324">
<g id="Group_325">
<g id="Group_326">
<g id="Group_327">
<g id="Group_328">
<path id="Vector_123" d="M217.1 95.8C217.3 95.8 222.9 96.6 220.5 101.6C218 106.7 213.5 103.1 213.5 103C213.5 102.9 217.1 95.8 217.1 95.8Z" fill="#FFBE9D"/>
</g>
</g>
</g>
</g>
</g>
</g>
</g>
<g id="Group_329">
<g id="Group_330">
<g id="Group_331">
<g id="Group_332">
<g id="Group_333">
<g id="Group_334">
<g id="Group_335">
<g id="Group_336">
<path id="Vector_124" d="M216 101.9C216 101.9 216.1 102 216.2 102.1C216.3 102.2 216.5 102.4 216.9 102.4C217.5 102.5 218.4 101.8 218.9 100.9C219.1 100.4 219.3 100 219.3 99.5C219.3 99.1 219.2 98.7 219 98.5C218.8 98.3 218.5 98.4 218.4 98.5C218.3 98.6 218.2 98.7 218.2 98.7C218.2 98.7 218.1 98.6 218.3 98.4C218.4 98.3 218.5 98.2 218.7 98.2C218.9 98.2 219.1 98.2 219.3 98.3C219.7 98.5 219.9 99 219.8 99.5C219.8 100 219.7 100.6 219.4 101.1C218.9 102.1 217.9 102.8 217 102.7C216.6 102.6 216.4 102.4 216.3 102.2C215.9 102.1 215.9 101.9 216 101.9Z" fill="#EB996E"/>
</g>
</g>
</g>
</g>
</g>
</g>
</g>
</g>
</g>
</g>
</g>
<g id="Group_337">
<g id="Group_338">
<g id="Group_339">
<path id="Vector_125" d="M220 96.9C219.3 96.4 217.6 96.5 217 97.1C216.3 97.7 215.9 98.5 215.2 99.1C214.5 99.7 213.5 100 212.8 99.5C212.3 99.1 212.2 98.4 212.3 97.8C212.4 97.2 212.7 96.7 213 96.1C214.4 93.8 215.9 91.7 217.1 89.3C218.3 86.9 219.1 84.3 218.7 81.6C218.4 79 216.7 76.4 214.2 75.5C212.5 74.9 210.7 75.1 209 74.6C207 74 205.3 72.5 204.6 70.5C204.5 70.3 203.9 69.4 203.9 69.4C204 69.3 204.6 68.3 205.2 68.1C209.7 66.6 215.7 68.3 219.4 71.2C223.1 74.1 225.7 78.8 225.7 83.5C225.7 88.3 222.8 93.4 220 96.9Z" fill="#263238"/>
</g>
</g>
</g>
</g>
<g id="Group_340">
<path id="Vector_126" d="M220.1 96.4C221.5 94 223.8 92.3 225.5 90.1C227.2 87.9 228.4 84.9 227.2 82.4C226.8 81.6 226.1 80.8 225.7 80C225.3 79.1 225.3 78.1 225.2 77.2C224.8 74.3 222.9 71.6 220.4 70.2C218.6 69.2 216.6 68.8 214.8 67.9C211.9 66.4 209.9 63.6 206.9 62.4C205.9 62 204.7 61.8 203.8 62.3C202.8 62.8 202.3 64.2 203 65C202.9 64 201.6 63.5 200.8 63.9C199.9 64.3 199.5 65.3 199.5 66.3C199.6 67.3 200 68.2 200.6 68.9C202.4 71.5 205.2 73.4 208.3 74.2L215.2 73.7L220.9 77.9L225.1 84.6L217.5 94.5L220.1 96.4Z" fill="#263238"/>
</g>
</g>
</g>
</g>
<g id="light">
<g id="Group_341">
<path id="Vector_127" d="M176.9 57.1C176 43.7 164.4 33.5 151 34.3C137.6 35.2 127.4 46.8 128.2 60.2C128.8 69.9 135.1 77.9 143.6 81.3C143.8 84.2 144 87.4 144 87.4L165.3 86C165.3 86 165.2 82.5 165.1 79.5C172.6 75 177.5 66.5 176.9 57.1Z" fill="#98FF98"/>
<g id="Group_342">
<path id="Vector_128" d="M157.6 86.5C157.6 86.5 157.6 86.4 157.6 86.2C157.6 86 157.6 85.7 157.6 85.3C157.6 84.5 157.7 83.4 157.8 81.9C157.9 80.4 158.1 78.6 158.4 76.5C158.7 74.4 159.2 72.1 160.2 69.6C160.7 68.4 161.2 67.1 162 65.8C162.4 65.2 162.9 64.6 163.6 64.2C164.3 63.8 165.2 63.8 165.9 64.1C166.3 64.3 166.6 64.6 166.7 65C166.9 65.4 166.8 65.9 166.7 66.3C166.4 67.1 165.7 67.7 164.9 68C163.3 68.7 161.5 68.6 159.8 68C158.1 67.3 156.8 65.9 156.1 64.2C155.8 63.3 155.6 62.4 155.8 61.4C156 60.4 156.8 59.5 157.9 59.6C158.4 59.6 158.9 59.9 159.2 60.4C159.5 60.8 159.6 61.4 159.5 61.9C159.3 62.9 158.6 63.7 157.9 64.4C156.4 65.8 154.4 66.6 152.3 66.4C150.2 66.2 148.3 65 147.4 63.2C146.9 62.3 146.7 61.2 147 60.3C147.2 59.8 147.5 59.4 148 59.2C148.5 59 149 59 149.5 59.2C150 59.4 150.4 59.8 150.6 60.2C150.9 60.6 151 61.1 151.1 61.6C151.2 62.5 151.2 63.5 150.9 64.4C150.4 66.2 149.3 67.8 147.7 68.7C146.2 69.6 144.4 70 142.7 69.7C141.9 69.6 141 69.3 140.4 68.7C139.8 68.1 139.6 67.1 140.1 66.4C140.4 66.1 140.8 65.9 141.2 65.8C141.6 65.7 142 65.8 142.4 66C143.1 66.3 143.6 67 144 67.6C144.7 68.9 145.3 70.1 145.8 71.3C148.1 76.1 149.7 80 150.8 82.8C151.4 84.2 151.8 85.2 152 86C152.1 86.4 152.2 86.6 152.3 86.8C152.4 87 152.4 87.1 152.4 87.1C152.4 87.1 152.4 87 152.3 86.8C152.2 86.6 152.1 86.3 152 86C151.7 85.3 151.3 84.2 150.7 82.9C149.6 80.2 147.9 76.2 145.6 71.5C145 70.3 144.4 69.1 143.7 67.8C143.3 67.2 142.9 66.6 142.2 66.3C141.6 66 140.7 66.1 140.3 66.7C139.9 67.3 140.1 68.2 140.6 68.7C141.1 69.3 141.9 69.5 142.7 69.6C144.3 69.8 146 69.5 147.5 68.6C149 67.7 150.1 66.2 150.5 64.5C150.7 63.6 150.8 62.7 150.7 61.8C150.6 60.9 150.1 60 149.3 59.6C148.9 59.4 148.4 59.4 148 59.6C147.6 59.8 147.3 60.1 147.2 60.6C146.9 61.5 147.1 62.5 147.5 63.3C148.4 65 150.2 66.2 152.2 66.3C154.2 66.5 156.1 65.7 157.5 64.4C158.2 63.7 158.8 63 159 62C159.1 61.6 159 61.1 158.8 60.7C158.6 60.3 158.2 60.1 157.7 60.1C157.3 60.1 156.8 60.3 156.5 60.6C156.2 60.9 156 61.3 155.9 61.7C155.7 62.6 155.9 63.5 156.2 64.3C156.8 66 158.2 67.3 159.7 68C161.3 68.7 163.1 68.7 164.6 68C165.3 67.7 166 67.1 166.2 66.4C166.5 65.7 166.2 64.9 165.5 64.5C164.8 64.2 164 64.2 163.4 64.6C162.8 64.9 162.3 65.5 161.9 66.1C161.2 67.3 160.6 68.6 160.1 69.8C159.2 72.3 158.7 74.6 158.3 76.7C158 78.8 157.8 80.6 157.6 82C157.5 83.5 157.4 84.6 157.3 85.4C157.3 85.8 157.2 86.1 157.2 86.3C157.6 86.4 157.6 86.5 157.6 86.5Z" fill="#263238"/>
</g>
<path id="Vector_129" d="M163.9 90.2L145.6 91.4C144.8 91.4 144.2 90.9 144.1 90.1C144.1 89.3 144.6 88.7 145.4 88.6L163.7 87.4C164.5 87.4 165.1 87.9 165.2 88.7C165.3 89.5 164.7 90.1 163.9 90.2Z" fill="#263238"/>
<path id="Vector_130" d="M164 91.4L145.7 92.6C144.9 92.6 144.4 93.3 144.4 94.1C144.4 94.9 145.1 95.4 145.9 95.4L147.9 95.3L150.9 100.2C151.2 100.8 151.9 101.1 152.5 101L159 100.6C159.7 100.6 160.2 100.1 160.5 99.5L162.8 94.3L164.2 94.2C165 94.2 165.5 93.5 165.5 92.7C165.4 91.9 164.8 91.3 164 91.4Z" fill="#263238"/>
</g>
<g id="Group_343" opacity="0.2">
<path id="Vector_131" opacity="0.2" d="M135.9 44.2C137.4 42.6 139.1 41.4 140.6 40.6C142.1 39.8 143.4 39.4 144.3 39.3C145.2 39.1 145.7 39.2 145.8 39.4C145.9 39.8 144.1 40.6 141.8 42.4C139.4 44.2 136.5 47.2 134.9 51.4C133.3 55.5 133.4 59.8 134 62.7C134.5 65.6 135.3 67.4 134.9 67.7C134.7 67.8 134.3 67.5 133.7 66.8C133.1 66.1 132.5 64.9 131.9 63.3C131.3 61.7 130.9 59.8 130.9 57.5C130.8 55.3 131.2 52.8 132.1 50.4" fill="white"/>
</g>
<g id="Group_344" opacity="0.2">
<path id="Vector_132" opacity="0.2" d="M151.7 40C150.2 40.1 148.8 39.8 148.6 38.9C148.5 38.5 148.8 38 149.3 37.7C149.8 37.3 150.6 37 151.6 37C152.5 36.9 153.4 37.1 153.9 37.4C154.5 37.7 154.8 38.1 154.7 38.5" fill="white"/>
</g>
<g id="Group_345">
<path id="Vector_133" d="M160.2 99.9C160.2 99.9 159.7 99.8 158.9 99.6C158.1 99.4 157 99.3 155.8 99.4C154.6 99.5 153.5 99.9 152.8 100.2C152.1 100.5 151.6 100.8 151.6 100.7C151.6 100.7 152 100.3 152.7 100C153.4 99.6 154.5 99.2 155.8 99.1C157.1 99 158.2 99.2 159 99.4C159.8 99.6 160.3 99.8 160.2 99.9Z" fill="#455A64"/>
</g>
<g id="Group_346">
<path id="Vector_134" d="M162.9 94.3C162.9 94.4 159.6 94.7 155.5 94.9C151.4 95.2 148.1 95.3 148.1 95.2C148.1 95.1 151.4 94.8 155.5 94.6C159.5 94.3 162.9 94.2 162.9 94.3Z" fill="#455A64"/>
</g>
<g id="Group_347">
<path id="Vector_135" d="M161.9 96.5C161.9 96.5 161.2 96.7 160.1 96.8C159 96.9 157.4 97.1 155.7 97.2C154 97.3 152.4 97.4 151.3 97.4C150.2 97.4 149.5 97.4 149.5 97.4C149.5 97.4 150.2 97.3 151.3 97.2C152.5 97.1 154 97 155.7 96.9C157.4 96.8 158.9 96.6 160.1 96.5C161.2 96.5 161.9 96.5 161.9 96.5Z" fill="#455A64"/>
</g>
</g>
<g id="book2">
<path id="Vector_136" d="M30 219L34 225.4C34 225.4 51 209.8 67.8 214.2C67.8 214.1 52.7 201.3 30 219Z" fill="#98FF98"/>
<path id="Vector_137" d="M67.8 214.1C67.8 214.1 80.3 200.6 98.5 203.7L103.5 204.5L101.9 201.6C101.9 201.6 70.1 190.7 67.8 214.1Z" fill="#98FF98"/>
<g id="Group_348">
<path id="Vector_138" d="M41.5 168.6C41.5 168.6 16.6 164.3 0.199997 173.2L26.2 222.1C26.2 222.1 47.5 201.6 67.8 214.2L41.5 168.6Z" fill="#F5F5F5"/>
<g id="Group_349">
<path id="Vector_139" d="M41.5 168.6C41.5 168.6 41.5 168.7 41.6 168.8C41.7 169 41.8 169.2 42 169.4C42.3 170 42.8 170.8 43.4 171.8C44.7 174 46.5 177.1 48.8 181.1C53.4 189.1 60 200.5 67.9 214.1C68 214.2 67.9 214.3 67.8 214.4C67.7 214.4 67.6 214.4 67.6 214.4C64.8 212.7 61.5 211.4 58 210.7C56.2 210.4 54.4 210.3 52.6 210.3C50.8 210.4 48.9 210.6 47.1 211C39.7 212.6 32.6 216.6 26.5 222L26.3 222.2C26.2 222.3 26 222.3 25.9 222.2C25.9 222.2 25.9 222.2 25.9 222.1C16.3 203.9 7.39999 187.1 -6.25476e-06 173.2C-0.100006 173.1 -6.25104e-06 173 0.0999938 172.9C5.79999 169.9 11.6 168.7 16.7 168C21.8 167.3 26.3 167.3 30 167.4C33.7 167.5 36.6 167.8 38.5 168.1C39.5 168.2 40.2 168.3 40.7 168.4C40.9 168.4 41.1 168.5 41.3 168.5C41.4 168.5 41.5 168.6 41.5 168.6C41.5 168.6 41.4 168.6 41.3 168.6C41.2 168.6 41 168.6 40.7 168.5C40.2 168.4 39.5 168.3 38.5 168.2C36.6 168 33.7 167.7 30 167.7C26.3 167.6 21.8 167.7 16.7 168.4C11.6 169.1 5.89999 170.4 0.199994 173.4L0.299994 173.1C7.69999 186.9 16.6 203.8 26.3 222L25.9 221.9L26.1 221.7C29.2 218.9 32.5 216.6 36 214.7C39.5 212.8 43.2 211.4 46.9 210.6C48.8 210.2 50.6 210 52.5 209.9C54.4 209.9 56.2 210 58 210.3C61.6 210.9 64.9 212.3 67.7 214.1L67.4 214.4C59.6 200.8 53.1 189.4 48.5 181.4C46.2 177.4 44.4 174.2 43.2 172.1C42.6 171 42.1 170.2 41.8 169.6C41.7 169.3 41.5 169.1 41.4 169C41.5 168.6 41.5 168.6 41.5 168.6Z" fill="#263238"/>
</g>
</g>
<g id="Group_350">
<path id="Vector_140" d="M80.7 158.5C80.7 158.5 61.8 146.5 41.8 168.5L68.1 214.1C68.1 214.1 73.5 195.6 104.8 202L80.7 158.5Z" fill="#F5F5F5"/>
<g id="Group_351">
<path id="Vector_141" d="M80.7 158.5C80.7 158.5 80.7 158.6 80.8 158.7C80.9 158.8 81 159 81.1 159.3C81.4 159.8 81.9 160.6 82.4 161.6C83.6 163.7 85.2 166.7 87.4 170.4C91.7 178 97.7 188.9 105 201.9C105.1 202 105 202.1 104.9 202.2H104.8C103.3 201.9 101.7 201.7 100.1 201.4C99.3 201.2 98.5 201.2 97.7 201.1C96.9 201 96.1 201 95.2 200.9C94.4 200.8 93.5 200.8 92.7 200.8C91.9 200.8 91 200.8 90.2 200.8C89.3 200.8 88.5 201 87.6 201.1C86.7 201.2 85.9 201.3 85 201.5C84.1 201.7 83.3 201.9 82.4 202.1C81.6 202.4 80.7 202.7 79.9 203C79.1 203.3 78.3 203.8 77.5 204.1C77.1 204.3 76.7 204.5 76.3 204.8L75.2 205.5C74.4 206 73.8 206.6 73 207.2C72.4 207.9 71.7 208.5 71.1 209.2C69.9 210.6 68.9 212.3 68.3 214C68.3 214.1 68.1 214.2 68 214.2C67.9 214.2 67.9 214.1 67.9 214.1C67.6 213.5 67.2 212.9 66.8 212.3C57.5 196.2 48.8 181.1 41.6 168.5C41.6 168.4 41.6 168.3 41.6 168.3C46 163.5 50.9 159.8 55.8 157.6C60.7 155.4 65.4 154.8 69.2 155.1C73 155.3 75.9 156.3 77.8 157C78.7 157.4 79.4 157.7 79.9 158C80.1 158.1 80.3 158.2 80.4 158.3C80.7 158.5 80.7 158.5 80.7 158.5C80.7 158.5 80.6 158.5 80.5 158.4C80.4 158.3 80.2 158.2 80 158.1C79.5 157.9 78.8 157.5 77.9 157.2C76 156.5 73.1 155.6 69.3 155.4C65.5 155.2 60.8 155.8 56 158C51.2 160.2 46.3 163.8 41.9 168.7V168.5C49.2 181.1 57.8 196.1 67.2 212.2C67.6 212.8 67.9 213.5 68.3 214L67.8 214.1C68.5 212.2 69.5 210.6 70.7 209.1C71.3 208.3 72 207.7 72.6 207C73.3 206.4 74 205.8 74.8 205.3L76 204.5C76.4 204.2 76.8 204 77.2 203.8C78 203.4 78.8 202.9 79.7 202.6C80.6 202.3 81.4 202 82.3 201.7C83.2 201.5 84.1 201.3 84.9 201.1C85.8 200.9 86.6 200.8 87.5 200.7C88.4 200.6 89.2 200.5 90.1 200.4C91 200.4 91.8 200.4 92.7 200.4C93.6 200.4 94.4 200.4 95.2 200.5C96 200.6 96.9 200.6 97.7 200.7C98.5 200.8 99.3 200.8 100.1 201C101.7 201.3 103.3 201.5 104.8 201.8L104.6 202.1C97.4 189.1 91.4 178.2 87.2 170.5C85.1 166.7 83.5 163.7 82.3 161.6C81.8 160.6 81.3 159.8 81 159.2C80.9 158.9 80.8 158.7 80.7 158.6C80.7 158.6 80.7 158.5 80.7 158.5Z" fill="#263238"/>
</g>
</g>
<g id="Group_352">
<path id="Vector_142" d="M7.2 149.6L35.3 203.8C35.3 203.8 58.2 202.8 67.8 213.9L41.7 168.6C41.8 168.6 26.5 149.6 7.2 149.6Z" fill="#F5F5F5"/>
<g id="Group_353">
<path id="Vector_143" d="M7.2 149.6C7.2 149.6 7.4 149.6 7.9 149.6C8.4 149.6 9.1 149.7 10.1 149.7C10.3 149.7 10.6 149.7 10.9 149.7C11.2 149.7 11.4 149.8 11.7 149.8C12.3 149.9 12.9 150 13.6 150.1C14.3 150.2 15 150.4 15.8 150.6C16.6 150.8 17.4 151 18.2 151.3C24.9 153.5 33.9 159 42 168.3C49.4 181.2 58.4 196.8 68.1 213.6C68.2 213.7 68.1 213.9 68 213.9C67.9 214 67.8 213.9 67.7 213.9C67.4 213.6 67 213.2 66.6 212.8C64.5 210.8 62 209.2 59.4 208C56.8 206.8 54.1 205.9 51.4 205.4C46 204.2 40.5 203.7 35.4 203.8C35.3 203.8 35.2 203.8 35.2 203.7C26.9 188 19.9 174.4 15 164.8C12.6 160 10.6 156.2 9.3 153.6C8.6 152.3 8.1 151.3 7.8 150.6C7.6 150.3 7.5 150 7.4 149.8C7.3 149.7 7.2 149.6 7.2 149.6C7.2 149.6 7.3 149.7 7.4 149.9C7.5 150.1 7.6 150.3 7.8 150.7C8.2 151.4 8.7 152.4 9.4 153.7C10.8 156.3 12.8 160.1 15.3 164.9C20.3 174.5 27.4 187.9 35.6 203.7L35.4 203.6C40.6 203.5 46 203.9 51.5 205.2C54.2 205.8 57 206.7 59.6 207.9C62.3 209 64.8 210.7 66.9 212.8C67.3 213.2 67.7 213.6 68 213.9L67.6 214.2C57.9 197.3 49 181.7 41.6 168.8C37.6 164.1 33.3 160.5 29.3 157.7C25.2 154.9 21.4 153 18 151.8C17.2 151.5 16.4 151.3 15.6 151.1C14.8 150.9 14.1 150.7 13.5 150.6C12.8 150.5 12.2 150.4 11.6 150.3C11.3 150.2 11 150.2 10.8 150.2C10.5 150.2 10.3 150.2 10.1 150.1C8.4 149.7 7.6 149.6 7.2 149.6Z" fill="#263238"/>
</g>
</g>
</g>
<g id="planet">
<g id="Group_354">
<g id="Group_355">
<g id="Group_356">
<g id="Group_357">
<g id="Group_358">
<path id="Vector_144" d="M42.4 289.8C53.3905 289.8 62.3 280.89 62.3 269.9C62.3 258.91 53.3905 250 42.4 250C31.4095 250 22.5 258.91 22.5 269.9C22.5 280.89 31.4095 289.8 42.4 289.8Z" fill="#98FF98"/>
</g>
</g>
</g>
</g>
<g id="Group_359" opacity="0.3">
<g id="Group_360" opacity="0.3">
<g id="Group_361" opacity="0.3">
<g id="Group_362" opacity="0.3">
<path id="Vector_145" opacity="0.3" d="M39.8 276.1C39.8 277.9 38.3 279.4 36.5 279.4C34.7 279.4 33.2 277.9 33.2 276.1C33.2 274.3 34.7 272.8 36.5 272.8C38.4 272.9 39.8 274.3 39.8 276.1Z" fill="white"/>
</g>
</g>
</g>
</g>
<g id="Group_363" opacity="0.3">
<g id="Group_364" opacity="0.3">
<g id="Group_365" opacity="0.3">
<g id="Group_366" opacity="0.3">
<path id="Vector_146" opacity="0.3" d="M35.2 266.7C35.2 267.7 34.4 268.6 33.3 268.6C32.3 268.6 31.4 267.8 31.4 266.7C31.4 265.7 32.2 264.8 33.3 264.8C34.4 264.8 35.2 265.7 35.2 266.7Z" fill="white"/>
</g>
</g>
</g>
</g>
</g>
<g id="Group_367">
<g id="Group_368">
<g id="Group_369">
<g id="Group_370">
<path id="Vector_147" d="M23.1 274.8C23.2 275.1 5.99999 291.6 10.5 295.1C14.9 298.6 33.5 289.6 49.4 276.8C65.3 264 79.8 248.4 75.8 244.3C71.8 240.2 52 252.4 52 252.4L54.4 253.9C54.4 253.9 66.4 246.2 70.2 249.2C74 252.2 63.2 263.8 47.9 275C32.6 286.1 17.9 293.9 15.6 290.9C13.3 287.8 24.1 277.7 24.1 277.7L23.1 274.8Z" fill="#98FF98"/>
</g>
</g>
</g>
</g>
<g id="Group_371" opacity="0.3">
<g id="Group_372" opacity="0.3">
<g id="Group_373" opacity="0.3">
<g id="Group_374" opacity="0.3">
<path id="Vector_148" opacity="0.3" d="M23.1 274.8C23.2 275.1 5.99999 291.6 10.5 295.1C14.9 298.6 33.5 289.6 49.4 276.8C65.3 264 79.8 248.4 75.8 244.3C71.8 240.2 52 252.4 52 252.4L54.4 253.9C54.4 253.9 66.4 246.2 70.2 249.2C74 252.2 63.2 263.8 47.9 275C32.6 286.1 17.9 293.9 15.6 290.9C13.3 287.8 24.1 277.7 24.1 277.7L23.1 274.8Z" fill="#98FF98"/>
</g>
</g>
</g>
</g>
<g id="Group_375" opacity="0.3">
<g id="Group_376" opacity="0.3">
<g id="Group_377" opacity="0.3">
<g id="Group_378" opacity="0.3">
<g id="Group_379" opacity="0.3">
<path id="Vector_149" opacity="0.3" d="M31.4 255.9C31.6 256.1 30.2 257.2 28.7 259.5C27.2 261.8 25.6 265.4 25.5 269.5C25.4 273.7 26.9 277.3 28.3 279.6C29.7 282 31 283.2 30.9 283.3C30.8 283.4 29.2 282.5 27.4 280.2C26.5 279 25.6 277.5 25 275.7C24.3 273.9 23.9 271.7 24 269.5C24.1 267.2 24.5 265.1 25.3 263.3C26 261.5 27 260 27.9 258.9C29.7 256.6 31.3 255.7 31.4 255.9Z" fill="white"/>
</g>
</g>
</g>
</g>
</g>
</g>
</g>
<defs>
<clipPath id="clip0">
<rect width="355.8" height="438.8" fill="white"/>
</clipPath>
</defs>
</svg>
