<svg width="197" height="333" viewBox="0 0 197 333" fill="none" xmlns="http://www.w3.org/2000/svg">
<g id="man">
<g id="Group">
<path id="Vector" d="M66.8 136.3L91.9 132.6L79.9 115.6L73.5 116C69.2 116.3 65.3 118.9 63.6 122.9C62.7 125 62.4 127.4 62.9 129.6L66.8 136.3Z" fill="#98FF98"/>
<path id="Vector_2" opacity="0.4" d="M66.8 136.3L91.9 132.6L79.9 115.6L73.5 116C69.2 116.3 65.3 118.9 63.6 122.9C62.7 125 62.4 127.4 62.9 129.6L66.8 136.3Z" fill="black"/>
</g>
<g id="Group_2">
<g id="Group_3">
<path id="Vector_3" d="M174.9 164.2C175.2 164.9 175.4 165.8 175.7 166.8C175.9 167.7 176 168.6 176 169.5C175.9 170.6 175.8 172.1 175.4 172.8C175 173.8 175.9 174.7 176.8 174.2C177.6 173.7 178.8 171.1 178.7 167.8C178.6 164.5 182 168.5 183.3 169.9C184.6 171.3 188.7 175.6 189.5 175.6C190.6 175.5 190.7 174.3 189.4 172.9C188.1 171.5 184.5 167 185.3 166.4C186.1 165.8 192.4 173.2 192.4 173.2C192.4 173.2 193.5 175 194.4 174.3C196.1 173 188.7 165.6 188 165C187.5 164.5 188.3 163.8 188.8 164.3C189.3 164.9 195 171.8 196.7 170.6C198 169.6 190.7 164.5 190.3 162.4C189.9 160.3 195.5 166.9 196.7 165.9C197.2 165.5 197.5 165.2 193.7 161.9C191.9 160.3 185 155.5 185 155.5L164.4 96.4L148.5 105.5L174.9 164.2Z" fill="#FFBE9D"/>
</g>
<path id="Vector_4" d="M52 52.4L28.9 24.9C28.6 24 28.2 23 27.8 22.2C26.6 20.1 24.7 18.2 22.4 17.7C20.9 17.4 19.3 17.5 18.1 16.6C17.6 16.2 17.2 15.6 16.7 15.2C16.2 14.8 15.3 14.7 14.9 15.3C14.7 15.7 14.8 16.2 15 16.7C15.9 18.7 17.3 20.5 19 21.9C16.8 22.6 13.7 23.6 13.7 23.6C13.7 23.6 8.9 18 6.4 18C3.9 18 8.4 22.7 8.4 22.7C8.4 22.7 4.4 19 3.2 20C2 21 5.1 23.8 5.1 23.8C4.1 23.3 3 22.7 1.9 22.9C0.800004 23.1 -0.199996 24.4 0.400004 25.4C0.600004 25.8 1 26 1.4 26.2C3.4 27.3 5.5 28.5 7.5 29.6C8.5 30.2 9.60001 30.8 10.8 30.8C13.9 30.9 16.3 29 19.4 29.1C19.4 29.1 36.8 65.7 38.6 67.6C40.4 69.5 78.6 72.1 78.6 72.1L100.7 53L52 52.4Z" fill="#FFBE9D"/>
<g id="Group_4">
<path id="Vector_5" d="M121.3 251.8L144.9 262.1L132.3 291.5C129.6 290.1 130.5 272.5 130.5 272.5L115.1 266.5L121.3 251.8Z" fill="#98FF98"/>
<g id="Group_5" opacity="0.6">
<path id="Vector_6" opacity="0.6" d="M133 262.8C133.4 262.3 134.2 262.2 134.7 262.6C135.2 263 135.3 263.8 135 264.3C134.6 264.8 133.6 265 133.2 264.5C132.7 264.1 132.6 263.1 133 262.8Z" fill="white"/>
</g>
<path id="Vector_7" opacity="0.6" d="M144.8 262.1L142.4 261.2L131.2 289.7C131.2 289.7 131.2 291.3 132.2 291.5L144.8 262.1Z" fill="white"/>
<g id="Group_6">
<path id="Vector_8" d="M130 272.9C130.1 273 130.5 272.3 131.3 271.8C132.1 271.3 132.8 271.2 132.8 271C132.8 270.9 131.9 270.7 131 271.3C130.1 271.9 129.9 272.8 130 272.9Z" fill="#263238"/>
</g>
<g id="Group_7">
<path id="Vector_9" d="M130 276.5C130.1 276.6 130.6 276.1 131.5 275.8C132.3 275.5 133 275.7 133.1 275.6C133.2 275.5 132.4 275 131.4 275.3C130.2 275.6 129.8 276.4 130 276.5Z" fill="#263238"/>
</g>
<g id="Group_8">
<path id="Vector_10" d="M132.9 279.8C133 279.7 132.4 279.2 131.4 279.2C130.5 279.2 129.9 279.8 129.9 279.9C130 280 130.6 279.8 131.4 279.8C132.2 279.7 132.8 280 132.9 279.8Z" fill="#263238"/>
</g>
<g id="Group_9">
<path id="Vector_11" d="M126.7 271.1C126.9 271.1 126.9 270.4 127.3 269.6C127.7 268.8 128.2 268.3 128.1 268.2C128 268.1 127.2 268.5 126.8 269.4C126.3 270.3 126.5 271.1 126.7 271.1Z" fill="#263238"/>
</g>
<g id="Group_10">
<path id="Vector_12" d="M123.5 268.9C123.6 268.9 123.9 268.4 124.1 267.4C124.2 266.9 124.3 266.3 124.3 265.7C124.3 265.4 124.3 265 124.2 264.7C124.2 264.5 124.2 264.3 124 264.1C123.9 263.9 123.6 263.6 123.3 263.7C123 263.8 122.8 264 122.7 264.2C122.6 264.4 122.6 264.6 122.5 264.8C122.4 265.2 122.4 265.5 122.4 265.8C122.4 266.5 122.5 267.1 122.7 267.5C123 268.5 123.5 268.9 123.5 268.9C123.6 268.9 123.3 268.3 123 267.4C122.9 266.9 122.8 266.4 122.8 265.8C122.8 265.5 122.8 265.2 122.9 264.8C123 264.5 123.1 264.2 123.2 264.2C123.3 264.2 123.3 264.2 123.4 264.3C123.5 264.4 123.5 264.6 123.5 264.7C123.6 265 123.6 265.4 123.6 265.7C123.6 266.3 123.6 266.9 123.5 267.4C123.6 268.3 123.4 268.9 123.5 268.9Z" fill="#263238"/>
</g>
<g id="Group_11">
<path id="Vector_13" d="M123.8 268.8C123.8 268.8 123.5 268.3 122.5 267.8C122 267.6 121.5 267.4 120.8 267.3C120.5 267.3 120.1 267.3 119.7 267.3C119.3 267.3 118.9 267.4 118.6 267.9C118.5 268.2 118.6 268.5 118.7 268.7C118.9 268.9 119 269 119.2 269.1C119.5 269.3 119.9 269.4 120.2 269.5C120.9 269.7 121.5 269.6 122 269.5C123 269.3 123.4 268.7 123.4 268.7C123.3 268.6 122.9 269 121.9 269.1C121.4 269.2 120.9 269.1 120.3 269C120 268.9 119.7 268.8 119.5 268.6C119.2 268.4 119 268.2 119.1 268.1C119.2 268 119.5 267.8 119.8 267.8C120.1 267.8 120.4 267.8 120.8 267.8C121.4 267.8 122 268 122.4 268.1C123.2 268.5 123.7 268.9 123.8 268.8Z" fill="#263238"/>
</g>
</g>
<g id="Group_12">
<path id="Vector_14" d="M103.1 292.2L112.8 312.6L115.9 331C116.1 332.3 117.4 333.2 118.7 332.9C119.4 332.7 120 332.2 120.3 331.5C122.1 327.1 128.6 310.7 127.8 309.3C126.9 307.6 119 287.1 119 287.1L103.1 292.2Z" fill="#98FF98"/>
<path id="Vector_15" opacity="0.6" d="M118.7 332.8L127.2 307.8L127.6 308.7C127.9 309.5 128 310.3 127.8 311.1C127.2 313.2 125.3 319.1 120.4 331.4C120.1 332.1 119.5 332.7 118.7 332.8Z" fill="white"/>
<g id="Group_13" opacity="0.6">
<path id="Vector_16" opacity="0.6" d="M120 303.1C119.6 303.7 119.8 304.5 120.4 304.9C121 305.3 121.8 305.1 122.2 304.5C122.6 303.9 122.4 302.9 121.8 302.6C121.2 302.3 120.2 302.6 120 303.2" fill="white"/>
</g>
<g id="Group_14">
<path id="Vector_17" d="M119.4 321.7C119.3 321.8 118.4 320.9 116.9 320.9C115.4 320.8 114.4 321.6 114.3 321.5C114.3 321.5 114.4 321.2 114.9 320.9C115.3 320.6 116.1 320.4 116.9 320.4C117.7 320.4 118.4 320.7 118.9 321C119.3 321.4 119.4 321.6 119.4 321.7Z" fill="#263238"/>
</g>
<g id="Group_15">
<path id="Vector_18" d="M119.2 325.1C119.1 325.2 118.2 324.9 117 325C115.8 325.1 115 325.8 114.9 325.6C114.8 325.5 115.6 324.6 117 324.5C118.3 324.4 119.3 325 119.2 325.1Z" fill="#263238"/>
</g>
<g id="Group_16">
<path id="Vector_19" d="M120.5 316.9C120.4 317 119 316.5 117.1 316.6C115.2 316.7 113.8 317.4 113.7 317.3C113.6 317.2 115 316.2 117.1 316.1C119.1 316 120.6 316.8 120.5 316.9Z" fill="#263238"/>
</g>
<g id="Group_17">
<path id="Vector_20" d="M118.1 310.5C118.1 310.6 116.7 310.7 115.2 311.3C113.7 311.9 112.7 312.8 112.6 312.7C112.5 312.6 113.4 311.5 115 310.8C116.7 310.1 118.1 310.3 118.1 310.5Z" fill="#263238"/>
</g>
<g id="Group_18">
<path id="Vector_21" d="M115.4 304.4C115.4 304.5 113.9 304.4 112.4 305.2C110.8 305.9 110.1 307.2 110 307.1C109.9 307.1 110.1 306.7 110.4 306.2C110.7 305.7 111.4 305.1 112.2 304.7C113 304.3 113.9 304.2 114.5 304.2C115.1 304.2 115.4 304.3 115.4 304.4Z" fill="#263238"/>
</g>
<g id="Group_19">
<path id="Vector_22" d="M111.9 304C111.9 304 111.7 303.8 111.5 303.2C111.3 302.7 111.1 301.9 111.2 300.9C111.3 300.4 111.3 299.8 111.7 299.3C111.9 299 112.4 298.9 112.7 299.1C113.1 299.3 113.3 299.6 113.4 299.9C114 301.2 113.4 303 112 303.8C110.6 304.6 108.9 304.4 107.8 303.5C107.5 303.3 107.3 302.9 107.3 302.5C107.3 302.1 107.7 301.7 108 301.7C108.7 301.5 109.2 301.7 109.7 301.8C110.7 302.1 111.4 302.5 111.8 302.8C112.3 303.1 112.5 303.3 112.4 303.4C112.4 303.5 111.4 302.6 109.6 302.2C109.1 302.1 108.6 302 108.1 302.2C107.9 302.3 107.7 302.4 107.7 302.7C107.7 302.9 107.9 303.1 108.1 303.3C109 304 110.6 304.2 111.8 303.5C113 302.8 113.5 301.2 113 300.2C112.9 299.9 112.7 299.7 112.5 299.6C112.3 299.5 112.1 299.6 111.9 299.7C111.6 300 111.5 300.6 111.4 301.1C111.4 302.8 112 304 111.9 304Z" fill="#263238"/>
</g>
</g>
<g id="Group_20">
<path id="Vector_23" d="M135.9 254.3L109.2 236.3L118 149.5L92.7 134.7L69.6 129.3C69.6 129.3 59.9 149.4 55.6 162.3C46.5 189.7 40 199.5 41.5 219.3C42 225.6 65.1 241.3 79.8 250C80 252 80.3 253.8 80.6 255.2C85.6 277.8 100.9 307.9 100.9 307.9L124.1 297.1L116.6 271.5L124.4 276L135.9 254.3ZM78.5 198.3L81.6 184.4C80.9 193.2 80.3 202.5 79.9 211.3C78.5 207.3 78 202.7 78.5 198.3Z" fill="#263238"/>
<g id="Group_21">
<path id="Vector_24" d="M100.9 308C100.9 308 100.8 307.9 100.7 307.6C100.6 307.3 100.4 307 100.2 306.5C99.8 305.5 99.2 304.1 98.4 302.3C96.9 298.6 94.7 293.3 92 286.7C89.4 280.1 86.2 272.2 83 263.3C82.2 261.1 81.4 258.8 80.7 256.4C80.4 255.2 80 254 79.8 252.7C79.7 252.4 79.7 252.1 79.6 251.8L79.5 250.9C79.4 250.3 79.4 249.6 79.3 249C79 246.4 78.8 243.8 78.6 241.2C78.5 239.9 78.4 238.5 78.4 237.2C78.4 235.9 78.3 234.5 78.4 233.1C78.8 222.2 79.7 211.9 80.5 202.4C81.3 193 82 184.5 82.6 177.4C83.2 170.3 83.6 164.5 83.8 160.5C83.9 158.5 84 157 84 155.9C84 155.4 84 155 84.1 154.7C84.1 154.4 84.1 154.3 84.1 154.3C84.1 154.3 84.1 154.4 84.1 154.7C84.1 155 84.1 155.4 84.1 155.9C84.1 157 84 158.5 84 160.5C83.8 164.5 83.5 170.3 83 177.4C82.4 184.5 81.8 193 81 202.4C80.3 211.8 79.4 222.2 79 233C78.9 234.4 79 235.7 79 237C79.1 238.3 79.1 239.7 79.2 241C79.4 243.6 79.6 246.2 79.9 248.8C80 249.4 80 250.1 80.1 250.7L80.2 251.6C80.3 251.9 80.3 252.2 80.4 252.5C80.6 253.7 81 254.9 81.3 256.1C82 258.5 82.8 260.7 83.6 263C86.7 271.9 89.9 279.8 92.4 286.5C95 293.1 97.2 298.5 98.7 302.2C99.4 304 100 305.5 100.4 306.5C100.6 307 100.7 307.3 100.8 307.6C100.9 307.8 101 308 100.9 308Z" fill="#455A64"/>
</g>
<g id="Group_22">
<path id="Vector_25" d="M83.1 151.4C83.1 151.4 82.9 151.3 82.5 150.9C82.2 150.5 81.7 149.9 81.4 149.1C80.7 147.4 80.3 144.9 80.3 142.2C80.3 139.5 80.5 137 80.6 135.2C80.8 133.4 80.9 132.3 81 132.3C81.1 132.3 81 133.4 80.9 135.2C80.8 137 80.7 139.4 80.7 142.1C80.8 144.8 81.1 147.2 81.7 148.9C82 149.7 82.4 150.3 82.6 150.7C82.9 151.1 83.1 151.3 83.1 151.4Z" fill="#455A64"/>
</g>
<g id="Group_23">
<path id="Vector_26" d="M73.1 130.7C73.1 130.7 73.4 131.6 73.3 133.1C73.2 134.6 72.7 136.7 71.4 138.7C70.1 140.6 68.3 141.9 66.9 142.5C65.5 143.1 64.6 143.3 64.6 143.2C64.6 143.1 65.5 142.9 66.8 142.2C68.1 141.5 69.8 140.3 71 138.4C72.3 136.6 72.8 134.5 73 133.1C73.1 131.6 73 130.7 73.1 130.7Z" fill="#455A64"/>
</g>
<g id="Group_24">
<path id="Vector_27" d="M114.6 181.2C114.6 181.2 114.6 181.3 114.6 181.5C114.6 181.7 114.6 182 114.5 182.3C114.4 183 114.3 184 114.2 185.3C113.9 187.9 113.5 191.6 113 196.2C112 205.4 110.5 218.1 108.9 232.1C108.3 239.1 108.9 245.9 110.2 251.8C110.8 254.8 111.7 257.5 112.6 260.1C113.5 262.7 114.3 265.1 115.1 267.2C116.6 271.5 117.8 275.1 118.7 277.5C119.1 278.7 119.4 279.6 119.7 280.3C119.8 280.6 119.9 280.8 119.9 281C120 281.2 120 281.3 120 281.3C120 281.3 120 281.2 119.9 281.1C119.8 280.9 119.7 280.7 119.6 280.4C119.3 279.7 119 278.8 118.6 277.6C117.7 275.1 116.4 271.6 114.9 267.3C114.1 265.1 113.3 262.7 112.3 260.2C111.4 257.6 110.5 254.9 109.8 251.9C108.5 245.9 107.8 239.1 108.4 232.1C110 218.1 111.5 205.4 112.6 196.2C113.2 191.6 113.6 187.9 113.9 185.3C114.1 184 114.2 183.1 114.3 182.3C114.3 182 114.4 181.7 114.4 181.5C114.6 181.3 114.6 181.2 114.6 181.2Z" fill="#455A64"/>
</g>
</g>
<g id="Group_25">
<path id="Vector_28" d="M69.6 129.2L73.7 118.8L83.1 132.7L70.6 129.6" fill="#FFBE9D"/>
<path id="Vector_29" d="M167.5 97.8L156.4 72.9C155.1 68.9 152.6 68.3 150.5 66L122.7 50.3C102.4 42 91.4 69.8 91.4 69.8L73 111.8C51.4 119 66.7 135.6 66.7 135.6C66.7 135.6 60.8 125.4 66.6 121.7C72.7 117.8 79.4 128 85.8 137.7C93.4 149.1 118.2 156.5 118.2 156.5C121.1 153.4 120.3 142.7 122.6 137C123.3 135.2 140.5 95.4 140.5 95.4L147.2 111.5C147.2 111.5 155.7 101.5 159.9 99.9C163.9 98.4 167.5 97.8 167.5 97.8Z" fill="#98FF98"/>
<g id="Group_26">
<path id="Vector_30" d="M118.2 115.5C118.2 115.5 117.9 115.7 117.4 116.1C116.8 116.4 116 116.9 114.9 117.3C112.7 118.1 109.4 118.8 105.8 118.2C102.2 117.6 99.2 116 97.4 114.5C96.5 113.8 95.8 113.1 95.4 112.6C95 112.1 94.8 111.8 94.8 111.8C94.9 111.7 95.8 112.9 97.7 114.2C99.6 115.6 102.5 117.1 106 117.6C109.5 118.1 112.8 117.6 114.9 116.8C116.9 116.2 118.2 115.4 118.2 115.5Z" fill="#263238"/>
</g>
<path id="Vector_31" d="M72.2 76L89.4 77.6L116.8 48.6L100.7 48L72 50.8C71.9 50.9 74.4 62.9 72.2 76Z" fill="#98FF98"/>
<g id="Group_27">
<path id="Vector_32" d="M96 60.7C96 60.7 95.9 60.9 95.8 61.2C95.6 61.6 95.4 62.1 95.1 62.7C94.5 64 93.6 65.9 92.6 68.1C90.5 72.7 87.6 79.1 84.6 86.2C81.5 93.3 78.7 99.7 76.6 104.3C75.5 106.6 74.7 108.5 74.1 109.7C73.8 110.3 73.6 110.8 73.4 111.2C73.2 111.5 73.1 111.7 73.1 111.7C73.1 111.7 73.2 111.5 73.3 111.2C73.5 110.8 73.7 110.3 73.9 109.7C74.5 108.3 75.3 106.5 76.3 104.2C78.3 99.5 81.1 93.1 84.1 86C87.2 78.9 90.1 72.5 92.3 68C93.4 65.7 94.3 63.9 95 62.6C95.3 62 95.6 61.5 95.8 61.2C95.9 60.9 96 60.7 96 60.7Z" fill="#263238"/>
</g>
<g id="Group_28">
<path id="Vector_33" d="M148.3 69.2C148.3 69.3 147.3 69.8 145.8 71.1C145.1 71.7 144.3 72.5 143.5 73.5C142.7 74.5 142 75.6 141.3 76.9C140.7 78.2 140.2 79.5 139.9 80.7C139.6 81.9 139.5 83.1 139.5 84C139.4 85.9 139.7 87.1 139.6 87.1C139.6 87.1 139.5 86.8 139.4 86.3C139.3 86 139.3 85.7 139.3 85.3C139.3 84.9 139.2 84.5 139.2 84C139.2 83 139.3 81.9 139.6 80.6C139.9 79.3 140.3 78 141 76.6C141.7 75.3 142.5 74.1 143.3 73.1C144.1 72.1 145 71.3 145.7 70.7C146.1 70.4 146.4 70.2 146.8 69.9C147.1 69.7 147.4 69.5 147.7 69.4C148.1 69.3 148.3 69.1 148.3 69.2Z" fill="#263238"/>
</g>
</g>
<g id="Group_29">
<g id="Group_30">
<g id="Group_31">
<g id="Group_32">
<g id="Group_33">
<g id="Group_34">
<g id="Group_35">
<g id="Group_36">
<g id="Group_37">
<g id="Group_38">
<g id="Group_39">
<g id="Group_40">
<g id="Group_41">
<g id="Group_42">
<path id="Vector_34" d="M153.1 29.3L137 59.4C134.4 64.3 128.4 66.4 123.3 64.1C117.7 61.6 115.4 54.9 118.3 49.5C119.8 46.6 121.1 44.3 121.1 44.3C121.1 44.3 114.1 39.8 117.4 32.2C120.3 25.5 131 6.39999 133.3 2.39999L146.9 8.49999C154.4 12.4 157.3 21.8 153.1 29.3Z" fill="#FFBE9D"/>
</g>
</g>
</g>
</g>
</g>
</g>
</g>
<g id="Group_43">
<g id="Group_44">
<g id="Group_45">
<g id="Group_46">
<g id="Group_47">
<g id="Group_48">
<g id="Group_49">
<path id="Vector_35" d="M121.1 44.1C121.1 44.1 125.7 46.6 132.1 45.7C132.1 45.7 127.4 50.1 120.2 46L121.1 44.1Z" fill="#EB996E"/>
</g>
</g>
</g>
</g>
</g>
</g>
</g>
</g>
</g>
</g>
<g id="Group_50">
<g id="Group_51">
<g id="Group_52">
<g id="Group_53">
<g id="Group_54">
<g id="Group_55">
<g id="Group_56">
<g id="Group_57">
<g id="Group_58">
<g id="Group_59">
<g id="Group_60">
<g id="Group_61">
<g id="Group_62">
<path id="Vector_36" d="M126.3 20.1C126 20.7 126.3 21.3 126.9 21.6C127.5 21.9 128.2 21.7 128.4 21.1C128.7 20.5 128.4 19.8 127.9 19.6C127.3 19.3 126.6 19.5 126.3 20.1Z" fill="#263238"/>
</g>
</g>
</g>
</g>
</g>
</g>
</g>
<g id="Group_63">
<g id="Group_64">
<g id="Group_65">
<g id="Group_66">
<g id="Group_67">
<g id="Group_68">
<g id="Group_69">
<g id="Group_70">
<path id="Vector_37" d="M126.3 19.1C126.4 19.3 127.5 19.1 128.6 19.6C129.8 20.1 130.3 21.1 130.5 21C130.6 21 130.6 20.7 130.3 20.2C130.1 19.8 129.6 19.2 128.8 18.9C128.1 18.6 127.4 18.6 126.9 18.7C126.5 18.8 126.3 19 126.3 19.1Z" fill="#263238"/>
</g>
</g>
</g>
</g>
</g>
</g>
</g>
</g>
</g>
<g id="Group_71">
<g id="Group_72">
<g id="Group_73">
<g id="Group_74">
<g id="Group_75">
<g id="Group_76">
<g id="Group_77">
<g id="Group_78">
<path id="Vector_38" d="M137.1 25.4C136.8 26 137.1 26.6 137.7 26.9C138.3 27.2 139 27 139.2 26.4C139.5 25.8 139.2 25.1 138.7 24.9C138.1 24.6 137.4 24.8 137.1 25.4Z" fill="#263238"/>
</g>
</g>
</g>
</g>
</g>
</g>
</g>
<g id="Group_79">
<g id="Group_80">
<g id="Group_81">
<g id="Group_82">
<g id="Group_83">
<g id="Group_84">
<g id="Group_85">
<g id="Group_86">
<path id="Vector_39" d="M137.6 24.4C137.7 24.6 138.8 24.4 139.9 24.9C141.1 25.4 141.6 26.4 141.8 26.3C141.9 26.3 141.9 26 141.6 25.5C141.4 25.1 140.9 24.5 140.1 24.2C139.4 23.9 138.7 23.9 138.2 24C137.8 24.1 137.6 24.3 137.6 24.4Z" fill="#263238"/>
</g>
</g>
</g>
</g>
</g>
</g>
</g>
</g>
</g>
<g id="Group_87">
<g id="Group_88">
<g id="Group_89">
<g id="Group_90">
<g id="Group_91">
<g id="Group_92">
<g id="Group_93">
<g id="Group_94">
<path id="Vector_40" d="M129.6 31.1C129.6 31 129 30.6 127.9 29.9C127.6 29.7 127.4 29.6 127.4 29.3C127.4 29.1 127.7 28.8 128 28.5C128.6 27.9 129.2 27.3 129.9 26.6C132.5 23.9 134.6 21.7 134.5 21.6C134.4 21.5 132.2 23.6 129.5 26.2C128.9 26.9 128.2 27.5 127.7 28.1C127.4 28.4 127.1 28.7 127 29.2C127 29.5 127.1 29.7 127.3 29.8C127.5 29.9 127.6 30 127.8 30.1C128.8 30.8 129.5 31.2 129.6 31.1Z" fill="#263238"/>
</g>
</g>
</g>
</g>
</g>
</g>
</g>
</g>
<g id="Group_95">
<g id="Group_96">
<g id="Group_97">
<g id="Group_98">
<g id="Group_99">
<g id="Group_100">
<g id="Group_101">
<g id="Group_102">
<path id="Vector_41" d="M132.6 33.4C132.4 33.3 131.9 34.6 130.4 35C128.9 35.4 127.7 34.7 127.6 34.8C127.5 34.9 127.8 35.2 128.3 35.4C128.8 35.7 129.7 35.9 130.6 35.6C131.5 35.3 132.1 34.7 132.4 34.2C132.7 33.8 132.7 33.5 132.6 33.4Z" fill="#263238"/>
</g>
</g>
</g>
</g>
</g>
</g>
</g>
</g>
</g>
</g>
</g>
<g id="Group_103">
<g id="Group_104">
<g id="Group_105">
<g id="Group_106">
<g id="Group_107">
<g id="Group_108">
<g id="Group_109">
<path id="Vector_42" d="M139.3 19.8C139.3 20.2 140.5 20.5 141.8 21.3C143.1 22 144 22.9 144.3 22.7C144.4 22.6 144.4 22.2 144.1 21.7C143.8 21.2 143.2 20.6 142.5 20.1C141.7 19.6 140.9 19.4 140.3 19.4C139.7 19.4 139.4 19.6 139.3 19.8Z" fill="#263238"/>
</g>
</g>
</g>
</g>
</g>
</g>
</g>
<g id="Group_110">
<g id="Group_111">
<g id="Group_112">
<g id="Group_113">
<g id="Group_114">
<g id="Group_115">
<g id="Group_116">
<path id="Vector_43" d="M128.3 16C128.4 16.4 129.3 16.4 130.3 16.9C131.3 17.3 132 17.9 132.3 17.7C132.4 17.6 132.4 17.3 132.2 16.9C132 16.5 131.5 16 130.8 15.8C130.1 15.5 129.5 15.5 129 15.6C128.5 15.6 128.2 15.8 128.3 16Z" fill="#263238"/>
</g>
</g>
</g>
</g>
</g>
</g>
</g>
</g>
</g>
<g id="Group_117">
<g id="Group_118">
<g id="Group_119">
<g id="Group_120">
<g id="Group_121">
<g id="Group_122">
<g id="Group_123">
<g id="Group_124">
<path id="Vector_44" d="M148.1 33.8C148.3 33.8 153.9 34.6 151.5 39.6C149 44.7 144.5 41.1 144.5 41C144.5 40.9 148.1 33.8 148.1 33.8Z" fill="#FFBE9D"/>
</g>
</g>
</g>
</g>
</g>
</g>
</g>
<g id="Group_125">
<g id="Group_126">
<g id="Group_127">
<g id="Group_128">
<g id="Group_129">
<g id="Group_130">
<g id="Group_131">
<g id="Group_132">
<path id="Vector_45" d="M147 39.9C147 39.9 147.1 40 147.2 40.1C147.3 40.2 147.5 40.4 147.9 40.4C148.5 40.5 149.4 39.8 149.9 38.9C150.1 38.4 150.3 38 150.3 37.5C150.3 37.1 150.2 36.7 150 36.5C149.8 36.3 149.5 36.4 149.4 36.5C149.3 36.6 149.2 36.7 149.2 36.7C149.2 36.7 149.1 36.6 149.3 36.4C149.4 36.3 149.5 36.2 149.7 36.2C149.9 36.2 150.1 36.2 150.3 36.3C150.7 36.5 150.9 37 150.8 37.5C150.8 38 150.7 38.6 150.4 39.1C149.9 40.1 148.9 40.8 148 40.7C147.6 40.6 147.4 40.4 147.3 40.2C146.9 40.1 146.9 39.9 147 39.9Z" fill="#EB996E"/>
</g>
</g>
</g>
</g>
</g>
</g>
</g>
</g>
</g>
</g>
</g>
<g id="Group_133">
<g id="Group_134">
<g id="Group_135">
<path id="Vector_46" d="M151 34.9C150.3 34.4 148.6 34.5 148 35.1C147.3 35.7 146.9 36.5 146.2 37.1C145.5 37.7 144.5 38 143.8 37.5C143.3 37.1 143.2 36.4 143.3 35.8C143.4 35.2 143.7 34.7 144 34.1C145.4 31.8 146.9 29.7 148.1 27.3C149.3 24.9 150.1 22.3 149.7 19.6C149.4 17 147.7 14.4 145.2 13.5C143.5 12.9 141.7 13.1 140 12.6C138 12 136.3 10.5 135.6 8.49999C135.5 8.29999 134.9 7.39999 134.9 7.39999C135 7.29999 135.6 6.29999 136.2 6.09999C140.7 4.59999 146.7 6.29999 150.4 9.19999C154.1 12.1 156.7 16.8 156.7 21.5C156.7 26.3 153.8 31.4 151 34.9Z" fill="#263238"/>
</g>
</g>
</g>
</g>
<g id="Group_136">
<path id="Vector_47" d="M151.1 34.4C152.5 32 154.8 30.3 156.5 28.1C158.2 25.9 159.4 22.9 158.2 20.4C157.8 19.6 157.1 18.8 156.7 18C156.3 17.1 156.3 16.1 156.2 15.2C155.8 12.3 153.9 9.59999 151.4 8.19999C149.6 7.19999 147.6 6.79999 145.8 5.89999C142.9 4.39999 140.9 1.59999 137.9 0.399993C136.9 -7.06315e-06 135.7 -0.200009 134.8 0.299991C133.8 0.799991 133.3 2.19999 134 2.99999C133.9 1.99999 132.6 1.49999 131.8 1.89999C130.9 2.29999 130.5 3.29999 130.5 4.29999C130.6 5.29999 131 6.19999 131.6 6.89999C133.4 9.49999 136.2 11.4 139.3 12.2L146.2 11.7L151.9 15.9L156.1 22.6L148.5 32.5L151.1 34.4Z" fill="#263238"/>
</g>
</g>
</g>
</g>
</svg>
