<svg width="14" height="43" viewBox="0 0 14 43" fill="none" xmlns="http://www.w3.org/2000/svg">
<g id="pencil">
<g id="Group">
<path id="Vector" d="M7.70228 42.2392H6.20228C3.20228 42.2392 0.802277 39.8392 0.802277 36.8392V11.4392H13.1023V36.7392C13.1023 39.7392 10.7023 42.2392 7.70228 42.2392Z" fill="#98FF98"/>
<path id="Vector_2" d="M0.802277 11.4392L7.00227 0.139221L13.1023 11.4392H0.802277Z" fill="#FFBE9D"/>
<path id="Vector_3" d="M4.50227 4.63922C4.50227 4.63922 6.40228 7.43922 9.40228 4.63922L7.00227 0.139221L4.50227 4.63922Z" fill="#98FF98"/>
</g>
<g id="Group_2">
<path id="Vector_4" d="M13.3023 35.5392C13.3023 35.6392 10.5023 35.7392 7.10227 35.7392C3.60227 35.7392 0.902275 35.6392 0.902275 35.5392C0.902275 35.4392 3.70227 35.3392 7.10227 35.3392C10.5023 35.3392 13.3023 35.4392 13.3023 35.5392Z" fill="#263238"/>
</g>
<g id="Group_3">
<path id="Vector_5" d="M13.2023 33.6392C13.2023 33.7392 10.5023 33.8392 7.10227 33.8392C3.70227 33.8392 1.00227 33.7392 1.00227 33.6392C1.00227 33.5392 3.70227 33.4392 7.10227 33.4392C10.4023 33.4392 13.2023 33.5392 13.2023 33.6392Z" fill="#263238"/>
</g>
<g id="Group_4">
<path id="Vector_6" d="M4.40228 11.6392C4.50228 11.6392 4.60227 16.5392 4.60227 22.6392C4.60227 28.7392 4.50228 33.6392 4.40228 33.6392C4.30228 33.6392 4.20228 28.7392 4.20228 22.6392C4.20228 16.5392 4.30228 11.6392 4.40228 11.6392Z" fill="#FAFAFA"/>
</g>
<g id="Group_5">
<path id="Vector_7" d="M9.40228 11.6392C9.50228 11.6392 9.60227 16.5392 9.60227 22.6392C9.60227 28.7392 9.50228 33.6392 9.40228 33.6392C9.30228 33.6392 9.20228 28.7392 9.20228 22.6392C9.20228 16.5392 9.30228 11.6392 9.40228 11.6392Z" fill="#FAFAFA"/>
</g>
</g>
</svg>
