<svg width="68" height="53" viewBox="0 0 68 53" fill="none" xmlns="http://www.w3.org/2000/svg">
<g id="planet">
<g id="Group">
<g id="Group_2">
<g id="Group_3">
<g id="Group_4">
<g id="Group_5">
<path id="Vector" d="M33.4 46.8C44.3905 46.8 53.3 37.8905 53.3 26.9C53.3 15.9095 44.3905 7 33.4 7C22.4095 7 13.5 15.9095 13.5 26.9C13.5 37.8905 22.4095 46.8 33.4 46.8Z" fill="#98FF98"/>
</g>
</g>
</g>
</g>
<g id="Group_6" opacity="0.3">
<g id="Group_7" opacity="0.3">
<g id="Group_8" opacity="0.3">
<g id="Group_9" opacity="0.3">
<path id="Vector_2" opacity="0.3" d="M30.8 33.1C30.8 34.9 29.3 36.4 27.5 36.4C25.7 36.4 24.2 34.9 24.2 33.1C24.2 31.3 25.7 29.8 27.5 29.8C29.4 29.9 30.8 31.3 30.8 33.1Z" fill="white"/>
</g>
</g>
</g>
</g>
<g id="Group_10" opacity="0.3">
<g id="Group_11" opacity="0.3">
<g id="Group_12" opacity="0.3">
<g id="Group_13" opacity="0.3">
<path id="Vector_3" opacity="0.3" d="M26.2 23.7C26.2 24.7 25.4 25.6 24.3 25.6C23.3 25.6 22.4 24.8 22.4 23.7C22.4 22.7 23.2 21.8 24.3 21.8C25.4 21.8 26.2 22.7 26.2 23.7Z" fill="white"/>
</g>
</g>
</g>
</g>
</g>
<g id="Group_14">
<g id="Group_15">
<g id="Group_16">
<g id="Group_17">
<path id="Vector_4" d="M14.1 31.8C14.2 32.1 -3.00001 48.6 1.49999 52.1C5.89999 55.6 24.5 46.6 40.4 33.8C56.3 21 70.8 5.4 66.8 1.3C62.8 -2.8 43 9.39999 43 9.39999L45.4 10.9C45.4 10.9 57.4 3.19999 61.2 6.19999C65 9.19999 54.2 20.8 38.9 32C23.6 43.1 8.89999 50.9 6.59999 47.9C4.29999 44.8 15.1 34.7 15.1 34.7L14.1 31.8Z" fill="#98FF98"/>
</g>
</g>
</g>
</g>
<g id="Group_18" opacity="0.3">
<g id="Group_19" opacity="0.3">
<g id="Group_20" opacity="0.3">
<g id="Group_21" opacity="0.3">
<path id="Vector_5" opacity="0.3" d="M14.1 31.8C14.2 32.1 -3.00001 48.6 1.49999 52.1C5.89999 55.6 24.5 46.6 40.4 33.8C56.3 21 70.8 5.4 66.8 1.3C62.8 -2.8 43 9.39999 43 9.39999L45.4 10.9C45.4 10.9 57.4 3.19999 61.2 6.19999C65 9.19999 54.2 20.8 38.9 32C23.6 43.1 8.89999 50.9 6.59999 47.9C4.29999 44.8 15.1 34.7 15.1 34.7L14.1 31.8Z" fill="#98FF98"/>
</g>
</g>
</g>
</g>
<g id="Group_22" opacity="0.3">
<g id="Group_23" opacity="0.3">
<g id="Group_24" opacity="0.3">
<g id="Group_25" opacity="0.3">
<g id="Group_26" opacity="0.3">
<path id="Vector_6" opacity="0.3" d="M22.4 12.9C22.6 13.1 21.2 14.2 19.7 16.5C18.2 18.8 16.6 22.4 16.5 26.5C16.4 30.7 17.9 34.3 19.3 36.6C20.7 39 22 40.2 21.9 40.3C21.8 40.4 20.2 39.5 18.4 37.2C17.5 36 16.6 34.5 16 32.7C15.3 30.9 14.9 28.7 15 26.5C15.1 24.2 15.5 22.1 16.3 20.3C17 18.5 18 17 18.9 15.9C20.7 13.6 22.3 12.7 22.4 12.9Z" fill="white"/>
</g>
</g>
</g>
</g>
</g>
</g>
</svg>
