<svg width="321" height="419" viewBox="0 0 321 419" fill="none" xmlns="http://www.w3.org/2000/svg">
<g id="sfondo">
<g id="Group">
<g id="Group_2">
<g id="Group_3">
<g id="Group_4">
<g id="Group_5">
<g id="Group_6">
<path id="Vector" d="M216.4 57.1H282.2C282.2 57.1 276.4 46.5 259.5 48.1C243.3 49.6 242.5 42.9 234.3 42.1C226 41.2 219.1 47.5 216.4 57.1Z" fill="#E0E0E0"/>
</g>
</g>
</g>
</g>
</g>
</g>
<g id="Group_7">
<g id="Group_8">
<g id="Group_9">
<path id="Vector_2" d="M44.5 230.9C44.5 230.9 37.9 234.5 47.5 248.2C57.1 262 63.3 268.6 63.3 268.6C63.3 268.6 65.1 271.9 62.3 272.8C59.5 273.7 53 273.6 52.2 277.3C51.4 281.2 54.5 284.2 60.3 286.5C66.1 288.8 78.7 294.3 79.8 294.8C80.9 295.3 82.2 296.7 80.3 297.7C78.5 298.6 64.4 302.1 66.4 308.7C68.4 315.3 85.7 319 87.6 319.5C89.5 319.9 90 320.6 90 321.6C90 322.6 85.1 323.3 81.2 324.5C77.2 325.7 72.8 327.7 74.3 331.4C75.8 335.1 86.7 341.8 110.6 340.9L121.7 339.7L126.4 329.6C135.2 307.3 132.4 294.8 129.4 292.2C126.4 289.6 123 293.1 120.6 296.4C118.2 299.8 115.9 304.1 115 303.8C114.1 303.5 113.6 302.7 113.8 300.8C114 298.9 116.2 281.3 110.6 277.2C105 273.1 97.1 285.3 95.6 286.7C94.1 288.1 93.1 286.4 93 285.2C92.9 284 91.9 270.3 91.6 264C91.4 257.7 89.5 253.8 85.5 253.3C81.7 252.8 79.7 259 77.9 261.4C76.1 263.8 73.6 261 73.6 261C73.6 261 69.4 252.9 59.6 239.4C49.8 225.8 44.1 231 44.1 231" fill="#EBEBEB"/>
</g>
<g id="Group_10">
<g id="Group_11">
<path id="Vector_3" d="M122.8 342.2C115.6 332.2 103.1 314.2 92.4 298.8C81.6 283.4 71.8 269.5 64.7 259.5C61.1 254.5 58.2 250.4 56.2 247.6C55.2 246.2 54.4 245.1 53.9 244.4C53.6 244 53.5 243.8 53.3 243.6C53.2 243.4 53.1 243.3 53.1 243.3C53.1 243.3 53.2 243.4 53.3 243.6C53.4 243.8 53.7 244.1 53.9 244.4C54.4 245.1 55.2 246.2 56.3 247.6C58.3 250.4 61.3 254.4 64.9 259.4C72.1 269.4 81.9 283.3 92.7 298.7C103.5 314.1 115.9 332.1 123.1 342.1" fill="#E0E0E0"/>
</g>
</g>
<g id="Group_12">
<g id="Group_13">
<path id="Vector_4" d="M61.3 277.8C61.3 277.8 61.6 277.8 62.1 277.9C62.6 278 63.3 278.1 64.2 278.3C66 278.7 68.5 279.3 71.2 280C73.9 280.7 76.3 281.4 78.2 281.9C79 282.1 79.7 282.3 80.3 282.5C80.8 282.6 81.1 282.7 81.1 282.7C81.1 282.7 80.8 282.7 80.3 282.6C79.8 282.5 79.1 282.4 78.2 282.2C76.4 281.8 73.9 281.1 71.2 280.4C68.5 279.7 66.1 279.1 64.2 278.6C63.4 278.4 62.6 278.2 62.1 278.1C61.6 277.9 61.3 277.9 61.3 277.8Z" fill="#E0E0E0"/>
</g>
</g>
<g id="Group_14">
<g id="Group_15">
<path id="Vector_5" d="M81.8 281.9C81.7 281.9 82.7 276.7 84.1 270.3C85.5 263.9 86.6 258.8 86.7 258.8C86.8 258.8 85.8 264 84.4 270.4C83.1 276.8 81.9 282 81.8 281.9Z" fill="#E0E0E0"/>
</g>
</g>
<g id="Group_16">
<g id="Group_17">
<path id="Vector_6" d="M97.3 306.3C97.3 306.3 97.4 306 97.7 305.6C98 305.1 98.3 304.4 98.8 303.6C99.7 301.9 100.9 299.6 102.2 297C103.5 294.4 104.5 292 105.3 290.3C105.7 289.5 106 288.8 106.2 288.3C106.4 287.8 106.5 287.6 106.6 287.6C106.6 287.6 106.5 287.9 106.4 288.4C106.2 288.9 106 289.6 105.6 290.5C104.9 292.3 103.9 294.7 102.6 297.3C101.3 299.9 100.1 302.2 99.1 303.8C98.6 304.6 98.2 305.3 97.9 305.7C97.5 306.1 97.4 306.3 97.3 306.3Z" fill="#E0E0E0"/>
</g>
</g>
<g id="Group_18">
<g id="Group_19">
<path id="Vector_7" d="M78 306.7C78 306.7 78.3 306.6 78.8 306.6C79.4 306.6 80.1 306.5 80.9 306.5C82.6 306.4 85.1 306.3 87.7 306.2C90.4 306.1 92.8 306.1 94.5 306C95.3 306 96 306 96.6 306C97.1 306 97.4 306 97.4 306C97.4 306 97.1 306.1 96.6 306.1C96 306.1 95.3 306.2 94.5 306.2C92.8 306.3 90.3 306.4 87.7 306.5C85 306.6 82.6 306.6 80.9 306.7C80.1 306.7 79.4 306.7 78.8 306.7C78.2 306.7 78 306.7 78 306.7Z" fill="#E0E0E0"/>
</g>
</g>
<g id="Group_20">
<g id="Group_21">
<path id="Vector_8" d="M88.9 329.9C88.9 329.9 89.2 329.8 89.9 329.8C90.6 329.8 91.5 329.7 92.5 329.6C94.7 329.5 97.8 329.3 101.2 329.2C104.6 329.1 107.7 329 109.9 328.9C111 328.9 111.9 328.9 112.5 328.8C113.1 328.8 113.5 328.8 113.5 328.8C113.5 328.8 113.2 328.9 112.5 328.9C111.8 328.9 110.9 329 109.9 329.1C107.7 329.2 104.6 329.4 101.2 329.5C97.8 329.6 94.7 329.7 92.5 329.8C91.4 329.8 90.5 329.8 89.9 329.9C89.3 330 88.9 330 88.9 329.9Z" fill="#E0E0E0"/>
</g>
</g>
<g id="Group_22">
<g id="Group_23">
<path id="Vector_9" d="M113 328.8C113 328.8 113.1 328.5 113.4 327.8C113.7 327.1 114.1 326.3 114.7 325.3C115.8 323.2 117.2 320.2 118.7 316.8C120.2 313.5 121.5 310.4 122.4 308.2C122.8 307.1 123.2 306.3 123.5 305.6C123.8 305 123.9 304.6 123.9 304.7C123.9 304.7 123.8 305.1 123.6 305.7C123.4 306.3 123 307.2 122.6 308.4C121.7 310.6 120.5 313.7 119 317C117.5 320.3 116 323.3 114.9 325.4C114.3 326.5 113.9 327.3 113.5 327.9C113.2 328.5 113 328.8 113 328.8Z" fill="#E0E0E0"/>
</g>
</g>
</g>
<g id="Group_24">
<g id="Group_25">
<g id="Group_26">
<g id="Group_27">
<g id="Group_28">
<path id="Vector_10" d="M206 181.2C194.1 167.9 195.2 148.6 199.7 132.1C200.5 129.3 200.8 126.3 202.7 124.2C204.6 122.1 208.1 121.1 210.3 122.9C212.1 124.4 212.5 127 213.1 129.2C214 132.2 215.8 134.9 218.1 137C219.7 138.3 221.7 139.4 223.7 138.9C226.4 138.1 227.5 134.9 228.1 132.1C229.3 126.9 230.5 121.8 231.7 116.6C232.3 113.8 233 111 234.5 108.6C236 106.2 238.5 104.2 241.3 104.1C244.1 104 247 106.3 246.9 109.1C246.9 110.3 246.4 111.4 246.2 112.6C246 113.8 246.2 115.2 247.3 115.7C248.3 116.3 249.6 115.8 250.6 115.2C254.1 113.1 256.9 110 259.5 106.8C262.2 103.7 264.8 100.4 268.1 98C271.4 95.6 275.6 94 279.6 94.7C283.6 95.4 287.2 98.9 287.3 103C287.4 107.1 284.2 110.5 281 113.1C276.2 116.9 270.9 120 265.3 122.3C264.3 122.7 263.2 123.2 262.6 124.1C261.6 125.8 262.9 128 264.5 129.1C266.4 130.3 268.7 130.6 270.8 131.4C272.9 132.2 275 133.7 275.3 135.9C275.8 139 272.7 141.4 269.9 142.8C264.3 145.6 258.3 147.4 252.1 148.1C249.9 148.4 247.6 148.5 245.6 149.5C243.6 150.5 242 152.8 242.6 155C243.1 157.2 245.5 158.4 247.7 158.5C249.9 158.6 252.1 157.9 254.3 157.6C258.4 157.1 263.3 158.5 264.9 162.3C266 164.8 265.4 167.9 264 170.2C262.6 172.6 260.4 174.4 258.2 176C250.4 181.7 241.3 185.6 231.8 186.6C222.4 187.6 214 186.5 206 181.2Z" fill="#F5F5F5"/>
</g>
</g>
</g>
</g>
<g id="Group_29">
<g id="Group_30">
<g id="Group_31">
<g id="Group_32">
<g id="Group_33">
<path id="Vector_11" d="M208.4 182.8C210.6 176.4 208.3 179.6 212.8 171.8C217.2 164 222.8 155.8 228.9 147.5C230.4 145.4 232 143.4 233.5 141.3C235 139.3 236.5 137.3 238.1 135.4C241.2 131.7 244.5 128.3 247.8 125.2C251 122.1 254.2 119.3 257.2 116.7C260.2 114.1 263 111.7 265.7 109.6C271.1 105.5 275.8 102.6 279.1 100.8C280.8 99.9 282.1 99.2 283 98.8C283.4 98.6 283.8 98.4 284 98.3C284.2 98.2 284.4 98.1 284.4 98.1C284.4 98.1 284.3 98.2 284.1 98.3C283.9 98.4 283.5 98.6 283.1 98.8C282.2 99.3 280.9 100 279.3 100.9C276 102.8 271.4 105.6 266.1 109.8C263.4 111.9 260.6 114.3 257.6 116.9C254.6 119.5 251.5 122.4 248.2 125.5C245 128.6 241.7 132 238.6 135.7C237 137.6 235.6 139.5 234.1 141.6C232.6 143.6 231.1 145.7 229.5 147.8C223.4 156.1 217.8 164.3 213.4 172C208.9 179.8 211.2 176.5 209 182.9" fill="#E0E0E0"/>
</g>
</g>
</g>
</g>
</g>
<g id="Group_34">
<g id="Group_35">
<g id="Group_36">
<g id="Group_37">
<g id="Group_38">
<path id="Vector_12" d="M238.2 135.5C238.2 135.5 238.2 135.1 238.2 134.3C238.2 133.5 238.3 132.4 238.5 130.9C238.8 128.1 239.3 124.1 239.8 119.8C240.4 115.5 240.8 111.6 241 108.7C241.1 107.3 241.2 106.1 241.2 105.3C241.2 104.5 241.3 104.1 241.3 104.1C241.3 104.1 241.4 104.5 241.4 105.3C241.4 106.1 241.4 107.3 241.3 108.7C241.2 111.6 240.8 115.5 240.2 119.8C239.6 124.1 239.1 127.9 238.7 130.8C238.5 132.1 238.4 133.2 238.3 134.1C238.3 135 238.2 135.5 238.2 135.5Z" fill="#E0E0E0"/>
</g>
</g>
</g>
</g>
</g>
<g id="Group_39">
<g id="Group_40">
<g id="Group_41">
<g id="Group_42">
<g id="Group_43">
<path id="Vector_13" d="M275.3 137.2C275.3 137.2 274.8 137.2 273.8 137C272.9 136.9 271.5 136.7 269.9 136.5C266.6 136.1 261.9 135.7 256.8 135.4C251.7 135.2 247 135.2 243.7 135.3C242 135.3 240.7 135.4 239.7 135.4C238.8 135.4 238.2 135.4 238.2 135.4C238.2 135.4 238.7 135.3 239.7 135.2C240.6 135.1 242 135 243.7 134.9C247.1 134.7 251.7 134.7 256.9 134.9C262 135.1 266.7 135.6 270 136.1C271.7 136.3 273 136.6 273.9 136.8C274.8 137.1 275.3 137.2 275.3 137.2Z" fill="#E0E0E0"/>
</g>
</g>
</g>
</g>
</g>
<g id="Group_44">
<g id="Group_45">
<g id="Group_46">
<g id="Group_47">
<g id="Group_48">
<path id="Vector_14" d="M213.4 171.3C213.4 171.3 213.3 171.1 213.3 170.8C213.2 170.4 213.1 169.9 213 169.4C212.7 168.2 212.4 166.4 212 164.1C211.3 159.6 210.4 153.4 209.6 146.6C208.8 139.7 208 133.5 207.3 129C207 126.8 206.7 125 206.5 123.7C206.4 123.1 206.3 122.6 206.3 122.3C206.3 122 206.2 121.8 206.3 121.8C206.3 121.8 206.4 122 206.4 122.3C206.5 122.7 206.6 123.2 206.7 123.7C207 124.9 207.3 126.7 207.7 129C208.4 133.5 209.3 139.7 210.1 146.6C210.9 153.5 211.7 159.7 212.4 164.2C212.7 166.4 213 168.2 213.2 169.5C213.3 170.1 213.4 170.6 213.4 170.9C213.4 171.1 213.4 171.3 213.4 171.3Z" fill="#E0E0E0"/>
</g>
</g>
</g>
</g>
</g>
<g id="Group_49">
<g id="Group_50">
<g id="Group_51">
<g id="Group_52">
<g id="Group_53">
<path id="Vector_15" d="M264.1 167.2C264.1 167.2 263.9 167.2 263.6 167.3C263.2 167.3 262.7 167.4 262.1 167.4C260.7 167.5 258.9 167.7 256.7 167.8C252.1 168.2 245.8 168.8 238.8 169.4C231.8 170.1 225.4 170.6 220.8 170.9C218.5 171 216.6 171.1 215.3 171.2C214.7 171.2 214.2 171.2 213.8 171.2C213.5 171.2 213.3 171.2 213.3 171.2C213.3 171.2 213.5 171.2 213.8 171.1C214.2 171.1 214.7 171 215.3 171C216.7 170.9 218.5 170.7 220.7 170.6C225.3 170.2 231.6 169.6 238.6 169C245.6 168.3 251.9 167.8 256.6 167.5C258.9 167.4 260.8 167.3 262.1 167.2C262.7 167.2 263.2 167.2 263.6 167.2C264 167.2 264.1 167.2 264.1 167.2Z" fill="#E0E0E0"/>
</g>
</g>
</g>
</g>
</g>
</g>
<g id="Group_54">
<g id="Group_55">
<g id="Group_56">
<g id="Group_57">
<g id="Group_58">
<g id="Group_59">
<path id="Vector_16" d="M303.5 269C303.5 269 303.5 269.2 303.3 269.5C303.2 269.8 303 270.3 302.8 270.8C302.3 272 301.6 273.7 300.7 275.8C298.8 280.1 296.2 286.3 293 293.6V293.7H292.9C285.8 294.9 277.5 296.2 268.7 297.7C265.9 298.2 263.2 298.6 260.6 299L260.2 299.1L260.3 298.7C262.3 290.9 264.1 283.7 265.6 277.6L265.7 277.8C259.8 275.2 254.9 273 251.5 271.4C249.8 270.6 248.5 270 247.6 269.6C247.2 269.4 246.8 269.2 246.6 269.1C246.4 269 246.3 268.9 246.3 268.9C246.3 268.9 246.4 268.9 246.7 269C247 269.1 247.3 269.3 247.7 269.4C248.6 269.8 250 270.4 251.7 271.1C255.2 272.6 260.1 274.7 266 277.3L266.2 277.4V277.6C264.7 283.7 262.9 290.9 260.9 298.7L260.6 298.4C263.2 298 266 297.5 268.7 297.1C277.5 295.7 285.8 294.3 292.9 293.2L292.7 293.3C295.9 286 298.6 279.9 300.6 275.5C301.6 273.4 302.3 271.7 302.8 270.5C303.1 270 303.3 269.5 303.4 269.2C303.4 269.1 303.5 269 303.5 269Z" fill="#E0E0E0"/>
</g>
</g>
</g>
</g>
</g>
<g id="Group_60">
<g id="Group_61">
<g id="Group_62">
<g id="Group_63">
<path id="Vector_17" d="M263.3 296.2L262.7 298L263.7 299.5L261.9 299.4L260.7 300.9L260.2 299.1L258.5 298.5L260 297.5L260.1 295.6L261.5 296.8L263.3 296.2Z" fill="#E0E0E0"/>
</g>
</g>
</g>
</g>
<g id="Group_64">
<g id="Group_65">
<g id="Group_66">
<g id="Group_67">
<path id="Vector_18" d="M246.7 268L246.4 268.9L246.9 269.6H246L245.4 270.3L245.2 269.4L244.3 269.1L245.1 268.6V267.7L245.8 268.3L246.7 268Z" fill="#E0E0E0"/>
</g>
</g>
</g>
</g>
<g id="Group_68">
<g id="Group_69">
<g id="Group_70">
<g id="Group_71">
<path id="Vector_19" d="M293.7 292.6L293.3 293.4L293.9 294.2L292.9 294.1L292.4 294.9L292.1 294L291.2 293.7L292 293.2V292.2L292.8 292.8L293.7 292.6Z" fill="#E0E0E0"/>
</g>
</g>
</g>
</g>
<g id="Group_72">
<g id="Group_73">
<g id="Group_74">
<g id="Group_75">
<path id="Vector_20" d="M266.5 277L266.2 277.8L266.7 278.6L265.8 278.5L265.3 279.3L265 278.4L264.1 278.1L264.9 277.6V276.6L265.7 277.2L266.5 277Z" fill="#E0E0E0"/>
</g>
</g>
</g>
</g>
<g id="Group_76">
<g id="Group_77">
<g id="Group_78">
<g id="Group_79">
<path id="Vector_21" d="M304.7 268.1L304.3 269L304.9 269.8L303.9 269.7L303.4 270.5L303.1 269.6L302.2 269.2L303 268.7V267.8L303.8 268.4L304.7 268.1Z" fill="#E0E0E0"/>
</g>
</g>
</g>
</g>
</g>
<g id="Group_80">
<g id="Group_81">
<g id="Group_82">
<g id="Group_83">
<g id="Group_84">
<g id="Group_85">
<path id="Vector_22" d="M1.60001 340.9H54C54 340.9 49.4 332.5 35.9 333.7C23 334.9 22.4 329.6 15.8 328.9C9.20001 328.2 3.70001 333.3 1.60001 340.9Z" fill="#E0E0E0"/>
</g>
</g>
</g>
</g>
</g>
</g>
<g id="Group_86">
<g id="Group_87">
<g id="Group_88">
<g id="Group_89">
<g id="Group_90">
<g id="Group_91">
<path id="Vector_23" d="M12 134.8H64.4C64.4 134.8 59.8 126.4 46.3 127.6C33.4 128.8 32.8 123.5 26.2 122.8C19.6 122.1 14.1 127.2 12 134.8Z" fill="#F5F5F5"/>
</g>
</g>
</g>
</g>
</g>
</g>
<g id="Group_92">
<g id="Group_93">
<g id="Group_94">
<g id="Group_95">
<g id="Group_96">
<g id="Group_97">
<path id="Vector_24" d="M277.8 171.2H320.8C320.8 171.2 317 164.3 305.9 165.3C295.3 166.3 294.8 161.9 289.4 161.4C284.1 160.8 279.6 164.9 277.8 171.2Z" fill="#F5F5F5"/>
</g>
</g>
</g>
</g>
</g>
</g>
</g>
<g id="Group_98">
<path id="Vector_25" d="M44.4023 47.8392C39.1023 43.9392 35.9023 37.3392 36.0023 30.7392C36.1023 24.1392 39.6023 17.6392 45.0023 13.9392C48.1023 11.8392 51.7023 10.5392 54.5023 8.03922C56.9023 5.73922 58.5023 2.63922 61.2023 0.739222C64.6023 -1.66078 69.5023 -1.56078 72.8023 0.939222C76.1023 3.43922 77.5023 8.13922 76.1023 12.0392C74.8023 15.5392 71.7023 18.1392 70.4023 21.6392C69.0023 25.4392 69.9023 29.6392 69.4023 33.5392C68.8023 38.4392 65.8023 42.9392 61.6023 45.5392C57.4023 48.0392 52.0023 48.5392 47.4023 46.8392" fill="#98FF98"/>
<g id="Group_99" opacity="0.8">
<path id="Vector_26" opacity="0.8" d="M44.4023 47.8392C39.1023 43.9392 35.9023 37.3392 36.0023 30.7392C36.1023 24.1392 39.6023 17.6392 45.0023 13.9392C48.1023 11.8392 51.7023 10.5392 54.5023 8.03922C56.9023 5.73922 58.5023 2.63922 61.2023 0.739222C64.6023 -1.66078 69.5023 -1.56078 72.8023 0.939222C76.1023 3.43922 77.5023 8.13922 76.1023 12.0392C74.8023 15.5392 71.7023 18.1392 70.4023 21.6392C69.0023 25.4392 69.9023 29.6392 69.4023 33.5392C68.8023 38.4392 65.8023 42.9392 61.6023 45.5392C57.4023 48.0392 52.0023 48.5392 47.4023 46.8392" fill="white"/>
</g>
</g>
<g id="Group_100">
<g id="Group_101">
<path id="Vector_27" d="M191.9 256.1C194 240 182.7 226.7 168.5 218.7C154.3 210.7 137.9 208 122.3 203.6C107.5 199.4 92.9 193.3 82 182.5C71.1 171.7 64.5 155.6 68.4 140.7C69.4 137 71.1 133.2 74.3 131.1C77.5 129 82.4 129 84.8 132C89.9 138.4 80 150 86.2 155.3C87.6 156.5 89.6 157 91 158.2C94.9 161.3 93.6 167.4 94.2 172.4C95.3 182.2 104.5 189.1 113.6 193.1C125.7 198.4 138.9 201 151.8 204.1C164.7 207.3 177.7 211.3 188.4 219.1C199.1 226.9 208.5 239.1 208.4 252.4C208.4 256.1 207.9 260.7 205.6 263.6C203.3 266.5 200.3 267.1 197 265.5C193.7 263.9 191.3 261.4 191.9 256.1Z" fill="#98FF98"/>
<g id="Group_102" opacity="0.8">
<path id="Vector_28" opacity="0.8" d="M191.9 256.1C194 240 182.7 226.7 168.5 218.7C154.3 210.7 137.9 208 122.3 203.6C107.5 199.4 92.9 193.3 82 182.5C71.1 171.7 64.5 155.6 68.4 140.7C69.4 137 71.1 133.2 74.3 131.1C77.5 129 82.4 129 84.8 132C89.9 138.4 80 150 86.2 155.3C87.6 156.5 89.6 157 91 158.2C94.9 161.3 93.6 167.4 94.2 172.4C95.3 182.2 104.5 189.1 113.6 193.1C125.7 198.4 138.9 201 151.8 204.1C164.7 207.3 177.7 211.3 188.4 219.1C199.1 226.9 208.5 239.1 208.4 252.4C208.4 256.1 207.9 260.7 205.6 263.6C203.3 266.5 200.3 267.1 197 265.5C193.7 263.9 191.3 261.4 191.9 256.1Z" fill="white"/>
</g>
</g>
<g id="Group_103">
<path id="Vector_29" d="M123.4 128C122.9 122 127.3 116.8 132.4 114C137.5 111.2 143.3 110.1 148.5 107.6C161.4 101.5 169.7 87 170.3 72.2C170.9 57.4 164.5 42.6 154.4 31.7C150.3 27.3 145.3 22.6 145.2 16.6C145.1 10.3 151.2 5.3 157.3 5.4C163.4 5.5 169 9.6 172.7 14.7C176.4 19.8 178.4 26 180.3 32C178.9 29.5 181.8 26.4 184.5 26.6C187.3 26.9 189.5 29.2 191.2 31.5C198.5 41.4 202.2 54.1 201.2 66.3C200.2 78.5 194.5 90.2 185.7 98.2C175.8 107.2 162.8 111.4 150.1 115.4C141.3 118.2 132.5 121 123.7 123.7" fill="#98FF98"/>
<g id="Group_104" opacity="0.8">
<path id="Vector_30" opacity="0.8" d="M123.4 128C122.9 122 127.3 116.8 132.4 114C137.5 111.2 143.3 110.1 148.5 107.6C161.4 101.5 169.7 87 170.3 72.2C170.9 57.4 164.5 42.6 154.4 31.7C150.3 27.3 145.3 22.6 145.2 16.6C145.1 10.3 151.2 5.3 157.3 5.4C163.4 5.5 169 9.6 172.7 14.7C176.4 19.8 178.4 26 180.3 32C178.9 29.5 181.8 26.4 184.5 26.6C187.3 26.9 189.5 29.2 191.2 31.5C198.5 41.4 202.2 54.1 201.2 66.3C200.2 78.5 194.5 90.2 185.7 98.2C175.8 107.2 162.8 111.4 150.1 115.4C141.3 118.2 132.5 121 123.7 123.7" fill="white"/>
</g>
</g>
<g id="Group_105">
<path id="Vector_31" d="M116.1 2.5C113.5 3.6 112 6.9 113 9.6C114 12.3 117.2 13.9 120 13C122.7 12.1 124.4 8.9 123.7 6.2C122.9 3.5 119.8 1.6 117.1 2.2" fill="#98FF98"/>
<g id="Group_106" opacity="0.8">
<path id="Vector_32" opacity="0.8" d="M116.1 2.5C113.5 3.6 112 6.9 113 9.6C114 12.3 117.2 13.9 120 13C122.7 12.1 124.4 8.9 123.7 6.2C122.9 3.5 119.8 1.6 117.1 2.2" fill="white"/>
</g>
</g>
</g>
<g id="Group_107">
<path id="Vector_33" d="M148.7 387.8C145.5 381.1 148.3 372.7 153.4 367.3C158.6 361.9 165.6 358.8 172.4 355.8C187.5 349.2 203.4 341.3 211 326.7C213.6 321.8 215.1 316.4 216.5 311C219.3 300.6 221.9 288.9 216.3 279.7C214.7 277.1 212.2 274.7 209.2 274.2C205.7 273.6 202.2 275.5 200 278.3C197.9 281.1 197 284.6 196.5 288.1C195.7 294.7 196.4 301.5 195.7 308.1C195 314.8 192.6 321.7 187.1 325.5C180.4 330.1 170.9 329.1 164.5 334C159.3 338 157.3 344.8 153.2 350C149.8 354.3 145 357.3 140.6 360.6C136.2 363.9 131.9 368 130.4 373.3C128.8 378.8 130.8 385.2 135.2 388.8C139.6 392.5 146.2 393.3 151.3 390.9" fill="#98FF98"/>
<g id="Group_108" opacity="0.8">
<path id="Vector_34" opacity="0.8" d="M148.7 387.8C145.5 381.1 148.3 372.7 153.4 367.3C158.6 361.9 165.6 358.8 172.4 355.8C187.5 349.2 203.4 341.3 211 326.7C213.6 321.8 215.1 316.4 216.5 311C219.3 300.6 221.9 288.9 216.3 279.7C214.7 277.1 212.2 274.7 209.2 274.2C205.7 273.6 202.2 275.5 200 278.3C197.9 281.1 197 284.6 196.5 288.1C195.7 294.7 196.4 301.5 195.7 308.1C195 314.8 192.6 321.7 187.1 325.5C180.4 330.1 170.9 329.1 164.5 334C159.3 338 157.3 344.8 153.2 350C149.8 354.3 145 357.3 140.6 360.6C136.2 363.9 131.9 368 130.4 373.3C128.8 378.8 130.8 385.2 135.2 388.8C139.6 392.5 146.2 393.3 151.3 390.9" fill="white"/>
</g>
</g>
<g id="Group_109">
<g id="Group_110">
<g id="Group_111">
<g id="Group_112">
<path id="Vector_35" d="M60 303.2L60.6 304.2C61.3 305.3 62.3 306.2 63.4 306.8L64.4 307.3L63.4 307.9C62.3 308.6 61.4 309.6 60.8 310.7L60.3 311.7L59.7 310.7C59 309.6 58 308.7 56.9 308.1L55.9 307.6L56.9 307C58 306.3 58.9 305.3 59.5 304.2L60 303.2Z" fill="#98FF98"/>
</g>
</g>
</g>
</g>
<g id="Group_113">
<g id="Group_114">
<g id="Group_115">
<g id="Group_116">
<path id="Vector_36" d="M4.6 96.9L5.2 97.9C5.9 99 6.9 99.9 8 100.5L9 101L8 101.6C6.9 102.3 6 103.3 5.4 104.4L4.9 105.4L4.3 104.4C3.6 103.3 2.6 102.4 1.5 101.8L0.5 101.3L1.5 100.7C2.6 100 3.5 99 4.1 97.9L4.6 96.9Z" fill="#98FF98"/>
</g>
</g>
</g>
</g>
<g id="Group_117">
<g id="Group_118">
<g id="Group_119">
<g id="Group_120">
<path id="Vector_37" d="M261.2 132.5L261.8 133.5C262.5 134.6 263.5 135.5 264.6 136.1L265.6 136.6L264.6 137.2C263.5 137.9 262.6 138.9 262 140L261.5 141L260.9 140C260.2 138.9 259.2 138 258.1 137.4L257.1 136.9L258.1 136.3C259.2 135.6 260.1 134.6 260.7 133.5L261.2 132.5Z" fill="#98FF98"/>
</g>
</g>
</g>
</g>
<g id="Group_121">
<g id="Group_122">
<g id="Group_123">
<g id="Group_124">
<path id="Vector_38" d="M230.9 316.1L231.5 317.1C232.2 318.2 233.2 319.1 234.3 319.7L235.3 320.2L234.3 320.8C233.2 321.5 232.3 322.5 231.7 323.6L231.2 324.6L230.6 323.6C229.9 322.5 228.9 321.6 227.8 321L226.8 320.5L227.8 319.9C228.9 319.2 229.8 318.2 230.4 317.1L230.9 316.1Z" fill="#98FF98"/>
</g>
</g>
</g>
</g>
<g id="Group_125">
<g id="Group_126">
<g id="Group_127">
<g id="Group_128">
<path id="Vector_39" d="M236.6 354.7L236.9 354.8C237.2 354.9 237.6 355 237.9 354.9L238.2 354.8L238.1 355.1C238 355.4 237.9 355.8 238 356.1L238.1 356.4L237.8 356.3C237.5 356.2 237.1 356.1 236.8 356.2L236.5 356.3L236.6 356C236.7 355.7 236.8 355.3 236.7 355L236.6 354.7Z" fill="#E8505B"/>
</g>
</g>
</g>
</g>
<g id="Group_129">
<g id="Group_130">
<g id="Group_131">
<g id="Group_132">
<path id="Vector_40" d="M254.1 93.8L254.4 93.9C254.7 94 255.1 94.1 255.4 94L255.7 93.9L255.6 94.2C255.5 94.5 255.4 94.9 255.5 95.2L255.6 95.5L255.3 95.4C255 95.3 254.6 95.2 254.3 95.3L254 95.4L254.1 95.1C254.2 94.8 254.3 94.4 254.2 94.1L254.1 93.8Z" fill="#E8505B"/>
</g>
</g>
</g>
</g>
<g id="Group_133">
<g id="Group_134">
<g id="Group_135">
<g id="Group_136">
<path id="Vector_41" d="M15.8 70L16.1 70.1C16.4 70.2 16.8 70.3 17.1 70.2L17.4 70.1L17.3 70.4C17.2 70.7 17.1 71.1 17.2 71.4L17.3 71.7L17 71.6C16.7 71.5 16.3 71.4 16 71.5L15.7 71.6L15.8 71.3C15.9 71 16 70.6 15.9 70.3L15.8 70Z" fill="#E8505B"/>
</g>
</g>
</g>
</g>
<g id="Group_137">
<g id="Group_138">
<g id="Group_139">
<g id="Group_140">
<path id="Vector_42" d="M45.2 273.2L45.5 273.3C45.8 273.4 46.2 273.5 46.5 273.4L46.8 273.3L46.7 273.6C46.6 273.9 46.5 274.3 46.6 274.6L46.7 274.9L46.4 274.8C46.1 274.7 45.7 274.6 45.4 274.7L45.1 274.8L45.2 274.5C45.3 274.2 45.4 273.8 45.3 273.5L45.2 273.2Z" fill="#E8505B"/>
</g>
</g>
</g>
</g>
<g id="Group_141">
<g id="Group_142">
<g id="Group_143">
<g id="Group_144">
<g id="Group_145">
<g id="Group_146">
<path id="Vector_43" d="M77.1 351.7C77.1 351.7 77 351.8 76.8 352C76.6 352.2 76.3 352.5 76 352.8C75.2 353.5 74.2 354.6 72.8 355.9C70 358.6 65.9 362.6 60.8 367.5V367.4C61.4 379.9 62.1 397 63 416V416.4L62.6 416.2C61.2 415.3 59.8 414.3 58.3 413.3C48.4 406.7 39.1 400.4 30.9 394.9H30.8V394.8C26.7 382.6 23.3 372.3 20.8 365C19.6 361.4 18.7 358.5 18 356.5C17.7 355.5 17.4 354.8 17.3 354.3C17.2 354.1 17.2 353.9 17.1 353.7C17.1 353.6 17 353.5 17 353.5C17 353.5 17 353.6 17.1 353.7C17.2 353.8 17.2 354 17.3 354.3C17.5 354.8 17.7 355.6 18.1 356.5C18.8 358.5 19.8 361.3 21 364.9C23.5 372.2 27 382.5 31.1 394.7L31 394.6C39.2 400.1 48.6 406.3 58.5 412.9C60 413.9 61.5 414.9 62.8 415.8L62.5 416C61.7 397 61 380 60.4 367.4V367.3H60.5C65.6 362.5 69.7 358.6 72.6 355.8C74 354.5 75.1 353.4 75.9 352.7C76.3 352.4 76.6 352.1 76.8 351.9C77 351.8 77.1 351.7 77.1 351.7Z" fill="#98FF98"/>
</g>
</g>
</g>
</g>
</g>
<g id="Group_147">
<g id="Group_148">
<g id="Group_149">
<g id="Group_150">
<path id="Vector_44" d="M64.3 410.2V413.1L66.5 414.8L63.8 415.5L62.9 418.2L61.3 415.9H58.5L60.2 413.6L59.4 410.9L62 411.9L64.3 410.2Z" fill="#98FF98"/>
</g>
</g>
</g>
</g>
<g id="Group_151">
<g id="Group_152">
<g id="Group_153">
<g id="Group_154">
<path id="Vector_45" d="M31.3 391V392.9L32.9 393.9L31.2 394.5L30.7 396.2L29.6 394.8L27.7 394.9L28.8 393.4L28.1 391.7L29.9 392.2L31.3 391Z" fill="#98FF98"/>
</g>
</g>
</g>
</g>
<g id="Group_155">
<g id="Group_156">
<g id="Group_157">
<g id="Group_158">
<path id="Vector_46" d="M17 350.1L18.4 351.9L20.7 351.7L19.4 353.6L20.2 355.7L18.1 355.1L16.3 356.5V354.3L14.4 353L16.5 352.3L17 350.1Z" fill="#98FF98"/>
</g>
</g>
</g>
</g>
<g id="Group_159">
<g id="Group_160">
<g id="Group_161">
<g id="Group_162">
<path id="Vector_47" d="M75.7 348.3L77.1 350.1L79.4 350L78.1 351.8L78.9 353.9L76.8 353.3L75 354.7V352.5L73.1 351.3L75.2 350.5L75.7 348.3Z" fill="#98FF98"/>
</g>
</g>
</g>
</g>
<g id="Group_163">
<g id="Group_164">
<g id="Group_165">
<g id="Group_166">
<path id="Vector_48" d="M60.3 365.5L61.2 366.6L62.6 366.5L61.8 367.7L62.4 369.1L61 368.7L59.9 369.6L59.8 368.1L58.6 367.4L60 366.9L60.3 365.5Z" fill="#98FF98"/>
</g>
</g>
</g>
</g>
</g>
<g id="Group_167">
<g id="Group_168">
<g id="Group_169">
<g id="Group_170">
<g id="Group_171">
<path id="Vector_49" d="M238.615 94.9933C245.195 88.6882 245.417 78.2433 239.112 71.664C232.807 65.0846 222.362 64.8622 215.783 71.1673C209.203 77.4724 208.981 87.9173 215.286 94.4967C221.591 101.076 232.036 101.298 238.615 94.9933Z" fill="#98FF98"/>
</g>
</g>
</g>
</g>
<g id="Group_172" opacity="0.4">
<g id="Group_173" opacity="0.4">
<g id="Group_174" opacity="0.4">
<g id="Group_175" opacity="0.4">
<path id="Vector_50" opacity="0.4" d="M232.5 76.8C232.5 75.3 233.8 74.1 235.2 74.2C236.7 74.2 237.9 75.5 237.8 76.9C237.8 78.4 236.5 79.6 235.1 79.5C233.7 79.5 232.5 78.3 232.5 76.8Z" fill="black"/>
</g>
</g>
</g>
</g>
<g id="Group_176" opacity="0.4">
<g id="Group_177" opacity="0.4">
<g id="Group_178" opacity="0.4">
<g id="Group_179" opacity="0.4">
<path id="Vector_51" opacity="0.4" d="M237.9 83.1C237.9 82.2 238.6 81.6 239.5 81.6C240.4 81.6 241 82.3 241 83.2C241 84.1 240.3 84.7 239.4 84.7C238.6 84.6 237.9 83.9 237.9 83.1Z" fill="black"/>
</g>
</g>
</g>
</g>
<g id="Group_180" opacity="0.4">
<g id="Group_181" opacity="0.4">
<g id="Group_182" opacity="0.4">
<g id="Group_183" opacity="0.4">
<path id="Vector_52" opacity="0.4" d="M235.8 87.8C236.1 87.8 236.4 88.1 236.4 88.4C236.4 88.7 236.1 89 235.8 89C235.5 89 235.2 88.7 235.2 88.4C235.2 88.1 235.5 87.8 235.8 87.8Z" fill="black"/>
</g>
</g>
</g>
</g>
</g>
</g>
</svg>
