<svg id="Layer_1" data-name="Layer 1" xmlns="http://www.w3.org/2000/svg" viewBox="0 0 17.26 28.62"><defs><style>.cls-1{fill:#98ff98;}.cls-2{fill:#1e1e1e;}</style></defs><path class="cls-1" d="M1507.13,1759.52h-10.8a2.31,2.31,0,0,1-2.3-2.31v-14.66a2.31,2.31,0,0,1,2.3-2.31h10.8a2.32,2.32,0,0,1,2.31,2.3v14.67a2.31,2.31,0,0,1-2.31,2.31Z" transform="translate(-1493.1 -1736.56)"/><path class="cls-2" d="M1507.13,1736.56h-10.8a3.24,3.24,0,0,0-3.23,3.23v17.42h0V1762a3.25,3.25,0,0,0,3.23,3.23h10.8a3.23,3.23,0,0,0,3.23-3.23h0v-22.16A3.23,3.23,0,0,0,1507.13,1736.56Zm-10.8,1.85h10.8a1.39,1.39,0,0,1,1.37,1.22,3.13,3.13,0,0,0-1.37-.31h-10.8a3.09,3.09,0,0,0-1.36.31A1.38,1.38,0,0,1,1496.33,1738.41Zm12.19,23.54a1.4,1.4,0,0,1-1.39,1.38h-10.8A1.4,1.4,0,0,1,1495,1762v-1.83a3.21,3.21,0,0,0,1.38.32h10.8a3.23,3.23,0,0,0,1.39-.32Zm0-4.74a1.41,1.41,0,0,1-1.39,1.39h-10.8a1.4,1.4,0,0,1-1.38-1.39v-14.66a1.4,1.4,0,0,1,1.38-1.39h10.8a1.4,1.4,0,0,1,1.39,1.39Zm-5,3.7h-3.58a.47.47,0,0,0-.46.46v.92a.47.47,0,0,0,.46.47h3.58a.46.46,0,0,0,.46-.47v-.92A.46.46,0,0,0,1503.52,1760.91Z" transform="translate(-1493.1 -1736.56)"/></svg>