<svg id="Layer_1" data-name="Layer 1" xmlns="http://www.w3.org/2000/svg" viewBox="0 0 26.76 26.76"><defs><style>.cls-1{fill:#98ff98;}.cls-2{fill:#1e1e1e;}</style></defs><path class="cls-1" d="M1760.11,1763.32h-20.3a2.32,2.32,0,0,1-2.31-2.3v-13.69a2.33,2.33,0,0,1,2.31-2.31h20.3a2.33,2.33,0,0,1,2.31,2.31V1761a2.32,2.32,0,0,1-2.31,2.3Z" transform="translate(-1736.58 -1737.49)"/><path class="cls-2" d="M1760.11,1737.49h-20.3a3.23,3.23,0,0,0-3.23,3.23V1761a3.24,3.24,0,0,0,3.23,3.23h20.3a3.24,3.24,0,0,0,3.23-3.23h0v-20.3A3.23,3.23,0,0,0,1760.11,1737.49Zm1.38,23.53a1.4,1.4,0,0,1-1.38,1.38h-20.3a1.4,1.4,0,0,1-1.38-1.38v-13.69a1.39,1.39,0,0,1,1.38-1.38h20.3a1.4,1.4,0,0,1,1.38,1.38Zm0-16.6a3.18,3.18,0,0,0-1.38-.32h-20.3a3.18,3.18,0,0,0-1.38.32v-3.7a1.4,1.4,0,0,1,1.38-1.39h20.3a1.4,1.4,0,0,1,1.38,1.39Z" transform="translate(-1736.58 -1737.49)"/><path class="cls-2" d="M1754.09,1739.64a2.08,2.08,0,1,0,2.08,2.08A2.08,2.08,0,0,0,1754.09,1739.64Zm0,3a.89.89,0,0,1,0-1.77.89.89,0,1,1,0,1.77Z" transform="translate(-1736.58 -1737.49)"/><path class="cls-2" d="M1758.67,1739.64a2.08,2.08,0,1,0,2.07,2.08A2.08,2.08,0,0,0,1758.67,1739.64Zm0,3a.89.89,0,1,1,.88-.88A.88.88,0,0,1,1758.67,1742.6Z" transform="translate(-1736.58 -1737.49)"/></svg>