<svg id="Layer_1" data-name="Layer 1" xmlns="http://www.w3.org/2000/svg" viewBox="0 0 22.84 28.73"><defs><style>.cls-1{fill:#98ff98;}.cls-2{fill:#1e1e1e;}</style></defs><polygon class="cls-1" points="19.86 23.46 18.79 23.46 4.06 23.46 2.98 23.46 2.98 22.38 2.98 2.15 2.98 1.08 4.06 1.08 18.79 1.08 19.86 1.08 19.86 2.15 19.86 22.38 19.86 23.46 19.86 23.46"/><path class="cls-2" d="M1260.31,1738.65a1.07,1.07,0,0,0,1.07-1.07h0a1.08,1.08,0,0,0-1.07-1.08h-20.7a1.08,1.08,0,0,0-1.07,1.08h0a1.07,1.07,0,0,0,1.07,1.07h.83v20.23h-.83a1.08,1.08,0,0,0,0,2.15h9.29a.68.68,0,0,0,0,.14v3a1.08,1.08,0,0,0,2.15,0v-3a.66.66,0,0,0,0-.14h9.29a1.08,1.08,0,0,0,0-2.15h-.84v-20.23Zm-3,20.23h-14.73v-20.23h14.73Z" transform="translate(-1238.54 -1736.5)"/></svg>