<svg width="49" height="68" viewBox="0 0 49 68" fill="none" xmlns="http://www.w3.org/2000/svg">
<path d="M48.9 23.1C48 9.7 36.4 -0.5 23 0.3C9.6 1.2 -0.600006 12.8 0.199994 26.2C0.799994 35.9 7.1 43.9 15.6 47.3C15.8 50.2 16 53.4 16 53.4L37.3 52C37.3 52 37.2 48.5 37.1 45.5C44.6 41 49.5 32.5 48.9 23.1Z" fill="#98FF98"/>
<path d="M29.6 52.5C29.6 52.5 29.6 52.4 29.6 52.2C29.6 52 29.6 51.7 29.6 51.3C29.6 50.5 29.7 49.4 29.8 47.9C29.9 46.4 30.1 44.6 30.4 42.5C30.7 40.4 31.2 38.1 32.2 35.6C32.7 34.4 33.2 33.1 34 31.8C34.4 31.2 34.9 30.6 35.6 30.2C36.3 29.8 37.2 29.8 37.9 30.1C38.3 30.3 38.6 30.6 38.7 31C38.9 31.4 38.8 31.9 38.7 32.3C38.4 33.1 37.7 33.7 36.9 34C35.3 34.7 33.5 34.6 31.8 34C30.1 33.3 28.8 31.9 28.1 30.2C27.8 29.3 27.6 28.4 27.8 27.4C28 26.4 28.8 25.5 29.9 25.6C30.4 25.6 30.9 25.9 31.2 26.4C31.5 26.8 31.6 27.4 31.5 27.9C31.3 28.9 30.6 29.7 29.9 30.4C28.4 31.8 26.4 32.6 24.3 32.4C22.2 32.2 20.3 31 19.4 29.2C18.9 28.3 18.7 27.2 19 26.3C19.2 25.8 19.5 25.4 20 25.2C20.5 25 21 25 21.5 25.2C22 25.4 22.4 25.8 22.6 26.2C22.9 26.6 23 27.1 23.1 27.6C23.2 28.5 23.2 29.5 22.9 30.4C22.4 32.2 21.3 33.8 19.7 34.7C18.2 35.6 16.4 36 14.7 35.7C13.9 35.6 13 35.3 12.4 34.7C11.8 34.1 11.6 33.1 12.1 32.4C12.4 32.1 12.8 31.9 13.2 31.8C13.6 31.7 14 31.8 14.4 32C15.1 32.3 15.6 33 16 33.6C16.7 34.9 17.3 36.1 17.8 37.3C20.1 42.1 21.7 46 22.8 48.8C23.4 50.2 23.8 51.2 24 52C24.1 52.4 24.2 52.6 24.3 52.8C24.4 53 24.4 53.1 24.4 53.1C24.4 53.1 24.4 53 24.3 52.8C24.2 52.6 24.1 52.3 24 52C23.7 51.3 23.3 50.2 22.7 48.9C21.6 46.2 19.9 42.2 17.6 37.5C17 36.3 16.4 35.1 15.7 33.8C15.3 33.2 14.9 32.6 14.2 32.3C13.6 32 12.7 32.1 12.3 32.7C11.9 33.3 12.1 34.2 12.6 34.7C13.1 35.3 13.9 35.5 14.7 35.6C16.3 35.8 18 35.5 19.5 34.6C21 33.7 22.1 32.2 22.5 30.5C22.7 29.6 22.8 28.7 22.7 27.8C22.6 26.9 22.1 26 21.3 25.6C20.9 25.4 20.4 25.4 20 25.6C19.6 25.8 19.3 26.1 19.2 26.6C18.9 27.5 19.1 28.5 19.5 29.3C20.4 31 22.2 32.2 24.2 32.3C26.2 32.5 28.1 31.7 29.5 30.4C30.2 29.7 30.8 29 31 28C31.1 27.6 31 27.1 30.8 26.7C30.6 26.3 30.2 26.1 29.7 26.1C29.3 26.1 28.8 26.3 28.5 26.6C28.2 26.9 28 27.3 27.9 27.7C27.7 28.6 27.9 29.5 28.2 30.3C28.8 32 30.2 33.3 31.7 34C33.3 34.7 35.1 34.7 36.6 34C37.3 33.7 38 33.1 38.2 32.4C38.5 31.7 38.2 30.9 37.5 30.5C36.8 30.2 36 30.2 35.4 30.6C34.8 30.9 34.3 31.5 33.9 32.1C33.2 33.3 32.6 34.6 32.1 35.8C31.2 38.3 30.7 40.6 30.3 42.7C30 44.8 29.8 46.6 29.6 48C29.5 49.5 29.4 50.6 29.3 51.4C29.3 51.8 29.2 52.1 29.2 52.3C29.6 52.4 29.6 52.5 29.6 52.5Z" fill="#263238"/>
<path d="M35.9 56.2L17.6 57.4C16.8 57.4 16.2 56.9 16.1 56.1C16.1 55.3 16.6 54.7 17.4 54.6L35.7 53.4C36.5 53.4 37.1 53.9 37.2 54.7C37.3 55.5 36.7 56.1 35.9 56.2Z" fill="#263238"/>
<path d="M36 57.4L17.7 58.6C16.9 58.6 16.4 59.3 16.4 60.1C16.4 60.9 17.1 61.4 17.9 61.4L19.9 61.3L22.9 66.2C23.2 66.8 23.9 67.1 24.5 67L31 66.6C31.7 66.6 32.2 66.1 32.5 65.5L34.8 60.3L36.2 60.2C37 60.2 37.5 59.5 37.5 58.7C37.4 57.9 36.8 57.3 36 57.4Z" fill="#263238"/>
<g opacity="0.2">
<path opacity="0.2" d="M7.89999 10.2C9.39999 8.6 11.1 7.39999 12.6 6.59999C14.1 5.79999 15.4 5.4 16.3 5.3C17.2 5.1 17.7 5.2 17.8 5.4C17.9 5.8 16.1 6.6 13.8 8.4C11.4 10.2 8.49999 13.2 6.89999 17.4C5.29999 21.5 5.4 25.8 6 28.7C6.5 31.6 7.29999 33.4 6.89999 33.7C6.69999 33.8 6.3 33.5 5.7 32.8C5.1 32.1 4.49999 30.9 3.89999 29.3C3.29999 27.7 2.89999 25.8 2.89999 23.5C2.79999 21.3 3.20001 18.8 4.10001 16.4" fill="white"/>
</g>
<g opacity="0.2">
<path opacity="0.2" d="M23.7 6C22.2 6.1 20.8 5.8 20.6 4.9C20.5 4.5 20.8 4 21.3 3.7C21.8 3.3 22.6 3 23.6 3C24.5 2.9 25.4 3.1 25.9 3.4C26.5 3.7 26.8 4.1 26.7 4.5" fill="white"/>
</g>
<path d="M32.2 65.9C32.2 65.9 31.7 65.8 30.9 65.6C30.1 65.4 29 65.3 27.8 65.4C26.6 65.5 25.5 65.9 24.8 66.2C24.1 66.5 23.6 66.8 23.6 66.7C23.6 66.7 24 66.3 24.7 66C25.4 65.6 26.5 65.2 27.8 65.1C29.1 65 30.2 65.2 31 65.4C31.8 65.6 32.3 65.8 32.2 65.9Z" fill="#455A64"/>
<path d="M34.9 60.3C34.9 60.4 31.6 60.7 27.5 60.9C23.4 61.2 20.1 61.3 20.1 61.2C20.1 61.1 23.4 60.8 27.5 60.6C31.5 60.3 34.9 60.2 34.9 60.3Z" fill="#455A64"/>
<path d="M33.9 62.5C33.9 62.5 33.2 62.7 32.1 62.8C31 62.9 29.4 63.1 27.7 63.2C26 63.3 24.4 63.4 23.3 63.4C22.2 63.4 21.5 63.4 21.5 63.4C21.5 63.4 22.2 63.3 23.3 63.2C24.5 63.1 26 63 27.7 62.9C29.4 62.8 30.9 62.6 32.1 62.5C33.2 62.5 33.9 62.5 33.9 62.5Z" fill="#455A64"/>
</svg>
